Chonburi-Regular.ufo
<glyph name="percent" format="1">
  <advance width="818"/>
  <unicode hex="0025"/>
  <outline>
    <contour>
      <point x="194" y="0" type="line"/>
      <point x="224" y="0" type="line"/>
      <point x="624" y="700" type="line"/>
      <point x="594" y="700" type="line"/>
    </contour>
    <contour>
      <point x="101" y="708"/>
      <point x="40" y="642"/>
      <point x="40" y="542" type="curve" smooth="yes"/>
      <point x="40" y="442"/>
      <point x="101" y="376"/>
      <point x="208" y="376" type="curve" smooth="yes"/>
      <point x="315" y="376"/>
      <point x="376" y="442"/>
      <point x="376" y="542" type="curve" smooth="yes"/>
      <point x="376" y="642"/>
      <point x="315" y="708"/>
      <point x="208" y="708" type="curve" smooth="yes"/>
    </contour>
    <contour>
      <point x="164" y="394"/>
      <point x="153" y="445"/>
      <point x="153" y="542" type="curve" smooth="yes"/>
      <point x="153" y="639"/>
      <point x="164" y="690"/>
      <point x="208" y="690" type="curve" smooth="yes"/>
      <point x="252" y="690"/>
      <point x="263" y="639"/>
      <point x="263" y="542" type="curve" smooth="yes"/>
      <point x="263" y="445"/>
      <point x="252" y="394"/>
      <point x="208" y="394" type="curve" smooth="yes"/>
    </contour>
    <contour>
      <point x="503" y="324"/>
      <point x="442" y="258"/>
      <point x="442" y="158" type="curve" smooth="yes"/>
      <point x="442" y="58"/>
      <point x="503" y="-8"/>
      <point x="610" y="-8" type="curve" smooth="yes"/>
      <point x="717" y="-8"/>
      <point x="778" y="58"/>
      <point x="778" y="158" type="curve" smooth="yes"/>
      <point x="778" y="258"/>
      <point x="717" y="324"/>
      <point x="610" y="324" type="curve" smooth="yes"/>
    </contour>
    <contour>
      <point x="566" y="10"/>
      <point x="555" y="61"/>
      <point x="555" y="158" type="curve" smooth="yes"/>
      <point x="555" y="255"/>
      <point x="566" y="306"/>
      <point x="610" y="306" type="curve" smooth="yes"/>
      <point x="654" y="306"/>
      <point x="665" y="255"/>
      <point x="665" y="158" type="curve" smooth="yes"/>
      <point x="665" y="61"/>
      <point x="654" y="10"/>
      <point x="610" y="10" type="curve" smooth="yes"/>
    </contour>
  </outline>
</glyph>
<glyph name="ampersand" format="1">
  <advance width="834"/>
  <unicode hex="0026"/>
  <outline>
    <contour>
      <point x="503" y="685"/>
      <point x="510" y="644"/>
      <point x="544" y="535" type="curve"/>
      <point x="573" y="535" type="line"/>
      <point x="598" y="672" type="line"/>
      <point x="555" y="696"/>
      <point x="494" y="712"/>
      <point x="411" y="712" type="curve" smooth="yes"/>
      <point x="245" y="712"/>
      <point x="171" y="621"/>
      <point x="171" y="512" type="curve" smooth="yes"/>
      <point x="171" y="471"/>
      <point x="187" y="429"/>
      <point x="216" y="387" type="curve"/>
      <point x="131" y="355"/>
      <point x="50" y="297"/>
      <point x="50" y="179" type="curve" smooth="yes"/>
      <point x="50" y="46"/>
      <point x="140" y="-12"/>
      <point x="292" y="-12" type="curve" smooth="yes"/>
      <point x="369" y="-12"/>
      <point x="424" y="1"/>
      <point x="489" y="58" type="curve"/>
      <point x="538" y="0" type="line"/>
      <point x="818" y="0" type="line"/>
      <point x="818" y="20" type="line"/>
      <point x="781" y="24" type="line" smooth="yes"/>
      <point x="765" y="26"/>
      <point x="755" y="35"/>
      <point x="743" y="48" type="curve"/>
      <point x="612" y="204" type="line"/>
      <point x="723" y="353" type="line" smooth="yes"/>
      <point x="734" y="368"/>
      <point x="743" y="374"/>
      <point x="763" y="375" type="curve" smooth="yes"/>
      <point x="802" y="378" type="line"/>
      <point x="802" y="398" type="line"/>
      <point x="655" y="398" type="line"/>
      <point x="655" y="376" type="line"/>
      <point x="704" y="376" type="line"/>
      <point x="595" y="224" type="line"/>
      <point x="402" y="454" type="line" smooth="yes"/>
      <point x="362" y="501"/>
      <point x="325" y="564"/>
      <point x="325" y="612" type="curve" smooth="yes"/>
      <point x="325" y="654"/>
      <point x="347" y="685"/>
      <point x="413" y="685" type="curve" smooth="yes"/>
    </contour>
    <contour>
      <point x="267" y="35"/>
      <point x="203" y="95"/>
      <point x="203" y="233" type="curve" smooth="yes"/>
      <point x="203" y="298"/>
      <point x="212" y="337"/>
      <point x="232" y="365" type="curve"/>
      <point x="239" y="357" type="line"/>
      <point x="473" y="77" type="line"/>
      <point x="439" y="50"/>
      <point x="400" y="35"/>
      <point x="345" y="35" type="curve" smooth="yes"/>
    </contour>
  </outline>
</glyph>
<glyph name="zero" format="1">
  <advance width="778"/>
  <unicode hex="0030"/>
  <outline>
    <contour>
      <point x="200" y="712"/>
      <point x="52" y="591"/>
      <point x="52" y="350" type="curve" smooth="yes"/>
      <point x="52" y="109"/>
      <point x="200" y="-12"/>
      <point x="389" y="-12" type="curve" smooth="yes"/>
      <point x="578" y="-12"/>
      <point x="726" y="109"/>
      <point x="726" y="350" type="curve" smooth="yes"/>
      <point x="726" y="591"/>
      <point x="578" y="712"/>
      <point x="389" y="712" type="curve" smooth="yes"/>
    </contour>
    <contour>
      <point x="295" y="17"/>
      <point x="273" y="144"/>
      <point x="273" y="350" type="curve" smooth="yes"/>
      <point x="273" y="556"/>
      <point x="295" y="683"/>
      <point x="389" y="683" type="curve" smooth="yes"/>
      <point x="483" y="683"/>
      <point x="505" y="556"/>
      <point x="505" y="350" type="curve" smooth="yes"/>
      <point x="505" y="144"/>
      <point x="483" y="17"/>
      <point x="389" y="17" type="curve" smooth="yes"/>
    </contour>
  </outline>
</glyph>
<glyph name="three" format="1">
  <advance width="630"/>
  <unicode hex="0033"/>
  <outline>
    <contour>
      <point x="131" y="18"/>
      <point x="97" y="104"/>
      <point x="69" y="197" type="curve"/>
      <point x="46" y="197" type="line"/>
      <point x="32" y="31" type="line"/>
      <point x="80" y="6"/>
      <point x="170" y="-10"/>
      <point x="263" y="-10" type="curve" smooth="yes"/>
      <point x="468" y="-10"/>
      <point x="584" y="39"/>
      <point x="584" y="191" type="curve" smooth="yes"/>
      <point x="584" y="291"/>
      <point x="510" y="355"/>
      <point x="391" y="372" type="curve"/>
      <point x="494" y="399"/>
      <point x="558" y="461"/>
      <point x="558" y="541" type="curve" smooth="yes"/>
      <point x="558" y="654"/>
      <point x="458" y="712"/>
      <point x="317" y="712" type="curve" smooth="yes"/>
      <point x="191" y="712"/>
      <point x="105" y="679"/>
      <point x="33" y="631" type="curve"/>
      <point x="45" y="612" type="line"/>
      <point x="104" y="647"/>
      <point x="163" y="664"/>
      <point x="221" y="664" type="curve" smooth="yes"/>
      <point x="310" y="664"/>
      <point x="354" y="622"/>
      <point x="354" y="528" type="curve" smooth="yes"/>
      <point x="354" y="432"/>
      <point x="317" y="386"/>
      <point x="233" y="386" type="curve" smooth="yes"/>
      <point x="191" y="386" type="line"/>
      <point x="191" y="356" type="line"/>
      <point x="232" y="356" type="line" smooth="yes"/>
      <point x="331" y="356"/>
      <point x="376" y="287"/>
      <point x="376" y="187" type="curve" smooth="yes"/>
      <point x="376" y="66"/>
      <point x="333" y="18"/>
      <point x="245" y="18" type="curve" smooth="yes"/>
    </contour>
  </outline>
</glyph>
<glyph name="four" format="1">
  <advance width="678"/>
  <unicode hex="0034"/>
  <outline>
    <contour>
      <point x="353" y="53" type="line" smooth="yes"/>
      <point x="353" y="37"/>
      <point x="348" y="34"/>
      <point x="329" y="30" type="curve"/>
      <point x="250" y="20" type="line"/>
      <point x="250" y="0" type="line"/>
      <point x="650" y="0" type="line"/>
      <point x="650" y="20" type="line"/>
      <point x="580" y="30" type="line" smooth="yes"/>
      <point x="562" y="33"/>
      <point x="557" y="37"/>
      <point x="557" y="52" type="curve" smooth="yes"/>
      <point x="557" y="159" type="line"/>
      <point x="650" y="159" type="line"/>
      <point x="650" y="187" type="line"/>
      <point x="557" y="187" type="line"/>
      <point x="557" y="700" type="line"/>
      <point x="484" y="700" type="line"/>
      <point x="20" y="182" type="line"/>
      <point x="26" y="159" type="line"/>
      <point x="353" y="159" type="line"/>
    </contour>
    <contour>
      <point x="353" y="509" type="line"/>
      <point x="353" y="187" type="line"/>
      <point x="64" y="187" type="line"/>
    </contour>
  </outline>
</glyph>
<glyph name="seven" format="1">
  <advance width="600"/>
  <unicode hex="0037"/>
  <outline>
    <contour>
      <point x="559" y="700" type="line"/>
      <point x="36" y="700" type="line"/>
      <point x="36" y="493" type="line"/>
      <point x="56" y="493" type="line"/>
      <point x="64" y="530" type="line" smooth="yes"/>
      <point x="68" y="549"/>
      <point x="70" y="554"/>
      <point x="86" y="554" type="curve" smooth="yes"/>
      <point x="456" y="554" type="line"/>
      <point x="331" y="419"/>
      <point x="158" y="196"/>
      <point x="124" y="0" type="curve"/>
      <point x="328" y="0" type="line"/>
      <point x="363" y="231"/>
      <point x="426" y="462"/>
      <point x="570" y="685" type="curve"/>
    </contour>
  </outline>
</glyph>
<glyph name="nine" format="1">
  <advance width="702"/>
  <unicode hex="0039"/>
  <outline>
    <contour>
      <point x="175" y="-13" type="line"/>
      <point x="511" y="23"/>
      <point x="650" y="209"/>
      <point x="650" y="418" type="curve" smooth="yes"/>
      <point x="650" y="589"/>
      <point x="532" y="712"/>
      <point x="335" y="712" type="curve" smooth="yes"/>
      <point x="156" y="712"/>
      <point x="42" y="622"/>
      <point x="42" y="470" type="curve" smooth="yes"/>
      <point x="42" y="346"/>
      <point x="131" y="257"/>
      <point x="292" y="257" type="curve" smooth="yes"/>
      <point x="332" y="257"/>
      <point x="372" y="262"/>
      <point x="418" y="281" type="curve"/>
      <point x="394" y="132"/>
      <point x="326" y="45"/>
      <point x="167" y="10" type="curve"/>
    </contour>
    <contour>
      <point x="248" y="296"/>
      <point x="227" y="379"/>
      <point x="227" y="491" type="curve" smooth="yes"/>
      <point x="227" y="614"/>
      <point x="260" y="686"/>
      <point x="332" y="686" type="curve" smooth="yes"/>
      <point x="420" y="686"/>
      <point x="430" y="570"/>
      <point x="430" y="459" type="curve" smooth="yes"/>
      <point x="430" y="406"/>
      <point x="428" y="357"/>
      <point x="423" y="314" type="curve"/>
      <point x="400" y="303"/>
      <point x="376" y="296"/>
      <point x="343" y="296" type="curve" smooth="yes"/>
    </contour>
  </outline>
</glyph>
<glyph name="colon" format="1">
  <advance width="292"/>
  <unicode hex="003A"/>
  <outline>
    <contour>
      <point x="192" y="-8"/>
      <point x="230" y="28"/>
      <point x="230" y="74" type="curve" smooth="yes"/>
      <point x="230" y="120"/>
      <point x="192" y="156"/>
      <point x="146" y="156" type="curve" smooth="yes"/>
      <point x="100" y="156"/>
      <point x="62" y="120"/>
      <point x="62" y="74" type="curve" smooth="yes"/>
      <point x="62" y="28"/>
      <point x="100" y="-8"/>
      <point x="146" y="-8" type="curve" smooth="yes"/>
    </contour>
    <contour>
      <point x="192" y="334"/>
      <point x="230" y="370"/>
      <point x="230" y="416" type="curve" smooth="yes"/>
      <point x="230" y="462"/>
      <point x="192" y="498"/>
      <point x="146" y="498" type="curve" smooth="yes"/>
      <point x="100" y="498"/>
      <point x="62" y="462"/>
      <point x="62" y="416" type="curve" smooth="yes"/>
      <point x="62" y="370"/>
      <point x="100" y="334"/>
      <point x="146" y="334" type="curve" smooth="yes"/>
    </contour>
  </outline>
</glyph>
<glyph name="greater" format="1">
  <advance width="570"/>
  <unicode hex="003E"/>
  <outline>
    <contour>
      <point x="484" y="288" type="line"/>
      <point x="116" y="510" type="line"/>
      <point x="100" y="483" type="line"/>
      <point x="447" y="278" type="line"/>
      <point x="100" y="73" type="line"/>
      <point x="116" y="46" type="line"/>
      <point x="484" y="268" type="line"/>
    </contour>
  </outline>
</glyph>
<glyph name="question" format="1">
  <advance width="566"/>
  <unicode hex="003F"/>
  <outline>
    <contour>
      <point x="253" y="221" type="line"/>
      <point x="281" y="221" type="line"/>
      <point x="294" y="352" type="line"/>
      <point x="405" y="371"/>
      <point x="524" y="418"/>
      <point x="524" y="555" type="curve" smooth="yes"/>
      <point x="524" y="660"/>
      <point x="447" y="712"/>
      <point x="312" y="712" type="curve" smooth="yes"/>
      <point x="172" y="712"/>
      <point x="98" y="670"/>
      <point x="30" y="621" type="curve"/>
      <point x="42" y="602" type="line"/>
      <point x="99" y="642"/>
      <point x="143" y="662"/>
      <point x="220" y="662" type="curve" smooth="yes"/>
      <point x="290" y="662"/>
      <point x="334" y="628"/>
      <point x="334" y="546" type="curve" smooth="yes"/>
      <point x="334" y="475"/>
      <point x="310" y="406"/>
      <point x="242" y="352" type="curve"/>
    </contour>
    <contour>
      <point x="313" y="-8"/>
      <point x="351" y="28"/>
      <point x="351" y="74" type="curve" smooth="yes"/>
      <point x="351" y="120"/>
      <point x="313" y="156"/>
      <point x="267" y="156" type="curve" smooth="yes"/>
      <point x="221" y="156"/>
      <point x="183" y="120"/>
      <point x="183" y="74" type="curve" smooth="yes"/>
      <point x="183" y="28"/>
      <point x="221" y="-8"/>
      <point x="267" y="-8" type="curve" smooth="yes"/>
    </contour>
  </outline>
</glyph>
<glyph name="at" format="1">
  <advance width="1049"/>
  <unicode hex="0040"/>
  <outline>
    <contour>
      <point x="800" y="315" type="line" smooth="yes"/>
      <point x="800" y="408"/>
      <point x="754" y="468"/>
      <point x="614" y="468" type="curve" smooth="yes"/>
      <point x="508" y="468"/>
      <point x="430" y="438"/>
      <point x="379" y="402" type="curve"/>
      <point x="391" y="384" type="line"/>
      <point x="436" y="411"/>
      <point x="479" y="428"/>
      <point x="536" y="428" type="curve" smooth="yes"/>
      <point x="602" y="428"/>
      <point x="622" y="402"/>
      <point x="622" y="337" type="curve" smooth="yes"/>
      <point x="622" y="272" type="line"/>
      <point x="431" y="267"/>
      <point x="332" y="238"/>
      <point x="332" y="125" type="curve" smooth="yes"/>
      <point x="332" y="50"/>
      <point x="381" y="18"/>
      <point x="455" y="18" type="curve" smooth="yes"/>
      <point x="541" y="18"/>
      <point x="591" y="53"/>
      <point x="622" y="83" type="curve"/>
      <point x="634" y="41"/>
      <point x="667" y="18"/>
      <point x="764" y="18" type="curve" smooth="yes"/>
      <point x="905" y="18"/>
      <point x="991" y="135"/>
      <point x="991" y="312" type="curve" smooth="yes"/>
      <point x="991" y="555"/>
      <point x="827" y="672"/>
      <point x="577" y="672" type="curve" smooth="yes"/>
      <point x="280" y="672"/>
      <point x="58" y="499"/>
      <point x="58" y="228" type="curve" smooth="yes"/>
      <point x="58" y="-52"/>
      <point x="306" y="-158"/>
      <point x="547" y="-158" type="curve" smooth="yes"/>
      <point x="678" y="-158"/>
      <point x="788" y="-121"/>
      <point x="868" y="-56" type="curve"/>
      <point x="852" y="-31" type="line"/>
      <point x="780" y="-88"/>
      <point x="681" y="-120"/>
      <point x="588" y="-120" type="curve" smooth="yes"/>
      <point x="363" y="-120"/>
      <point x="214" y="-23"/>
      <point x="214" y="216" type="curve" smooth="yes"/>
      <point x="214" y="451"/>
      <point x="380" y="610"/>
      <point x="632" y="610" type="curve" smooth="yes"/>
      <point x="799" y="610"/>
      <point x="959" y="529"/>
      <point x="959" y="304" type="curve" smooth="yes"/>
      <point x="959" y="155"/>
      <point x="889" y="75"/>
      <point x="835" y="75" type="curve" smooth="yes"/>
      <point x="811" y="75"/>
      <point x="800" y="80"/>
      <point x="800" y="135" type="curve" smooth="yes"/>
    </contour>
    <contour>
      <point x="520" y="75"/>
      <point x="507" y="92"/>
      <point x="507" y="137" type="curve" smooth="yes"/>
      <point x="507" y="208"/>
      <point x="521" y="240"/>
      <point x="622" y="248" type="curve"/>
      <point x="622" y="112" type="line"/>
      <point x="600" y="90"/>
      <point x="581" y="75"/>
      <point x="554" y="75" type="curve" smooth="yes"/>
    </contour>
  </outline>
</glyph>
<glyph name="G" format="1">
  <advance width="790"/>
  <unicode hex="0047"/>
  <outline>
    <contour>
      <point x="276" y="576"/>
      <point x="322" y="683"/>
      <point x="453" y="683" type="curve" smooth="yes"/>
      <point x="575" y="683"/>
      <point x="630" y="591"/>
      <point x="662" y="495" type="curve"/>
      <point x="690" y="495" type="line"/>
      <point x="704" y="667" type="line"/>
      <point x="654" y="692"/>
      <point x="553" y="712"/>
      <point x="452" y="712" type="curve" smooth="yes"/>
      <point x="233" y="712"/>
      <point x="56" y="616"/>
      <point x="56" y="360" type="curve" smooth="yes"/>
      <point x="56" y="80"/>
      <point x="246" y="-12"/>
      <point x="444" y="-12" type="curve" smooth="yes"/>
      <point x="523" y="-12"/>
      <point x="633" y="27"/>
      <point x="722" y="44" type="curve"/>
      <point x="722" y="307" type="line"/>
      <point x="449" y="307" type="line"/>
      <point x="449" y="277" type="line"/>
      <point x="548" y="277" type="line"/>
      <point x="548" y="31" type="line"/>
      <point x="516" y="31" type="line" smooth="yes"/>
      <point x="338" y="31"/>
      <point x="276" y="134"/>
      <point x="276" y="386" type="curve" smooth="yes"/>
    </contour>
  </outline>
</glyph>
<glyph name="L" format="1">
  <advance width="668"/>
  <unicode hex="004C"/>
  <outline>
    <contour>
      <point x="87" y="50" type="line" smooth="yes"/>
      <point x="87" y="34"/>
      <point x="82" y="32"/>
      <point x="63" y="28" type="curve" smooth="yes"/>
      <point x="26" y="20" type="line"/>
      <point x="26" y="0" type="line"/>
      <point x="630" y="0" type="line"/>
      <point x="630" y="199" type="line"/>
      <point x="602" y="199" type="line"/>
      <point x="563" y="87"/>
      <point x="540" y="30"/>
      <point x="417" y="30" type="curve" smooth="yes"/>
      <point x="291" y="30" type="line"/>
      <point x="291" y="649" type="line" smooth="yes"/>
      <point x="291" y="665"/>
      <point x="296" y="667"/>
      <point x="315" y="671" type="curve" smooth="yes"/>
      <point x="358" y="680" type="line"/>
      <point x="358" y="700" type="line"/>
      <point x="26" y="700" type="line"/>
      <point x="26" y="680" type="line"/>
      <point x="63" y="672" type="line" smooth="yes"/>
      <point x="82" y="668"/>
      <point x="87" y="666"/>
      <point x="87" y="650" type="curve" smooth="yes"/>
    </contour>
  </outline>
</glyph>
<glyph name="Q" format="1">
  <advance width="856"/>
  <unicode hex="0051"/>
  <outline>
    <contour>
      <point x="222" y="712"/>
      <point x="56" y="624"/>
      <point x="56" y="354" type="curve" smooth="yes"/>
      <point x="56" y="84"/>
      <point x="221" y="-4"/>
      <point x="427" y="-4" type="curve" smooth="yes"/>
      <point x="633" y="-4"/>
      <point x="798" y="84"/>
      <point x="798" y="354" type="curve" smooth="yes"/>
      <point x="798" y="624"/>
      <point x="633" y="712"/>
      <point x="427" y="712" type="curve" smooth="yes"/>
    </contour>
    <contour>
      <point x="304" y="25"/>
      <point x="277" y="116"/>
      <point x="277" y="354" type="curve" smooth="yes"/>
      <point x="277" y="592"/>
      <point x="304" y="683"/>
      <point x="427" y="683" type="curve" smooth="yes"/>
      <point x="550" y="683"/>
      <point x="577" y="592"/>
      <point x="577" y="354" type="curve" smooth="yes"/>
      <point x="577" y="116"/>
      <point x="550" y="25"/>
      <point x="427" y="25" type="curve" smooth="yes"/>
    </contour>
    <contour>
      <point x="647" y="-225"/>
      <point x="680" y="-165"/>
      <point x="706" y="-63" type="curve"/>
      <point x="684" y="-58" type="line"/>
      <point x="676" y="-69" type="line" smooth="yes"/>
      <point x="662" y="-88"/>
      <point x="651" y="-100"/>
      <point x="626" y="-100" type="curve" smooth="yes"/>
      <point x="525" y="-100"/>
      <point x="404" y="-40"/>
      <point x="319" y="-40" type="curve" smooth="yes"/>
      <point x="272" y="-40"/>
      <point x="241" y="-64"/>
      <point x="222" y="-90" type="curve"/>
      <point x="222" y="-102" type="line"/>
      <point x="393" y="-108"/>
      <point x="461" y="-225"/>
      <point x="581" y="-225" type="curve" smooth="yes"/>
    </contour>
  </outline>
</glyph>
<glyph name="R" format="1">
  <advance width="796"/>
  <unicode hex="0052"/>
  <outline>
    <contour>
      <point x="460" y="156" type="line" smooth="yes"/>
      <point x="482" y="24"/>
      <point x="527" y="-10"/>
      <point x="651" y="-10" type="curve" smooth="yes"/>
      <point x="747" y="-10"/>
      <point x="772" y="25"/>
      <point x="786" y="55" type="curve"/>
      <point x="765" y="73" type="line"/>
      <point x="755" y="51"/>
      <point x="742" y="36"/>
      <point x="723" y="36" type="curve" smooth="yes"/>
      <point x="695" y="36"/>
      <point x="693" y="57"/>
      <point x="681" y="125" type="curve" smooth="yes"/>
      <point x="670" y="185" type="line" smooth="yes"/>
      <point x="649" y="298"/>
      <point x="604" y="334"/>
      <point x="489" y="341" type="curve"/>
      <point x="627" y="361"/>
      <point x="684" y="413"/>
      <point x="684" y="516" type="curve" smooth="yes"/>
      <point x="684" y="653"/>
      <point x="583" y="700"/>
      <point x="320" y="700" type="curve" smooth="yes"/>
      <point x="26" y="700" type="line"/>
      <point x="26" y="680" type="line"/>
      <point x="63" y="672" type="line" smooth="yes"/>
      <point x="82" y="668"/>
      <point x="87" y="666"/>
      <point x="87" y="650" type="curve" smooth="yes"/>
      <point x="87" y="50" type="line" smooth="yes"/>
      <point x="87" y="34"/>
      <point x="82" y="32"/>
      <point x="63" y="28" type="curve" smooth="yes"/>
      <point x="26" y="20" type="line"/>
      <point x="26" y="0" type="line"/>
      <point x="358" y="0" type="line"/>
      <point x="358" y="20" type="line"/>
      <point x="315" y="29" type="line" smooth="yes"/>
      <point x="296" y="33"/>
      <point x="291" y="35"/>
      <point x="291" y="51" type="curve" smooth="yes"/>
      <point x="291" y="332" type="line"/>
      <point x="320" y="332" type="line" smooth="yes"/>
      <point x="420" y="332"/>
      <point x="432" y="323"/>
      <point x="448" y="231" type="curve" smooth="yes"/>
    </contour>
    <contour>
      <point x="329" y="670" type="line" smooth="yes"/>
      <point x="446" y="670"/>
      <point x="474" y="622"/>
      <point x="474" y="516" type="curve" smooth="yes"/>
      <point x="474" y="410"/>
      <point x="446" y="362"/>
      <point x="329" y="362" type="curve" smooth="yes"/>
      <point x="291" y="362" type="line"/>
      <point x="291" y="670" type="line"/>
    </contour>
  </outline>
</glyph>
<glyph name="Z" format="1">
  <advance width="762"/>
  <unicode hex="005A"/>
  <outline>
    <contour>
      <point x="695" y="199" type="line"/>
      <point x="670" y="199" type="line"/>
      <point x="633" y="83"/>
      <point x="609" y="30"/>
      <point x="486" y="30" type="curve" smooth="yes"/>
      <point x="285" y="30" type="line"/>
      <point x="698" y="674" type="line"/>
      <point x="698" y="700" type="line"/>
      <point x="106" y="700" type="line"/>
      <point x="106" y="505" type="line"/>
      <point x="131" y="505" type="line"/>
      <point x="168" y="617"/>
      <point x="192" y="670"/>
      <point x="315" y="670" type="curve" smooth="yes"/>
      <point x="470" y="670" type="line"/>
      <point x="58" y="26" type="line"/>
      <point x="58" y="0" type="line"/>
      <point x="695" y="0" type="line"/>
    </contour>
  </outline>
</glyph>
<glyph name="backslash" format="1">
  <advance width="300"/>
  <unicode hex="005C"/>
  <outline>
    <contour>
      <point x="30" y="712" type="line"/>
      <point x="240" y="-12" type="line"/>
      <point x="270" y="-12" type="line"/>
      <point x="60" y="712" type="line"/>
    </contour>
  </outline>
</glyph>
<glyph name="asciicircum" format="1">
  <advance width="550"/>
  <unicode hex="005E"/>
  <outline>
    <contour>
      <point x="285" y="712" type="line"/>
      <point x="265" y="712" type="line"/>
      <point x="50" y="318" type="line"/>
      <point x="81" y="318" type="line"/>
      <point x="275" y="675" type="line"/>
      <point x="469" y="318" type="line"/>
      <point x="500" y="318" type="line"/>
    </contour>
  </outline>
</glyph>
<glyph name="underscore" format="1">
  <advance width="520"/>
  <unicode hex="005F"/>
  <outline>
    <contour>
      <point x="520" y="-78" type="line"/>
      <point x="0" y="-78" type="line"/>
      <point x="0" y="-106" type="line"/>
      <point x="520" y="-106" type="line"/>
    </contour>
  </outline>
</glyph>
<glyph name="g" format="1">
  <advance width="692"/>
  <unicode hex="0067"/>
  <outline>
    <contour>
      <point x="617" y="472" type="line"/>
      <point x="628" y="472" type="line"/>
      <point x="652" y="587" type="line"/>
      <point x="548" y="587"/>
      <point x="481" y="539"/>
      <point x="446" y="486" type="curve"/>
      <point x="414" y="492"/>
      <point x="379" y="495"/>
      <point x="340" y="496" type="curve" smooth="yes"/>
      <point x="182" y="496"/>
      <point x="76" y="458"/>
      <point x="76" y="335" type="curve" smooth="yes"/>
      <point x="76" y="270"/>
      <point x="111" y="225"/>
      <point x="170" y="199" type="curve"/>
      <point x="109" y="188"/>
      <point x="64" y="159"/>
      <point x="64" y="93" type="curve" smooth="yes"/>
      <point x="64" y="31"/>
      <point x="115" y="1"/>
      <point x="178" y="-14" type="curve"/>
      <point x="113" y="-22"/>
      <point x="58" y="-49"/>
      <point x="58" y="-109" type="curve" smooth="yes"/>
      <point x="58" y="-203"/>
      <point x="185" y="-240"/>
      <point x="330" y="-240" type="curve" smooth="yes"/>
      <point x="483" y="-240"/>
      <point x="652" y="-191"/>
      <point x="652" y="-55" type="curve" smooth="yes"/>
      <point x="652" y="41"/>
      <point x="596" y="77"/>
      <point x="456" y="90" type="curve" smooth="yes"/>
      <point x="286" y="106" type="line" smooth="yes"/>
      <point x="174" y="117"/>
      <point x="139" y="121"/>
      <point x="139" y="151" type="curve" smooth="yes"/>
      <point x="139" y="171"/>
      <point x="180" y="182"/>
      <point x="217" y="184" type="curve"/>
      <point x="253" y="175"/>
      <point x="294" y="171"/>
      <point x="340" y="171" type="curve" smooth="yes"/>
      <point x="498" y="171"/>
      <point x="604" y="213"/>
      <point x="604" y="335" type="curve" smooth="yes"/>
      <point x="604" y="410"/>
      <point x="558" y="456"/>
      <point x="477" y="479" type="curve"/>
      <point x="488" y="486"/>
      <point x="502" y="490"/>
      <point x="522" y="490" type="curve" smooth="yes"/>
      <point x="540" y="490"/>
      <point x="563" y="487"/>
      <point x="592" y="479" type="curve" smooth="yes"/>
    </contour>
    <contour>
      <point x="423" y="-47" type="line" smooth="yes"/>
      <point x="511" y="-57"/>
      <point x="539" y="-69"/>
      <point x="539" y="-120" type="curve" smooth="yes"/>
      <point x="539" y="-183"/>
      <point x="462" y="-213"/>
      <point x="337" y="-213" type="curve" smooth="yes"/>
      <point x="222" y="-213"/>
      <point x="195" y="-168"/>
      <point x="195" y="-91" type="curve" smooth="yes"/>
      <point x="195" y="-57"/>
      <point x="202" y="-33"/>
      <point x="208" y="-20" type="curve"/>
      <point x="232" y="-25"/>
      <point x="258" y="-28"/>
      <point x="282" y="-31" type="curve" smooth="yes"/>
    </contour>
    <contour>
      <point x="273" y="196"/>
      <point x="260" y="248"/>
      <point x="260" y="335" type="curve" smooth="yes"/>
      <point x="260" y="419"/>
      <point x="273" y="471"/>
      <point x="340" y="471" type="curve" smooth="yes"/>
      <point x="407" y="471"/>
      <point x="420" y="419"/>
      <point x="420" y="335" type="curve" smooth="yes"/>
      <point x="420" y="248"/>
      <point x="407" y="196"/>
      <point x="340" y="196" type="curve" smooth="yes"/>
    </contour>
  </outline>
</glyph>
<glyph name="m" format="1">
  <advance width="1108"/>
  <unicode hex="006D"/>
  <outline>
    <contour>
      <point x="281" y="504" type="line"/>
      <point x="264" y="504" type="line"/>
      <point x="24" y="474" type="line"/>
      <point x="24" y="456" type="line"/>
      <point x="59" y="448" type="line" smooth="yes"/>
      <point x="78" y="444"/>
      <point x="83" y="442"/>
      <point x="83" y="426" type="curve" smooth="yes"/>
      <point x="83" y="48" type="line" smooth="yes"/>
      <point x="83" y="32"/>
      <point x="78" y="30"/>
      <point x="59" y="26" type="curve" smooth="yes"/>
      <point x="24" y="18" type="line"/>
      <point x="24" y="0" type="line"/>
      <point x="340" y="0" type="line"/>
      <point x="340" y="18" type="line"/>
      <point x="306" y="25" type="line" smooth="yes"/>
      <point x="287" y="29"/>
      <point x="283" y="33"/>
      <point x="283" y="48" type="curve" smooth="yes"/>
      <point x="283" y="403" type="line"/>
      <point x="314" y="425"/>
      <point x="353" y="443"/>
      <point x="392" y="443" type="curve" smooth="yes"/>
      <point x="438" y="443"/>
      <point x="455" y="420"/>
      <point x="455" y="360" type="curve" smooth="yes"/>
      <point x="455" y="56" type="line" smooth="yes"/>
      <point x="455" y="20"/>
      <point x="469" y="0"/>
      <point x="506" y="0" type="curve" smooth="yes"/>
      <point x="714" y="0" type="line"/>
      <point x="714" y="18" type="line"/>
      <point x="679" y="26" type="line" smooth="yes"/>
      <point x="660" y="30"/>
      <point x="655" y="32"/>
      <point x="655" y="48" type="curve" smooth="yes"/>
      <point x="655" y="342" type="line" smooth="yes"/>
      <point x="655" y="363"/>
      <point x="653" y="382"/>
      <point x="649" y="399" type="curve"/>
      <point x="682" y="423"/>
      <point x="722" y="443"/>
      <point x="764" y="443" type="curve" smooth="yes"/>
      <point x="810" y="443"/>
      <point x="827" y="420"/>
      <point x="827" y="360" type="curve" smooth="yes"/>
      <point x="827" y="56" type="line" smooth="yes"/>
      <point x="827" y="20"/>
      <point x="841" y="0"/>
      <point x="878" y="0" type="curve" smooth="yes"/>
      <point x="1086" y="0" type="line"/>
      <point x="1086" y="18" type="line"/>
      <point x="1051" y="26" type="line" smooth="yes"/>
      <point x="1032" y="30"/>
      <point x="1027" y="32"/>
      <point x="1027" y="48" type="curve" smooth="yes"/>
      <point x="1027" y="342" type="line" smooth="yes"/>
      <point x="1027" y="441"/>
      <point x="983" y="498"/>
      <point x="854" y="498" type="curve" smooth="yes"/>
      <point x="756" y="498"/>
      <point x="682" y="458"/>
      <point x="640" y="424" type="curve"/>
      <point x="618" y="472"/>
      <point x="569" y="498"/>
      <point x="482" y="498" type="curve" smooth="yes"/>
      <point x="393" y="498"/>
      <point x="324" y="465"/>
      <point x="281" y="434" type="curve"/>
    </contour>
  </outline>
</glyph>
<glyph name="p" format="1">
  <advance width="746"/>
  <unicode hex="0070"/>
  <outline>
    <contour>
      <point x="342" y="-226" type="line"/>
      <point x="342" y="-208" type="line"/>
      <point x="307" y="-200" type="line" smooth="yes"/>
      <point x="288" y="-196"/>
      <point x="283" y="-194"/>
      <point x="283" y="-178" type="curve" smooth="yes"/>
      <point x="283" y="55" type="line"/>
      <point x="314" y="22"/>
      <point x="367" y="-10"/>
      <point x="455" y="-10" type="curve" smooth="yes"/>
      <point x="593" y="-10"/>
      <point x="696" y="62"/>
      <point x="696" y="249" type="curve" smooth="yes"/>
      <point x="696" y="430"/>
      <point x="593" y="498"/>
      <point x="455" y="498" type="curve" smooth="yes"/>
      <point x="364" y="498"/>
      <point x="313" y="471"/>
      <point x="281" y="446" type="curve"/>
      <point x="281" y="504" type="line"/>
      <point x="264" y="504" type="line"/>
      <point x="24" y="474" type="line"/>
      <point x="24" y="456" type="line"/>
      <point x="59" y="448" type="line" smooth="yes"/>
      <point x="78" y="444"/>
      <point x="83" y="442"/>
      <point x="83" y="426" type="curve" smooth="yes"/>
      <point x="83" y="-178" type="line" smooth="yes"/>
      <point x="83" y="-194"/>
      <point x="78" y="-196"/>
      <point x="59" y="-200" type="curve" smooth="yes"/>
      <point x="24" y="-208" type="line"/>
      <point x="24" y="-226" type="line"/>
    </contour>
    <contour>
      <point x="465" y="456"/>
      <point x="490" y="395"/>
      <point x="490" y="249" type="curve" smooth="yes"/>
      <point x="490" y="97"/>
      <point x="469" y="33"/>
      <point x="396" y="33" type="curve" smooth="yes"/>
      <point x="351" y="33"/>
      <point x="311" y="59"/>
      <point x="283" y="89" type="curve"/>
      <point x="283" y="418" type="line"/>
      <point x="311" y="441"/>
      <point x="347" y="456"/>
      <point x="391" y="456" type="curve" smooth="yes"/>
    </contour>
  </outline>
</glyph>
<glyph name="v" format="1">
  <advance width="582"/>
  <unicode hex="0076"/>
  <outline>
    <contour>
      <point x="318" y="486" type="line"/>
      <point x="4" y="486" type="line"/>
      <point x="4" y="471" type="line"/>
      <point x="34" y="463" type="line"/>
      <point x="44" y="461"/>
      <point x="55" y="458"/>
      <point x="62" y="444" type="curve" smooth="yes"/>
      <point x="304" y="-18" type="line"/>
      <point x="322" y="-18" type="line"/>
      <point x="525" y="448" type="line" smooth="yes"/>
      <point x="532" y="464"/>
      <point x="537" y="465"/>
      <point x="552" y="467" type="curve" smooth="yes"/>
      <point x="578" y="471" type="line"/>
      <point x="578" y="486" type="line"/>
      <point x="463" y="486" type="line"/>
      <point x="463" y="471" type="line"/>
      <point x="489" y="468" type="line" smooth="yes"/>
      <point x="504" y="466"/>
      <point x="504" y="463"/>
      <point x="499" y="451" type="curve" smooth="yes"/>
      <point x="390" y="197" type="line"/>
      <point x="274" y="430" type="line" smooth="yes"/>
      <point x="263" y="452"/>
      <point x="273" y="461"/>
      <point x="292" y="465" type="curve" smooth="yes"/>
      <point x="318" y="471" type="line"/>
    </contour>
  </outline>
</glyph>
<glyph name="z" format="1">
  <advance width="564"/>
  <unicode hex="007A"/>
  <outline>
    <contour>
      <point x="526" y="466" type="line"/>
      <point x="526" y="486" type="line"/>
      <point x="56" y="486" type="line"/>
      <point x="56" y="355" type="line"/>
      <point x="76" y="355" type="line"/>
      <point x="102" y="435"/>
      <point x="121" y="461"/>
      <point x="213" y="461" type="curve" smooth="yes"/>
      <point x="323" y="461" type="line"/>
      <point x="32" y="20" type="line"/>
      <point x="32" y="0" type="line"/>
      <point x="528" y="0" type="line"/>
      <point x="528" y="135" type="line"/>
      <point x="508" y="135" type="line"/>
      <point x="482" y="53"/>
      <point x="463" y="25"/>
      <point x="371" y="25" type="curve" smooth="yes"/>
      <point x="235" y="25" type="line"/>
    </contour>
  </outline>
</glyph>
<glyph name="braceleft" format="1">
  <advance width="380"/>
  <unicode hex="007B"/>
  <outline>
    <contour>
      <point x="62" y="327" type="line"/>
      <point x="107" y="320" type="line" smooth="yes"/>
      <point x="129" y="317"/>
      <point x="135" y="304"/>
      <point x="135" y="285" type="curve" smooth="yes"/>
      <point x="135" y="276"/>
      <point x="134" y="266"/>
      <point x="132" y="255" type="curve" smooth="yes"/>
      <point x="118" y="173"/>
      <point x="102" y="106"/>
      <point x="102" y="50" type="curve" smooth="yes"/>
      <point x="102" y="-31"/>
      <point x="139" y="-93"/>
      <point x="264" y="-99" type="curve" smooth="yes"/>
      <point x="330" y="-102" type="line"/>
      <point x="330" y="-74" type="line"/>
      <point x="267" y="-70" type="line" smooth="yes"/>
      <point x="232" y="-68"/>
      <point x="223" y="-53"/>
      <point x="223" y="-31" type="curve" smooth="yes"/>
      <point x="223" y="10"/>
      <point x="264" y="140"/>
      <point x="267" y="241" type="curve" smooth="yes"/>
      <point x="269" y="293"/>
      <point x="260" y="330"/>
      <point x="173" y="340" type="curve"/>
      <point x="260" y="350"/>
      <point x="269" y="387"/>
      <point x="267" y="439" type="curve" smooth="yes"/>
      <point x="264" y="540"/>
      <point x="223" y="670"/>
      <point x="223" y="711" type="curve" smooth="yes"/>
      <point x="223" y="733"/>
      <point x="232" y="748"/>
      <point x="267" y="750" type="curve" smooth="yes"/>
      <point x="330" y="754" type="line"/>
      <point x="330" y="782" type="line"/>
      <point x="264" y="779" type="line" smooth="yes"/>
      <point x="139" y="773"/>
      <point x="102" y="711"/>
      <point x="102" y="630" type="curve" smooth="yes"/>
      <point x="102" y="574"/>
      <point x="118" y="507"/>
      <point x="132" y="425" type="curve" smooth="yes"/>
      <point x="134" y="414"/>
      <point x="135" y="404"/>
      <point x="135" y="395" type="curve" smooth="yes"/>
      <point x="135" y="376"/>
      <point x="129" y="363"/>
      <point x="107" y="360" type="curve" smooth="yes"/>
      <point x="62" y="353" type="line"/>
    </contour>
  </outline>
</glyph>
<glyph name="bar" format="1">
  <advance width="250"/>
  <unicode hex="007C"/>
  <outline>
    <contour>
      <point x="110" y="-102" type="line"/>
      <point x="140" y="-102" type="line"/>
      <point x="140" y="782" type="line"/>
      <point x="110" y="782" type="line"/>
    </contour>
  </outline>
</glyph>
<glyph name="exclamdown" format="1">
  <advance width="284"/>
  <unicode hex="00A1"/>
  <outline>
    <contour>
      <point x="96" y="496"/>
      <point x="58" y="460"/>
      <point x="58" y="414" type="curve" smooth="yes"/>
      <point x="58" y="368"/>
      <point x="96" y="332"/>
      <point x="142" y="332" type="curve" smooth="yes"/>
      <point x="188" y="332"/>
      <point x="226" y="368"/>
      <point x="226" y="414" type="curve" smooth="yes"/>
      <point x="226" y="460"/>
      <point x="188" y="496"/>
      <point x="142" y="496" type="curve" smooth="yes"/>
    </contour>
    <contour>
      <point x="126" y="267" type="line"/>
      <point x="48" y="-187" type="line"/>
      <point x="63" y="-209"/>
      <point x="97" y="-222"/>
      <point x="142" y="-222" type="curve" smooth="yes"/>
      <point x="187" y="-222"/>
      <point x="221" y="-209"/>
      <point x="236" y="-187" type="curve"/>
      <point x="158" y="267" type="line"/>
    </contour>
  </outline>
</glyph>
<glyph name="currency" format="1">
  <advance width="570"/>
  <unicode hex="00A4"/>
  <outline>
    <contour>
      <point x="246" y="485"/>
      <point x="212" y="472"/>
      <point x="185" y="450" type="curve"/>
      <point x="123" y="524" type="line"/>
      <point x="100" y="504" type="line"/>
      <point x="163" y="428" type="line"/>
      <point x="140" y="401"/>
      <point x="127" y="365"/>
      <point x="127" y="327" type="curve" smooth="yes"/>
      <point x="127" y="288"/>
      <point x="140" y="253"/>
      <point x="163" y="225" type="curve"/>
      <point x="100" y="150" type="line"/>
      <point x="123" y="130" type="line"/>
      <point x="185" y="204" type="line"/>
      <point x="212" y="182"/>
      <point x="246" y="169"/>
      <point x="285" y="169" type="curve" smooth="yes"/>
      <point x="323" y="169"/>
      <point x="358" y="182"/>
      <point x="385" y="204" type="curve"/>
      <point x="447" y="130" type="line"/>
      <point x="470" y="150" type="line"/>
      <point x="406" y="225" type="line"/>
      <point x="429" y="253"/>
      <point x="443" y="288"/>
      <point x="443" y="327" type="curve" smooth="yes"/>
      <point x="443" y="365"/>
      <point x="429" y="401"/>
      <point x="406" y="428" type="curve"/>
      <point x="470" y="504" type="line"/>
      <point x="447" y="524" type="line"/>
      <point x="385" y="450" type="line"/>
      <point x="358" y="472"/>
      <point x="323" y="485"/>
      <point x="285" y="485" type="curve" smooth="yes"/>
    </contour>
    <contour>
      <point x="213" y="197"/>
      <point x="156" y="256"/>
      <point x="156" y="327" type="curve" smooth="yes"/>
      <point x="156" y="398"/>
      <point x="213" y="457"/>
      <point x="285" y="457" type="curve" smooth="yes"/>
      <point x="357" y="457"/>
      <point x="414" y="398"/>
      <point x="414" y="327" type="curve" smooth="yes"/>
      <point x="414" y="256"/>
      <point x="357" y="197"/>
      <point x="285" y="197" type="curve" smooth="yes"/>
    </contour>
  </outline>
</glyph>
<glyph name="brokenbar" format="1">
  <advance width="250"/>
  <unicode hex="00A6"/>
  <outline>
    <contour>
      <point x="110" y="418" type="line"/>
      <point x="140" y="418" type="line"/>
      <point x="140" y="782" type="line"/>
      <point x="110" y="782" type="line"/>
    </contour>
    <contour>
      <point x="110" y="-102" type="line"/>
      <point x="140" y="-102" type="line"/>
      <point x="140" y="262" type="line"/>
      <point x="110" y="262" type="line"/>
    </contour>
  </outline>
</glyph>
<glyph name="copyright" format="1">
  <advance width="838"/>
  <unicode hex="00A9"/>
  <outline>
    <contour>
      <point x="58" y="150"/>
      <point x="211" y="-11"/>
      <point x="419" y="-11" type="curve" smooth="yes"/>
      <point x="627" y="-11"/>
      <point x="780" y="150"/>
      <point x="780" y="350" type="curve" smooth="yes"/>
      <point x="780" y="550"/>
      <point x="627" y="711"/>
      <point x="419" y="711" type="curve" smooth="yes"/>
      <point x="211" y="711"/>
      <point x="58" y="550"/>
      <point x="58" y="350" type="curve" smooth="yes"/>
    </contour>
    <contour>
      <point x="84" y="534"/>
      <point x="226" y="685"/>
      <point x="419" y="685" type="curve" smooth="yes"/>
      <point x="612" y="685"/>
      <point x="754" y="534"/>
      <point x="754" y="350" type="curve" smooth="yes"/>
      <point x="754" y="166"/>
      <point x="612" y="15"/>
      <point x="419" y="15" type="curve" smooth="yes"/>
      <point x="226" y="15"/>
      <point x="84" y="166"/>
      <point x="84" y="350" type="curve" smooth="yes"/>
    </contour>
    <contour>
      <point x="297" y="551"/>
      <point x="213" y="482"/>
      <point x="213" y="352" type="curve" smooth="yes"/>
      <point x="213" y="210"/>
      <point x="303" y="145"/>
      <point x="433" y="145" type="curve" smooth="yes"/>
      <point x="514" y="145"/>
      <point x="562" y="173"/>
      <point x="599" y="210" type="curve"/>
      <point x="589" y="225" type="line"/>
      <point x="556" y="199"/>
      <point x="525" y="180"/>
      <point x="477" y="180" type="curve" smooth="yes"/>
      <point x="386" y="180"/>
      <point x="369" y="247"/>
      <point x="369" y="369" type="curve" smooth="yes"/>
      <point x="369" y="469"/>
      <point x="389" y="532"/>
      <point x="462" y="532" type="curve" smooth="yes"/>
      <point x="529" y="532"/>
      <point x="551" y="486"/>
      <point x="570" y="415" type="curve"/>
      <point x="584" y="415" type="line"/>
      <point x="592" y="519" type="line"/>
      <point x="564" y="535"/>
      <point x="522" y="551"/>
      <point x="448" y="551" type="curve" smooth="yes"/>
    </contour>
  </outline>
</glyph>
<glyph name="ordfeminine" format="1">
  <advance width="464"/>
  <unicode hex="00AA"/>
  <outline>
    <contour>
      <point x="450" y="362" type="line"/>
      <point x="450" y="378" type="line"/>
      <point x="426" y="383" type="line"/>
      <point x="414" y="386"/>
      <point x="409" y="387"/>
      <point x="409" y="399" type="curve" smooth="yes"/>
      <point x="409" y="587" type="line" smooth="yes"/>
      <point x="409" y="659"/>
      <point x="367" y="706"/>
      <point x="257" y="706" type="curve" smooth="yes"/>
      <point x="175" y="706"/>
      <point x="115" y="683"/>
      <point x="76" y="654" type="curve"/>
      <point x="86" y="637" type="line"/>
      <point x="121" y="658"/>
      <point x="156" y="673"/>
      <point x="201" y="673" type="curve" smooth="yes"/>
      <point x="252" y="673"/>
      <point x="267" y="654"/>
      <point x="267" y="604" type="curve" smooth="yes"/>
      <point x="267" y="553" type="line"/>
      <point x="118" y="549"/>
      <point x="32" y="527"/>
      <point x="32" y="439" type="curve" smooth="yes"/>
      <point x="32" y="380"/>
      <point x="80" y="355"/>
      <point x="137" y="355" type="curve" smooth="yes"/>
      <point x="204" y="355"/>
      <point x="243" y="377"/>
      <point x="267" y="400" type="curve"/>
      <point x="267" y="397" type="line" smooth="yes"/>
      <point x="267" y="372"/>
      <point x="277" y="362"/>
      <point x="302" y="362" type="curve" smooth="yes"/>
    </contour>
    <contour>
      <point x="187" y="401"/>
      <point x="174" y="414"/>
      <point x="174" y="449" type="curve" smooth="yes"/>
      <point x="174" y="504"/>
      <point x="188" y="525"/>
      <point x="267" y="531" type="curve"/>
      <point x="267" y="426" type="line"/>
      <point x="252" y="412"/>
      <point x="236" y="401"/>
      <point x="214" y="401" type="curve" smooth="yes"/>
    </contour>
  </outline>
</glyph>
<glyph name="softhyphen" format="1">
  <advance width="312"/>
  <unicode hex="00AD"/>
  <outline>
    <contour>
      <point x="272" y="292" type="line"/>
      <point x="40" y="292" type="line"/>
      <point x="40" y="264" type="line"/>
      <point x="272" y="264" type="line"/>
    </contour>
  </outline>
</glyph>
<glyph name="macron" format="1">
  <advance width="440"/>
  <unicode hex="00AF"/>
  <outline>
    <contour>
      <point x="30" y="584" type="line"/>
      <point x="410" y="584" type="line"/>
      <point x="410" y="608" type="line"/>
      <point x="30" y="608" type="line"/>
    </contour>
  </outline>
</glyph>
<glyph name="degree" format="1">
  <advance width="372"/>
  <unicode hex="00B0"/>
  <outline>
    <contour>
      <point x="102" y="710"/>
      <point x="48" y="654"/>
      <point x="48" y="574" type="curve" smooth="yes"/>
      <point x="48" y="494"/>
      <point x="102" y="438"/>
      <point x="186" y="438" type="curve" smooth="yes"/>
      <point x="270" y="438"/>
      <point x="324" y="494"/>
      <point x="324" y="574" type="curve" smooth="yes"/>
      <point x="324" y="654"/>
      <point x="270" y="710"/>
      <point x="186" y="710" type="curve" smooth="yes"/>
    </contour>
    <contour>
      <point x="118" y="464"/>
      <point x="76" y="509"/>
      <point x="76" y="574" type="curve" smooth="yes"/>
      <point x="76" y="639"/>
      <point x="118" y="684"/>
      <point x="186" y="684" type="curve" smooth="yes"/>
      <point x="254" y="684"/>
      <point x="296" y="639"/>
      <point x="296" y="574" type="curve" smooth="yes"/>
      <point x="296" y="509"/>
      <point x="254" y="464"/>
      <point x="186" y="464" type="curve" smooth="yes"/>
    </contour>
  </outline>
</glyph>
<glyph name="plusminus" format="1">
  <advance width="570"/>
  <unicode hex="00B1"/>
  <outline>
    <contour>
      <point x="496" y="342" type="line"/>
      <point x="300" y="342" type="line"/>
      <point x="300" y="539" type="line"/>
      <point x="270" y="539" type="line"/>
      <point x="270" y="342" type="line"/>
      <point x="74" y="342" type="line"/>
      <point x="74" y="314" type="line"/>
      <point x="270" y="314" type="line"/>
      <point x="270" y="117" type="line"/>
      <point x="300" y="117" type="line"/>
      <point x="300" y="314" type="line"/>
      <point x="496" y="314" type="line"/>
    </contour>
    <contour>
      <point x="496" y="26" type="line"/>
      <point x="74" y="26" type="line"/>
      <point x="74" y="0" type="line"/>
      <point x="496" y="0" type="line"/>
    </contour>
  </outline>
</glyph>
<glyph name="twosuperior" format="1">
  <advance width="388"/>
  <unicode hex="00B2"/>
  <outline>
    <contour>
      <point x="334" y="833"/>
      <point x="294" y="876"/>
      <point x="195" y="876" type="curve" smooth="yes"/>
      <point x="117" y="876"/>
      <point x="61" y="849"/>
      <point x="22" y="823" type="curve"/>
      <point x="33" y="805" type="line"/>
      <point x="69" y="827"/>
      <point x="100" y="842"/>
      <point x="144" y="842" type="curve" smooth="yes"/>
      <point x="189" y="842"/>
      <point x="205" y="815"/>
      <point x="205" y="771" type="curve" smooth="yes"/>
      <point x="205" y="698"/>
      <point x="166" y="600"/>
      <point x="14" y="503" type="curve"/>
      <point x="19" y="490" type="line"/>
      <point x="340" y="490" type="line"/>
      <point x="340" y="608" type="line"/>
      <point x="324" y="608" type="line"/>
      <point x="320" y="588" type="line" smooth="yes"/>
      <point x="318" y="578"/>
      <point x="314" y="575"/>
      <point x="304" y="575" type="curve" smooth="yes"/>
      <point x="138" y="575" type="line"/>
      <point x="218" y="613"/>
      <point x="334" y="675"/>
      <point x="334" y="772" type="curve" smooth="yes"/>
    </contour>
  </outline>
</glyph>
<glyph name="threesuperior" format="1">
  <advance width="376"/>
  <unicode hex="00B3"/>
  <outline>
    <contour>
      <point x="76" y="504"/>
      <point x="62" y="546"/>
      <point x="46" y="601" type="curve"/>
      <point x="30" y="601" type="line"/>
      <point x="22" y="507" type="line"/>
      <point x="55" y="493"/>
      <point x="104" y="484"/>
      <point x="157" y="484" type="curve" smooth="yes"/>
      <point x="275" y="484"/>
      <point x="346" y="511"/>
      <point x="346" y="599" type="curve" smooth="yes"/>
      <point x="346" y="657"/>
      <point x="304" y="686"/>
      <point x="243" y="692" type="curve"/>
      <point x="302" y="706"/>
      <point x="335" y="736"/>
      <point x="335" y="783" type="curve" smooth="yes"/>
      <point x="335" y="845"/>
      <point x="274" y="876"/>
      <point x="186" y="876" type="curve" smooth="yes"/>
      <point x="114" y="876"/>
      <point x="64" y="858"/>
      <point x="23" y="832" type="curve"/>
      <point x="35" y="815" type="line"/>
      <point x="69" y="834"/>
      <point x="98" y="845"/>
      <point x="139" y="845" type="curve" smooth="yes"/>
      <point x="182" y="845"/>
      <point x="206" y="825"/>
      <point x="206" y="776" type="curve" smooth="yes"/>
      <point x="206" y="724"/>
      <point x="188" y="702"/>
      <point x="145" y="702" type="curve" smooth="yes"/>
      <point x="113" y="702" type="line"/>
      <point x="113" y="680" type="line"/>
      <point x="144" y="680" type="line" smooth="yes"/>
      <point x="196" y="680"/>
      <point x="215" y="646"/>
      <point x="215" y="591" type="curve" smooth="yes"/>
      <point x="215" y="526"/>
      <point x="188" y="504"/>
      <point x="142" y="504" type="curve" smooth="yes"/>
    </contour>
  </outline>
</glyph>
<glyph name="acute" format="1">
  <advance width="440"/>
  <unicode hex="00B4"/>
  <outline>
    <contour>
      <point x="236" y="673"/>
      <point x="159" y="619"/>
      <point x="104" y="577" type="curve"/>
      <point x="109" y="566" type="line"/>
      <point x="170" y="576"/>
      <point x="274" y="603"/>
      <point x="335" y="631" type="curve"/>
      <point x="334" y="669"/>
      <point x="309" y="704"/>
      <point x="279" y="718" type="curve"/>
    </contour>
  </outline>
</glyph>
<glyph name="paragraph" format="1">
  <advance width="504"/>
  <unicode hex="00B6"/>
  <outline>
    <contour>
      <point x="466" y="700" type="line"/>
      <point x="296" y="700" type="line" smooth="yes"/>
      <point x="130" y="700"/>
      <point x="60" y="629"/>
      <point x="60" y="474" type="curve" smooth="yes"/>
      <point x="60" y="319"/>
      <point x="130" y="248"/>
      <point x="296" y="248" type="curve" smooth="yes"/>
      <point x="319" y="248" type="line"/>
      <point x="319" y="-21" type="line" smooth="yes"/>
      <point x="319" y="-99"/>
      <point x="301" y="-129"/>
      <point x="240" y="-129" type="curve" smooth="yes"/>
      <point x="221" y="-129"/>
      <point x="201" y="-127"/>
      <point x="189" y="-125" type="curve"/>
      <point x="189" y="-155" type="line"/>
      <point x="200" y="-158"/>
      <point x="223" y="-160"/>
      <point x="248" y="-160" type="curve" smooth="yes"/>
      <point x="333" y="-160"/>
      <point x="351" y="-113"/>
      <point x="351" y="-21" type="curve" smooth="yes"/>
      <point x="351" y="626" type="line" smooth="yes"/>
      <point x="351" y="659"/>
      <point x="363" y="670"/>
      <point x="397" y="670" type="curve" smooth="yes"/>
      <point x="466" y="670" type="line"/>
    </contour>
  </outline>
</glyph>
<glyph name="onesuperior" format="1">
  <advance width="310"/>
  <unicode hex="00B9"/>
  <outline>
    <contour>
      <point x="96" y="529" type="line" smooth="yes"/>
      <point x="96" y="518"/>
      <point x="92" y="515"/>
      <point x="81" y="513" type="curve" smooth="yes"/>
      <point x="36" y="506" type="line"/>
      <point x="36" y="490" type="line"/>
      <point x="278" y="490" type="line"/>
      <point x="278" y="506" type="line"/>
      <point x="238" y="513" type="line" smooth="yes"/>
      <point x="228" y="515"/>
      <point x="225" y="519"/>
      <point x="225" y="528" type="curve" smooth="yes"/>
      <point x="225" y="871" type="line"/>
      <point x="210" y="876" type="line"/>
      <point x="160" y="857"/>
      <point x="97" y="843"/>
      <point x="38" y="837" type="curve"/>
      <point x="38" y="821" type="line"/>
      <point x="96" y="821" type="line"/>
    </contour>
  </outline>
</glyph>
<glyph name="ordmasculine" format="1">
  <advance width="510"/>
  <unicode hex="00BA"/>
  <outline>
    <contour>
      <point x="115" y="706"/>
      <point x="38" y="655"/>
      <point x="38" y="530" type="curve" smooth="yes"/>
      <point x="38" y="405"/>
      <point x="115" y="354"/>
      <point x="255" y="354" type="curve" smooth="yes"/>
      <point x="395" y="354"/>
      <point x="472" y="405"/>
      <point x="472" y="530" type="curve" smooth="yes"/>
      <point x="472" y="655"/>
      <point x="395" y="706"/>
      <point x="255" y="706" type="curve" smooth="yes"/>
    </contour>
    <contour>
      <point x="197" y="375"/>
      <point x="189" y="423"/>
      <point x="189" y="530" type="curve" smooth="yes"/>
      <point x="189" y="637"/>
      <point x="197" y="685"/>
      <point x="255" y="685" type="curve" smooth="yes"/>
      <point x="313" y="685"/>
      <point x="321" y="637"/>
      <point x="321" y="530" type="curve" smooth="yes"/>
      <point x="321" y="423"/>
      <point x="313" y="375"/>
      <point x="255" y="375" type="curve" smooth="yes"/>
    </contour>
  </outline>
</glyph>
<glyph name="onehalf" format="1">
  <advance width="850"/>
  <unicode hex="00BD"/>
  <outline>
    <contour>
      <point x="185" y="0" type="line"/>
      <point x="215" y="0" type="line"/>
      <point x="615" y="700" type="line"/>
      <point x="585" y="700" type="line"/>
    </contour>
    <contour>
      <point x="96" y="359" type="line" smooth="yes"/>
      <point x="96" y="348"/>
      <point x="92" y="345"/>
      <point x="81" y="343" type="curve" smooth="yes"/>
      <point x="36" y="336" type="line"/>
      <point x="36" y="320" type="line"/>
      <point x="278" y="320" type="line"/>
      <point x="278" y="336" type="line"/>
      <point x="238" y="343" type="line" smooth="yes"/>
      <point x="228" y="345"/>
      <point x="225" y="349"/>
      <point x="225" y="358" type="curve" smooth="yes"/>
      <point x="225" y="701" type="line"/>
      <point x="210" y="706" type="line"/>
      <point x="160" y="687"/>
      <point x="97" y="673"/>
      <point x="38" y="667" type="curve"/>
      <point x="38" y="651" type="line"/>
      <point x="96" y="651" type="line"/>
    </contour>
    <contour>
      <point x="796" y="343"/>
      <point x="756" y="386"/>
      <point x="657" y="386" type="curve" smooth="yes"/>
      <point x="579" y="386"/>
      <point x="523" y="359"/>
      <point x="484" y="333" type="curve"/>
      <point x="495" y="315" type="line"/>
      <point x="531" y="337"/>
      <point x="562" y="352"/>
      <point x="606" y="352" type="curve" smooth="yes"/>
      <point x="651" y="352"/>
      <point x="667" y="325"/>
      <point x="667" y="281" type="curve" smooth="yes"/>
      <point x="667" y="208"/>
      <point x="628" y="110"/>
      <point x="476" y="13" type="curve"/>
      <point x="481" y="0" type="line"/>
      <point x="802" y="0" type="line"/>
      <point x="802" y="118" type="line"/>
      <point x="786" y="118" type="line"/>
      <point x="782" y="98" type="line" smooth="yes"/>
      <point x="780" y="88"/>
      <point x="776" y="85"/>
      <point x="766" y="85" type="curve" smooth="yes"/>
      <point x="600" y="85" type="line"/>
      <point x="680" y="123"/>
      <point x="796" y="185"/>
      <point x="796" y="282" type="curve" smooth="yes"/>
    </contour>
  </outline>
</glyph>
<glyph name="Aacute" format="1">
  <advance width="768"/>
  <unicode hex="00C1"/>
  <outline>
    <contour>
      <point x="750" y="0" type="line"/>
      <point x="750" y="20" type="line"/>
      <point x="713" y="24" type="line" smooth="yes"/>
      <point x="697" y="26"/>
      <point x="692" y="32"/>
      <point x="685" y="48" type="curve" smooth="yes"/>
      <point x="392" y="711" type="line"/>
      <point x="360" y="711" type="line"/>
      <point x="83" y="48" type="line" smooth="yes"/>
      <point x="76" y="32"/>
      <point x="71" y="26"/>
      <point x="55" y="24" type="curve" smooth="yes"/>
      <point x="18" y="20" type="line"/>
      <point x="18" y="0" type="line"/>
      <point x="170" y="0" type="line"/>
      <point x="170" y="20" type="line"/>
      <point x="127" y="24" type="line" smooth="yes"/>
      <point x="114" y="25"/>
      <point x="110" y="32"/>
      <point x="116" y="47" type="curve" smooth="yes"/>
      <point x="176" y="193" type="line"/>
      <point x="408" y="193" type="line"/>
      <point x="474" y="47" type="line" smooth="yes"/>
      <point x="481" y="32"/>
      <point x="476" y="25"/>
      <point x="463" y="24" type="curve" smooth="yes"/>
      <point x="420" y="20" type="line"/>
      <point x="420" y="0" type="line"/>
    </contour>
    <contour>
      <point x="287" y="462" type="line"/>
      <point x="395" y="223" type="line"/>
      <point x="188" y="223" type="line"/>
    </contour>
    <contour>
      <point x="489" y="867"/>
      <point x="412" y="813"/>
      <point x="357" y="771" type="curve"/>
      <point x="362" y="760" type="line"/>
      <point x="423" y="770"/>
      <point x="527" y="797"/>
      <point x="588" y="825" type="curve"/>
      <point x="587" y="863"/>
      <point x="562" y="898"/>
      <point x="532" y="912" type="curve"/>
    </contour>
  </outline>
</glyph>
<glyph name="Atilde" format="1">
  <advance width="768"/>
  <unicode hex="00C3"/>
  <outline>
    <contour>
      <point x="750" y="0" type="line"/>
      <point x="750" y="20" type="line"/>
      <point x="713" y="24" type="line" smooth="yes"/>
      <point x="697" y="26"/>
      <point x="692" y="32"/>
      <point x="685" y="48" type="curve" smooth="yes"/>
      <point x="392" y="711" type="line"/>
      <point x="360" y="711" type="line"/>
      <point x="83" y="48" type="line" smooth="yes"/>
      <point x="76" y="32"/>
      <point x="71" y="26"/>
      <point x="55" y="24" type="curve" smooth="yes"/>
      <point x="18" y="20" type="line"/>
      <point x="18" y="0" type="line"/>
      <point x="170" y="0" type="line"/>
      <point x="170" y="20" type="line"/>
      <point x="127" y="24" type="line" smooth="yes"/>
      <point x="114" y="25"/>
      <point x="110" y="32"/>
      <point x="116" y="47" type="curve" smooth="yes"/>
      <point x="176" y="193" type="line"/>
      <point x="408" y="193" type="line"/>
      <point x="474" y="47" type="line" smooth="yes"/>
      <point x="481" y="32"/>
      <point x="476" y="25"/>
      <point x="463" y="24" type="curve" smooth="yes"/>
      <point x="420" y="20" type="line"/>
      <point x="420" y="0" type="line"/>
    </contour>
    <contour>
      <point x="287" y="462" type="line"/>
      <point x="395" y="223" type="line"/>
      <point x="188" y="223" type="line"/>
    </contour>
    <contour>
      <point x="518" y="758"/>
      <point x="544" y="833"/>
      <point x="563" y="883" type="curve"/>
      <point x="551" y="888" type="line"/>
      <point x="527" y="858" type="line"/>
      <point x="514" y="840"/>
      <point x="487" y="834"/>
      <point x="463" y="843" type="curve" smooth="yes"/>
      <point x="367" y="881"/>
      <point x="319" y="902"/>
      <point x="289" y="902" type="curve" smooth="yes"/>
      <point x="230" y="902"/>
      <point x="204" y="827"/>
      <point x="185" y="777" type="curve"/>
      <point x="197" y="772" type="line"/>
      <point x="221" y="802" type="line"/>
      <point x="234" y="820"/>
      <point x="261" y="826"/>
      <point x="285" y="817" type="curve" smooth="yes"/>
      <point x="381" y="779"/>
      <point x="429" y="758"/>
      <point x="459" y="758" type="curve" smooth="yes"/>
    </contour>
  </outline>
</glyph>
<glyph name="Adieresis" format="1">
  <advance width="760"/>
  <unicode hex="00C4"/>
  <outline>
    <contour>
      <point x="750" y="0" type="line"/>
      <point x="750" y="20" type="line"/>
      <point x="713" y="24" type="line" smooth="yes"/>
      <point x="697" y="26"/>
      <point x="692" y="32"/>
      <point x="685" y="48" type="curve" smooth="yes"/>
      <point x="392" y="711" type="line"/>
      <point x="360" y="711" type="line"/>
      <point x="83" y="48" type="line" smooth="yes"/>
      <point x="76" y="32"/>
      <point x="71" y="26"/>
      <point x="55" y="24" type="curve" smooth="yes"/>
      <point x="18" y="20" type="line"/>
      <point x="18" y="0" type="line"/>
      <point x="170" y="0" type="line"/>
      <point x="170" y="20" type="line"/>
      <point x="127" y="24" type="line" smooth="yes"/>
      <point x="114" y="25"/>
      <point x="110" y="32"/>
      <point x="116" y="47" type="curve" smooth="yes"/>
      <point x="176" y="193" type="line"/>
      <point x="408" y="193" type="line"/>
      <point x="474" y="47" type="line" smooth="yes"/>
      <point x="481" y="32"/>
      <point x="476" y="25"/>
      <point x="463" y="24" type="curve" smooth="yes"/>
      <point x="420" y="20" type="line"/>
      <point x="420" y="0" type="line"/>
    </contour>
    <contour>
      <point x="287" y="462" type="line"/>
      <point x="395" y="223" type="line"/>
      <point x="188" y="223" type="line"/>
    </contour>
    <contour>
      <point x="306" y="767"/>
      <point x="337" y="799"/>
      <point x="337" y="840" type="curve" smooth="yes"/>
      <point x="337" y="881"/>
      <point x="306" y="913"/>
      <point x="260" y="913" type="curve" smooth="yes"/>
      <point x="214" y="913"/>
      <point x="183" y="881"/>
      <point x="183" y="840" type="curve" smooth="yes"/>
      <point x="183" y="799"/>
      <point x="214" y="767"/>
      <point x="260" y="767" type="curve" smooth="yes"/>
    </contour>
    <contour>
      <point x="544" y="767"/>
      <point x="575" y="799"/>
      <point x="575" y="840" type="curve" smooth="yes"/>
      <point x="575" y="881"/>
      <point x="544" y="913"/>
      <point x="498" y="913" type="curve" smooth="yes"/>
      <point x="452" y="913"/>
      <point x="421" y="881"/>
      <point x="421" y="840" type="curve" smooth="yes"/>
      <point x="421" y="799"/>
      <point x="452" y="767"/>
      <point x="498" y="767" type="curve" smooth="yes"/>
    </contour>
  </outline>
</glyph>
<glyph name="AE" format="1">
  <advance width="1044"/>
  <unicode hex="00C6"/>
  <outline>
    <contour>
      <point x="86" y="48" type="line" smooth="yes"/>
      <point x="76" y="31"/>
      <point x="71" y="26"/>
      <point x="55" y="24" type="curve" smooth="yes"/>
      <point x="16" y="20" type="line"/>
      <point x="16" y="0" type="line"/>
      <point x="172" y="0" type="line"/>
      <point x="172" y="20" type="line"/>
      <point x="130" y="24" type="line" smooth="yes"/>
      <point x="117" y="25"/>
      <point x="115" y="33"/>
      <point x="123" y="47" type="curve" smooth="yes"/>
      <point x="227" y="221" type="line"/>
      <point x="471" y="221" type="line"/>
      <point x="471" y="50" type="line" smooth="yes"/>
      <point x="471" y="34"/>
      <point x="466" y="32"/>
      <point x="447" y="28" type="curve" smooth="yes"/>
      <point x="410" y="20" type="line"/>
      <point x="410" y="0" type="line"/>
      <point x="1000" y="0" type="line"/>
      <point x="1000" y="199" type="line"/>
      <point x="972" y="199" type="line"/>
      <point x="933" y="87"/>
      <point x="910" y="30"/>
      <point x="787" y="30" type="curve" smooth="yes"/>
      <point x="675" y="30" type="line"/>
      <point x="675" y="343" type="line"/>
      <point x="893" y="343" type="line"/>
      <point x="893" y="373" type="line"/>
      <point x="675" y="373" type="line"/>
      <point x="675" y="670" type="line"/>
      <point x="777" y="670" type="line" smooth="yes"/>
      <point x="900" y="670"/>
      <point x="920" y="617"/>
      <point x="959" y="505" type="curve"/>
      <point x="986" y="505" type="line"/>
      <point x="986" y="700" type="line"/>
      <point x="410" y="700" type="line"/>
      <point x="410" y="680" type="line"/>
      <point x="447" y="672" type="line"/>
      <point x="462" y="668" type="line"/>
    </contour>
    <contour>
      <point x="245" y="251" type="line"/>
      <point x="471" y="625" type="line"/>
      <point x="471" y="251" type="line"/>
    </contour>
  </outline>
</glyph>
<glyph name="Eacute" format="1">
  <advance width="720"/>
  <unicode hex="00C9"/>
  <outline>
    <contour>
      <point x="26" y="0" type="line"/>
      <point x="656" y="0" type="line"/>
      <point x="656" y="199" type="line"/>
      <point x="630" y="199" type="line"/>
      <point x="593" y="87"/>
      <point x="566" y="30"/>
      <point x="443" y="30" type="curve" smooth="yes"/>
      <point x="291" y="30" type="line"/>
      <point x="291" y="343" type="line"/>
      <point x="549" y="343" type="line"/>
      <point x="549" y="373" type="line"/>
      <point x="291" y="373" type="line"/>
      <point x="291" y="670" type="line"/>
      <point x="433" y="670" type="line" smooth="yes"/>
      <point x="556" y="670"/>
      <point x="580" y="617"/>
      <point x="617" y="505" type="curve"/>
      <point x="642" y="505" type="line"/>
      <point x="642" y="700" type="line"/>
      <point x="26" y="700" type="line"/>
      <point x="26" y="680" type="line"/>
      <point x="63" y="672" type="line" smooth="yes"/>
      <point x="82" y="668"/>
      <point x="87" y="666"/>
      <point x="87" y="650" type="curve" smooth="yes"/>
      <point x="87" y="50" type="line" smooth="yes"/>
      <point x="87" y="34"/>
      <point x="82" y="32"/>
      <point x="63" y="28" type="curve" smooth="yes"/>
      <point x="26" y="20" type="line"/>
    </contour>
    <contour>
      <point x="395" y="867"/>
      <point x="318" y="813"/>
      <point x="263" y="771" type="curve"/>
      <point x="268" y="760" type="line"/>
      <point x="329" y="770"/>
      <point x="433" y="797"/>
      <point x="494" y="825" type="curve"/>
      <point x="493" y="863"/>
      <point x="468" y="898"/>
      <point x="438" y="912" type="curve"/>
    </contour>
  </outline>
</glyph>
<glyph name="Igrave" format="1">
  <advance width="386"/>
  <unicode hex="00CC"/>
  <outline>
    <contour>
      <point x="91" y="50" type="line" smooth="yes"/>
      <point x="91" y="34"/>
      <point x="86" y="32"/>
      <point x="67" y="28" type="curve" smooth="yes"/>
      <point x="30" y="20" type="line"/>
      <point x="30" y="0" type="line"/>
      <point x="356" y="0" type="line"/>
      <point x="356" y="20" type="line"/>
      <point x="319" y="28" type="line" smooth="yes"/>
      <point x="300" y="32"/>
      <point x="295" y="34"/>
      <point x="295" y="50" type="curve" smooth="yes"/>
      <point x="295" y="650" type="line" smooth="yes"/>
      <point x="295" y="666"/>
      <point x="300" y="668"/>
      <point x="319" y="672" type="curve" smooth="yes"/>
      <point x="356" y="680" type="line"/>
      <point x="356" y="700" type="line"/>
      <point x="30" y="700" type="line"/>
      <point x="30" y="680" type="line"/>
      <point x="67" y="672" type="line" smooth="yes"/>
      <point x="86" y="668"/>
      <point x="91" y="666"/>
      <point x="91" y="650" type="curve" smooth="yes"/>
    </contour>
    <contour>
      <point x="75" y="898"/>
      <point x="50" y="863"/>
      <point x="49" y="825" type="curve"/>
      <point x="110" y="797"/>
      <point x="214" y="770"/>
      <point x="275" y="760" type="curve"/>
      <point x="280" y="771" type="line"/>
      <point x="225" y="813"/>
      <point x="148" y="867"/>
      <point x="105" y="912" type="curve"/>
    </contour>
  </outline>
</glyph>
<glyph name="Iacute" format="1">
  <advance width="386"/>
  <unicode hex="00CD"/>
  <outline>
    <contour>
      <point x="91" y="50" type="line" smooth="yes"/>
      <point x="91" y="34"/>
      <point x="86" y="32"/>
      <point x="67" y="28" type="curve" smooth="yes"/>
      <point x="30" y="20" type="line"/>
      <point x="30" y="0" type="line"/>
      <point x="356" y="0" type="line"/>
      <point x="356" y="20" type="line"/>
      <point x="319" y="28" type="line" smooth="yes"/>
      <point x="300" y="32"/>
      <point x="295" y="34"/>
      <point x="295" y="50" type="curve" smooth="yes"/>
      <point x="295" y="650" type="line" smooth="yes"/>
      <point x="295" y="666"/>
      <point x="300" y="668"/>
      <point x="319" y="672" type="curve" smooth="yes"/>
      <point x="356" y="680" type="line"/>
      <point x="356" y="700" type="line"/>
      <point x="30" y="700" type="line"/>
      <point x="30" y="680" type="line"/>
      <point x="67" y="672" type="line" smooth="yes"/>
      <point x="86" y="668"/>
      <point x="91" y="666"/>
      <point x="91" y="650" type="curve" smooth="yes"/>
    </contour>
    <contour>
      <point x="248" y="867"/>
      <point x="171" y="813"/>
      <point x="116" y="771" type="curve"/>
      <point x="121" y="760" type="line"/>
      <point x="182" y="770"/>
      <point x="286" y="797"/>
      <point x="347" y="825" type="curve"/>
      <point x="346" y="863"/>
      <point x="321" y="898"/>
      <point x="291" y="912" type="curve"/>
    </contour>
  </outline>
</glyph>
<glyph name="Eth" format="1">
  <advance width="818"/>
  <unicode hex="00D0"/>
  <outline>
    <contour>
      <point x="762" y="620"/>
      <point x="592" y="700"/>
      <point x="332" y="700" type="curve" smooth="yes"/>
      <point x="26" y="700" type="line"/>
      <point x="26" y="680" type="line"/>
      <point x="63" y="672" type="line" smooth="yes"/>
      <point x="82" y="668"/>
      <point x="87" y="666"/>
      <point x="87" y="650" type="curve" smooth="yes"/>
      <point x="87" y="352" type="line"/>
      <point x="26" y="352" type="line"/>
      <point x="26" y="324" type="line"/>
      <point x="87" y="324" type="line"/>
      <point x="87" y="50" type="line" smooth="yes"/>
      <point x="87" y="34"/>
      <point x="82" y="32"/>
      <point x="63" y="28" type="curve" smooth="yes"/>
      <point x="26" y="20" type="line"/>
      <point x="26" y="0" type="line"/>
      <point x="332" y="0" type="line" smooth="yes"/>
      <point x="592" y="0"/>
      <point x="762" y="80"/>
      <point x="762" y="350" type="curve" smooth="yes"/>
    </contour>
    <contour>
      <point x="428" y="352" type="line"/>
      <point x="291" y="352" type="line"/>
      <point x="291" y="670" type="line"/>
      <point x="332" y="670" type="line" smooth="yes"/>
      <point x="497" y="670"/>
      <point x="541" y="592"/>
      <point x="541" y="350" type="curve" smooth="yes"/>
      <point x="541" y="108"/>
      <point x="497" y="30"/>
      <point x="332" y="30" type="curve" smooth="yes"/>
      <point x="291" y="30" type="line"/>
      <point x="291" y="324" type="line"/>
      <point x="428" y="324" type="line"/>
    </contour>
  </outline>
</glyph>
<glyph name="Oacute" format="1">
  <advance width="854"/>
  <unicode hex="00D3"/>
  <outline>
    <contour>
      <point x="222" y="712"/>
      <point x="56" y="620"/>
      <point x="56" y="350" type="curve" smooth="yes"/>
      <point x="56" y="80"/>
      <point x="221" y="-12"/>
      <point x="427" y="-12" type="curve" smooth="yes"/>
      <point x="633" y="-12"/>
      <point x="798" y="80"/>
      <point x="798" y="350" type="curve" smooth="yes"/>
      <point x="798" y="620"/>
      <point x="633" y="712"/>
      <point x="427" y="712" type="curve" smooth="yes"/>
    </contour>
    <contour>
      <point x="304" y="17"/>
      <point x="277" y="112"/>
      <point x="277" y="350" type="curve" smooth="yes"/>
      <point x="277" y="588"/>
      <point x="304" y="683"/>
      <point x="427" y="683" type="curve" smooth="yes"/>
      <point x="550" y="683"/>
      <point x="577" y="588"/>
      <point x="577" y="350" type="curve" smooth="yes"/>
      <point x="577" y="112"/>
      <point x="550" y="17"/>
      <point x="427" y="17" type="curve" smooth="yes"/>
    </contour>
    <contour>
      <point x="502" y="867"/>
      <point x="425" y="813"/>
      <point x="370" y="771" type="curve"/>
      <point x="375" y="760" type="line"/>
      <point x="436" y="770"/>
      <point x="540" y="797"/>
      <point x="601" y="825" type="curve"/>
      <point x="600" y="863"/>
      <point x="575" y="898"/>
      <point x="545" y="912" type="curve"/>
    </contour>
  </outline>
</glyph>
<glyph name="multiply" format="1">
  <advance width="570"/>
  <unicode hex="00D7"/>
  <outline>
    <contour>
      <point x="445" y="509" type="line"/>
      <point x="285" y="349" type="line"/>
      <point x="125" y="509" type="line"/>
      <point x="104" y="488" type="line"/>
      <point x="264" y="328" type="line"/>
      <point x="104" y="168" type="line"/>
      <point x="125" y="147" type="line"/>
      <point x="285" y="307" type="line"/>
      <point x="445" y="147" type="line"/>
      <point x="466" y="168" type="line"/>
      <point x="306" y="328" type="line"/>
      <point x="466" y="488" type="line"/>
    </contour>
  </outline>
</glyph>
<glyph name="Ucircumflex" format="1">
  <advance width="754"/>
  <unicode hex="00DB"/>
  <outline>
    <contour>
      <point x="675" y="651" type="line" smooth="yes"/>
      <point x="675" y="666"/>
      <point x="680" y="668"/>
      <point x="698" y="672" type="curve" smooth="yes"/>
      <point x="734" y="680" type="line"/>
      <point x="734" y="700" type="line"/>
      <point x="582" y="700" type="line"/>
      <point x="582" y="680" type="line"/>
      <point x="619" y="672" type="line" smooth="yes"/>
      <point x="638" y="668"/>
      <point x="643" y="666"/>
      <point x="643" y="650" type="curve" smooth="yes"/>
      <point x="643" y="252" type="line" smooth="yes"/>
      <point x="643" y="117"/>
      <point x="576" y="22"/>
      <point x="445" y="22" type="curve" smooth="yes"/>
      <point x="309" y="22"/>
      <point x="285" y="88"/>
      <point x="285" y="246" type="curve" smooth="yes"/>
      <point x="285" y="651" type="line" smooth="yes"/>
      <point x="285" y="666"/>
      <point x="290" y="668"/>
      <point x="308" y="672" type="curve" smooth="yes"/>
      <point x="344" y="680" type="line"/>
      <point x="344" y="700" type="line"/>
      <point x="20" y="700" type="line"/>
      <point x="20" y="680" type="line"/>
      <point x="57" y="672" type="line" smooth="yes"/>
      <point x="76" y="668"/>
      <point x="81" y="666"/>
      <point x="81" y="650" type="curve" smooth="yes"/>
      <point x="81" y="264" type="line" smooth="yes"/>
      <point x="81" y="67"/>
      <point x="184" y="-12"/>
      <point x="394" y="-12" type="curve" smooth="yes"/>
      <point x="601" y="-12"/>
      <point x="673" y="104"/>
      <point x="675" y="260" type="curve" smooth="yes"/>
    </contour>
    <contour>
      <point x="421" y="912" type="line"/>
      <point x="382" y="863"/>
      <point x="337" y="816"/>
      <point x="287" y="775" type="curve"/>
      <point x="298" y="760" type="line"/>
      <point x="348" y="777"/>
      <point x="397" y="800"/>
      <point x="447" y="829" type="curve"/>
      <point x="497" y="800"/>
      <point x="546" y="777"/>
      <point x="596" y="760" type="curve"/>
      <point x="607" y="775" type="line"/>
      <point x="558" y="816"/>
      <point x="512" y="863"/>
      <point x="473" y="912" type="curve"/>
    </contour>
  </outline>
</glyph>
<glyph name="germandbls" format="1">
  <advance width="771"/>
  <unicode hex="00DF"/>
  <outline>
    <contour>
      <point x="20" y="460" type="line"/>
      <point x="85" y="460" type="line"/>
      <point x="85" y="48" type="line" smooth="yes"/>
      <point x="85" y="32"/>
      <point x="80" y="30"/>
      <point x="61" y="26" type="curve" smooth="yes"/>
      <point x="26" y="18" type="line"/>
      <point x="26" y="0" type="line"/>
      <point x="283" y="0" type="line"/>
      <point x="283" y="560" type="line" smooth="yes"/>
      <point x="283" y="652"/>
      <point x="300" y="708"/>
      <point x="400" y="708" type="curve" smooth="yes"/>
      <point x="469" y="708"/>
      <point x="507" y="677"/>
      <point x="507" y="611" type="curve" smooth="yes"/>
      <point x="507" y="569"/>
      <point x="492" y="484"/>
      <point x="369" y="416" type="curve"/>
      <point x="369" y="393" type="line"/>
      <point x="472" y="312"/>
      <point x="550" y="237"/>
      <point x="550" y="123" type="curve" smooth="yes"/>
      <point x="550" y="54"/>
      <point x="525" y="30"/>
      <point x="454" y="30" type="curve" smooth="yes"/>
      <point x="417" y="30"/>
      <point x="387" y="41"/>
      <point x="361" y="61" type="curve"/>
      <point x="348" y="42" type="line"/>
      <point x="373" y="19"/>
      <point x="422" y="-10"/>
      <point x="511" y="-10" type="curve" smooth="yes"/>
      <point x="616" y="-10"/>
      <point x="727" y="39"/>
      <point x="727" y="167" type="curve" smooth="yes"/>
      <point x="727" y="287"/>
      <point x="635" y="380"/>
      <point x="475" y="451" type="curve"/>
      <point x="574" y="474"/>
      <point x="662" y="508"/>
      <point x="662" y="590" type="curve" smooth="yes"/>
      <point x="662" y="689"/>
      <point x="531" y="730"/>
      <point x="379" y="730" type="curve" smooth="yes"/>
      <point x="209" y="730"/>
      <point x="85" y="670"/>
      <point x="85" y="546" type="curve" smooth="yes"/>
      <point x="85" y="486" type="line"/>
      <point x="20" y="486" type="line"/>
    </contour>
  </outline>
</glyph>
<glyph name="atilde" format="1">
  <advance width="644"/>
  <unicode hex="00E3"/>
  <outline>
    <contour>
      <point x="624" y="0" type="line"/>
      <point x="624" y="18" type="line"/>
      <point x="589" y="26" type="line" smooth="yes"/>
      <point x="570" y="30"/>
      <point x="565" y="32"/>
      <point x="565" y="48" type="curve" smooth="yes"/>
      <point x="565" y="325" type="line" smooth="yes"/>
      <point x="565" y="430"/>
      <point x="515" y="498"/>
      <point x="356" y="498" type="curve" smooth="yes"/>
      <point x="236" y="498"/>
      <point x="147" y="464"/>
      <point x="89" y="423" type="curve"/>
      <point x="102" y="404" type="line"/>
      <point x="153" y="435"/>
      <point x="203" y="454"/>
      <point x="268" y="454" type="curve" smooth="yes"/>
      <point x="342" y="454"/>
      <point x="367" y="423"/>
      <point x="367" y="349" type="curve" smooth="yes"/>
      <point x="367" y="276" type="line"/>
      <point x="151" y="270"/>
      <point x="38" y="239"/>
      <point x="38" y="111" type="curve" smooth="yes"/>
      <point x="38" y="26"/>
      <point x="92" y="-10"/>
      <point x="176" y="-10" type="curve" smooth="yes"/>
      <point x="273" y="-10"/>
      <point x="332" y="21"/>
      <point x="367" y="55" type="curve"/>
      <point x="367" y="50" type="line" smooth="yes"/>
      <point x="367" y="14"/>
      <point x="381" y="0"/>
      <point x="418" y="0" type="curve" smooth="yes"/>
    </contour>
    <contour>
      <point x="249" y="53"/>
      <point x="232" y="74"/>
      <point x="232" y="125" type="curve" smooth="yes"/>
      <point x="232" y="206"/>
      <point x="253" y="241"/>
      <point x="367" y="249" type="curve"/>
      <point x="367" y="87" type="line"/>
      <point x="345" y="66"/>
      <point x="319" y="53"/>
      <point x="288" y="53" type="curve" smooth="yes"/>
    </contour>
    <contour>
      <point x="476" y="564"/>
      <point x="502" y="639"/>
      <point x="521" y="689" type="curve"/>
      <point x="509" y="694" type="line"/>
      <point x="485" y="664" type="line"/>
      <point x="472" y="646"/>
      <point x="445" y="640"/>
      <point x="421" y="649" type="curve" smooth="yes"/>
      <point x="325" y="687"/>
      <point x="277" y="708"/>
      <point x="247" y="708" type="curve" smooth="yes"/>
      <point x="188" y="708"/>
      <point x="162" y="633"/>
      <point x="143" y="583" type="curve"/>
      <point x="155" y="578" type="line"/>
      <point x="179" y="608" type="line"/>
      <point x="192" y="626"/>
      <point x="219" y="632"/>
      <point x="243" y="623" type="curve" smooth="yes"/>
      <point x="339" y="585"/>
      <point x="387" y="564"/>
      <point x="417" y="564" type="curve" smooth="yes"/>
    </contour>
  </outline>
</glyph>
<glyph name="ccedilla" format="1">
  <advance width="636"/>
  <unicode hex="00E7"/>
  <outline>
    <contour>
      <point x="289" y="-76" type="line"/>
      <point x="336" y="-84"/>
      <point x="372" y="-99"/>
      <point x="372" y="-141" type="curve" smooth="yes"/>
      <point x="372" y="-172"/>
      <point x="354" y="-183"/>
      <point x="316" y="-183" type="curve" smooth="yes"/>
      <point x="286" y="-183"/>
      <point x="264" y="-178"/>
      <point x="247" y="-170" type="curve"/>
      <point x="240" y="-188" type="line"/>
      <point x="261" y="-199"/>
      <point x="301" y="-208"/>
      <point x="335" y="-208" type="curve" smooth="yes"/>
      <point x="399" y="-208"/>
      <point x="456" y="-182"/>
      <point x="456" y="-123" type="curve" smooth="yes"/>
      <point x="456" y="-67"/>
      <point x="402" y="-40"/>
      <point x="318" y="-36" type="curve"/>
      <point x="320" y="-11" type="line"/>
      <point x="329" y="-12"/>
      <point x="338" y="-12"/>
      <point x="348" y="-12" type="curve" smooth="yes"/>
      <point x="460" y="-12"/>
      <point x="534" y="23"/>
      <point x="590" y="66" type="curve"/>
      <point x="577" y="85" type="line"/>
      <point x="530" y="53"/>
      <point x="480" y="32"/>
      <point x="414" y="32" type="curve" smooth="yes"/>
      <point x="286" y="32"/>
      <point x="258" y="116"/>
      <point x="258" y="270" type="curve" smooth="yes"/>
      <point x="258" y="395"/>
      <point x="290" y="472"/>
      <point x="392" y="472" type="curve" smooth="yes"/>
      <point x="486" y="472"/>
      <point x="522" y="417"/>
      <point x="548" y="327" type="curve"/>
      <point x="567" y="327" type="line"/>
      <point x="579" y="458" type="line"/>
      <point x="539" y="478"/>
      <point x="476" y="498"/>
      <point x="374" y="498" type="curve" smooth="yes"/>
      <point x="162" y="498"/>
      <point x="50" y="415"/>
      <point x="50" y="249" type="curve" smooth="yes"/>
      <point x="50" y="86"/>
      <point x="145" y="4"/>
      <point x="298" y="-9" type="curve"/>
    </contour>
  </outline>
</glyph>
<glyph name="edieresis" format="1">
  <advance width="658"/>
  <unicode hex="00EB"/>
  <outline>
    <contour>
      <point x="605" y="256" type="line"/>
      <point x="608" y="270"/>
      <point x="610" y="291"/>
      <point x="610" y="306" type="curve" smooth="yes"/>
      <point x="610" y="409"/>
      <point x="531" y="498"/>
      <point x="358" y="498" type="curve" smooth="yes"/>
      <point x="166" y="498"/>
      <point x="50" y="413"/>
      <point x="50" y="249" type="curve" smooth="yes"/>
      <point x="50" y="75"/>
      <point x="167" y="-12"/>
      <point x="347" y="-12" type="curve" smooth="yes"/>
      <point x="463" y="-12"/>
      <point x="539" y="20"/>
      <point x="593" y="64" type="curve"/>
      <point x="580" y="83" type="line"/>
      <point x="535" y="53"/>
      <point x="489" y="29"/>
      <point x="421" y="29" type="curve" smooth="yes"/>
      <point x="284" y="29"/>
      <point x="257" y="126"/>
      <point x="256" y="256" type="curve"/>
    </contour>
    <contour>
      <point x="413" y="474"/>
      <point x="424" y="431"/>
      <point x="424" y="357" type="curve" smooth="yes"/>
      <point x="424" y="282" type="line"/>
      <point x="256" y="282" type="line"/>
      <point x="257" y="406"/>
      <point x="275" y="474"/>
      <point x="352" y="474" type="curve" smooth="yes"/>
    </contour>
    <contour>
      <point x="276" y="573"/>
      <point x="307" y="605"/>
      <point x="307" y="646" type="curve" smooth="yes"/>
      <point x="307" y="687"/>
      <point x="276" y="719"/>
      <point x="230" y="719" type="curve" smooth="yes"/>
      <point x="184" y="719"/>
      <point x="153" y="687"/>
      <point x="153" y="646" type="curve" smooth="yes"/>
      <point x="153" y="605"/>
      <point x="184" y="573"/>
      <point x="230" y="573" type="curve" smooth="yes"/>
    </contour>
    <contour>
      <point x="514" y="573"/>
      <point x="545" y="605"/>
      <point x="545" y="646" type="curve" smooth="yes"/>
      <point x="545" y="687"/>
      <point x="514" y="719"/>
      <point x="468" y="719" type="curve" smooth="yes"/>
      <point x="422" y="719"/>
      <point x="391" y="687"/>
      <point x="391" y="646" type="curve" smooth="yes"/>
      <point x="391" y="605"/>
      <point x="422" y="573"/>
      <point x="468" y="573" type="curve" smooth="yes"/>
    </contour>
  </outline>
</glyph>
<glyph name="idieresis" format="1">
  <advance width="370"/>
  <unicode hex="00EF"/>
  <outline>
    <contour>
      <point x="344" y="0" type="line"/>
      <point x="344" y="18" type="line"/>
      <point x="309" y="26" type="line" smooth="yes"/>
      <point x="290" y="30"/>
      <point x="285" y="32"/>
      <point x="285" y="48" type="curve" smooth="yes"/>
      <point x="285" y="504" type="line"/>
      <point x="266" y="504" type="line"/>
      <point x="26" y="474" type="line"/>
      <point x="26" y="456" type="line"/>
      <point x="61" y="448" type="line" smooth="yes"/>
      <point x="80" y="444"/>
      <point x="85" y="442"/>
      <point x="85" y="426" type="curve" smooth="yes"/>
      <point x="85" y="48" type="line" smooth="yes"/>
      <point x="85" y="32"/>
      <point x="80" y="30"/>
      <point x="61" y="26" type="curve" smooth="yes"/>
      <point x="26" y="18" type="line"/>
      <point x="26" y="0" type="line"/>
    </contour>
    <contour>
      <point x="112" y="573"/>
      <point x="143" y="605"/>
      <point x="143" y="646" type="curve" smooth="yes"/>
      <point x="143" y="687"/>
      <point x="112" y="719"/>
      <point x="66" y="719" type="curve" smooth="yes"/>
      <point x="20" y="719"/>
      <point x="-11" y="687"/>
      <point x="-11" y="646" type="curve" smooth="yes"/>
      <point x="-11" y="605"/>
      <point x="20" y="573"/>
      <point x="66" y="573" type="curve" smooth="yes"/>
    </contour>
    <contour>
      <point x="350" y="573"/>
      <point x="381" y="605"/>
      <point x="381" y="646" type="curve" smooth="yes"/>
      <point x="381" y="687"/>
      <point x="350" y="719"/>
      <point x="304" y="719" type="curve" smooth="yes"/>
      <point x="258" y="719"/>
      <point x="227" y="687"/>
      <point x="227" y="646" type="curve" smooth="yes"/>
      <point x="227" y="605"/>
      <point x="258" y="573"/>
      <point x="304" y="573" type="curve" smooth="yes"/>
    </contour>
  </outline>
</glyph>
<glyph name="eth" format="1">
  <advance width="605"/>
  <unicode hex="00F0"/>
  <outline>
    <contour>
      <point x="518" y="708" type="line"/>
      <point x="414" y="648" type="line"/>
      <point x="357" y="677"/>
      <point x="294" y="698"/>
      <point x="228" y="710" type="curve"/>
      <point x="222" y="695" type="line"/>
      <point x="268" y="676"/>
      <point x="315" y="649"/>
      <point x="354" y="613" type="curve"/>
      <point x="277" y="569" type="line"/>
      <point x="291" y="545" type="line"/>
      <point x="374" y="593" type="line"/>
      <point x="402" y="563"/>
      <point x="423" y="529"/>
      <point x="437" y="490" type="curve"/>
      <point x="414" y="495"/>
      <point x="388" y="498"/>
      <point x="362" y="498" type="curve" smooth="yes"/>
      <point x="165" y="498"/>
      <point x="50" y="419"/>
      <point x="50" y="243" type="curve" smooth="yes"/>
      <point x="50" y="67"/>
      <point x="165" y="-12"/>
      <point x="362" y="-12" type="curve" smooth="yes"/>
      <point x="559" y="-12"/>
      <point x="674" y="67"/>
      <point x="674" y="243" type="curve" smooth="yes"/>
      <point x="674" y="422"/>
      <point x="579" y="553"/>
      <point x="443" y="632" type="curve"/>
      <point x="532" y="684" type="line"/>
    </contour>
    <contour>
      <point x="258" y="412"/>
      <point x="277" y="472"/>
      <point x="362" y="472" type="curve" smooth="yes"/>
      <point x="448" y="472"/>
      <point x="466" y="412"/>
      <point x="466" y="243" type="curve" smooth="yes"/>
      <point x="466" y="74"/>
      <point x="448" y="14"/>
      <point x="362" y="14" type="curve" smooth="yes"/>
      <point x="276" y="14"/>
      <point x="258" y="74"/>
      <point x="258" y="243" type="curve" smooth="yes"/>
    </contour>
  </outline>
</glyph>
<glyph name="ntilde" format="1">
  <advance width="750"/>
  <unicode hex="00F1"/>
  <outline>
    <contour>
      <point x="669" y="342" type="line" smooth="yes"/>
      <point x="669" y="441"/>
      <point x="625" y="498"/>
      <point x="496" y="498" type="curve" smooth="yes"/>
      <point x="397" y="498"/>
      <point x="323" y="457"/>
      <point x="281" y="423" type="curve"/>
      <point x="281" y="504" type="line"/>
      <point x="264" y="504" type="line"/>
      <point x="24" y="474" type="line"/>
      <point x="24" y="456" type="line"/>
      <point x="59" y="448" type="line" smooth="yes"/>
      <point x="78" y="444"/>
      <point x="83" y="442"/>
      <point x="83" y="426" type="curve" smooth="yes"/>
      <point x="83" y="48" type="line" smooth="yes"/>
      <point x="83" y="32"/>
      <point x="78" y="30"/>
      <point x="59" y="26" type="curve" smooth="yes"/>
      <point x="24" y="18" type="line"/>
      <point x="24" y="0" type="line"/>
      <point x="340" y="0" type="line"/>
      <point x="340" y="18" type="line"/>
      <point x="306" y="25" type="line" smooth="yes"/>
      <point x="287" y="29"/>
      <point x="283" y="33"/>
      <point x="283" y="48" type="curve" smooth="yes"/>
      <point x="283" y="393" type="line"/>
      <point x="317" y="420"/>
      <point x="361" y="443"/>
      <point x="406" y="443" type="curve" smooth="yes"/>
      <point x="452" y="443"/>
      <point x="469" y="420"/>
      <point x="469" y="360" type="curve" smooth="yes"/>
      <point x="469" y="56" type="line" smooth="yes"/>
      <point x="469" y="20"/>
      <point x="483" y="0"/>
      <point x="520" y="0" type="curve" smooth="yes"/>
      <point x="728" y="0" type="line"/>
      <point x="728" y="18" type="line"/>
      <point x="693" y="26" type="line" smooth="yes"/>
      <point x="674" y="30"/>
      <point x="669" y="32"/>
      <point x="669" y="48" type="curve" smooth="yes"/>
    </contour>
    <contour>
      <point x="519" y="564"/>
      <point x="545" y="639"/>
      <point x="564" y="689" type="curve"/>
      <point x="552" y="694" type="line"/>
      <point x="528" y="664" type="line"/>
      <point x="515" y="646"/>
      <point x="488" y="640"/>
      <point x="464" y="649" type="curve" smooth="yes"/>
      <point x="368" y="687"/>
      <point x="320" y="708"/>
      <point x="290" y="708" type="curve" smooth="yes"/>
      <point x="231" y="708"/>
      <point x="205" y="633"/>
      <point x="186" y="583" type="curve"/>
      <point x="198" y="578" type="line"/>
      <point x="222" y="608" type="line"/>
      <point x="235" y="626"/>
      <point x="262" y="632"/>
      <point x="286" y="623" type="curve" smooth="yes"/>
      <point x="382" y="585"/>
      <point x="430" y="564"/>
      <point x="460" y="564" type="curve" smooth="yes"/>
    </contour>
  </outline>
</glyph>
<glyph name="oacute" format="1">
  <advance width="724"/>
  <unicode hex="00F3"/>
  <outline>
    <contour>
      <point x="674" y="419"/>
      <point x="559" y="498"/>
      <point x="362" y="498" type="curve" smooth="yes"/>
      <point x="165" y="498"/>
      <point x="50" y="419"/>
      <point x="50" y="243" type="curve" smooth="yes"/>
      <point x="50" y="67"/>
      <point x="165" y="-12"/>
      <point x="362" y="-12" type="curve" smooth="yes"/>
      <point x="559" y="-12"/>
      <point x="674" y="67"/>
      <point x="674" y="243" type="curve" smooth="yes"/>
    </contour>
    <contour>
      <point x="258" y="412"/>
      <point x="277" y="472"/>
      <point x="362" y="472" type="curve" smooth="yes"/>
      <point x="448" y="472"/>
      <point x="466" y="412"/>
      <point x="466" y="243" type="curve" smooth="yes"/>
      <point x="466" y="74"/>
      <point x="448" y="14"/>
      <point x="362" y="14" type="curve" smooth="yes"/>
      <point x="276" y="14"/>
      <point x="258" y="74"/>
      <point x="258" y="243" type="curve" smooth="yes"/>
    </contour>
    <contour>
      <point x="437" y="673"/>
      <point x="360" y="619"/>
      <point x="305" y="577" type="curve"/>
      <point x="310" y="566" type="line"/>
      <point x="371" y="576"/>
      <point x="475" y="603"/>
      <point x="536" y="631" type="curve"/>
      <point x="535" y="669"/>
      <point x="510" y="704"/>
      <point x="480" y="718" type="curve"/>
    </contour>
  </outline>
</glyph>
<glyph name="ocircumflex" format="1">
  <advance width="724"/>
  <unicode hex="00F4"/>
  <outline>
    <contour>
      <point x="674" y="419"/>
      <point x="559" y="498"/>
      <point x="362" y="498" type="curve" smooth="yes"/>
      <point x="165" y="498"/>
      <point x="50" y="419"/>
      <point x="50" y="243" type="curve" smooth="yes"/>
      <point x="50" y="67"/>
      <point x="165" y="-12"/>
      <point x="362" y="-12" type="curve" smooth="yes"/>
      <point x="559" y="-12"/>
      <point x="674" y="67"/>
      <point x="674" y="243" type="curve" smooth="yes"/>
    </contour>
    <contour>
      <point x="258" y="412"/>
      <point x="277" y="472"/>
      <point x="362" y="472" type="curve" smooth="yes"/>
      <point x="448" y="472"/>
      <point x="466" y="412"/>
      <point x="466" y="243" type="curve" smooth="yes"/>
      <point x="466" y="74"/>
      <point x="448" y="14"/>
      <point x="362" y="14" type="curve" smooth="yes"/>
      <point x="276" y="14"/>
      <point x="258" y="74"/>
      <point x="258" y="243" type="curve" smooth="yes"/>
    </contour>
    <contour>
      <point x="336" y="718" type="line"/>
      <point x="297" y="669"/>
      <point x="252" y="622"/>
      <point x="202" y="581" type="curve"/>
      <point x="213" y="566" type="line"/>
      <point x="263" y="583"/>
      <point x="312" y="606"/>
      <point x="362" y="635" type="curve"/>
      <point x="412" y="606"/>
      <point x="461" y="583"/>
      <point x="511" y="566" type="curve"/>
      <point x="522" y="581" type="line"/>
      <point x="473" y="622"/>
      <point x="427" y="669"/>
      <point x="388" y="718" type="curve"/>
    </contour>
  </outline>
</glyph>
<glyph name="odieresis" format="1">
  <advance width="724"/>
  <unicode hex="00F6"/>
  <outline>
    <contour>
      <point x="674" y="419"/>
      <point x="559" y="498"/>
      <point x="362" y="498" type="curve" smooth="yes"/>
      <point x="165" y="498"/>
      <point x="50" y="419"/>
      <point x="50" y="243" type="curve" smooth="yes"/>
      <point x="50" y="67"/>
      <point x="165" y="-12"/>
      <point x="362" y="-12" type="curve" smooth="yes"/>
      <point x="559" y="-12"/>
      <point x="674" y="67"/>
      <point x="674" y="243" type="curve" smooth="yes"/>
    </contour>
    <contour>
      <point x="258" y="412"/>
      <point x="277" y="472"/>
      <point x="362" y="472" type="curve" smooth="yes"/>
      <point x="448" y="472"/>
      <point x="466" y="412"/>
      <point x="466" y="243" type="curve" smooth="yes"/>
      <point x="466" y="74"/>
      <point x="448" y="14"/>
      <point x="362" y="14" type="curve" smooth="yes"/>
      <point x="276" y="14"/>
      <point x="258" y="74"/>
      <point x="258" y="243" type="curve" smooth="yes"/>
    </contour>
    <contour>
      <point x="289" y="573"/>
      <point x="320" y="605"/>
      <point x="320" y="646" type="curve" smooth="yes"/>
      <point x="320" y="687"/>
      <point x="289" y="719"/>
      <point x="243" y="719" type="curve" smooth="yes"/>
      <point x="197" y="719"/>
      <point x="166" y="687"/>
      <point x="166" y="646" type="curve" smooth="yes"/>
      <point x="166" y="605"/>
      <point x="197" y="573"/>
      <point x="243" y="573" type="curve" smooth="yes"/>
    </contour>
    <contour>
      <point x="527" y="573"/>
      <point x="558" y="605"/>
      <point x="558" y="646" type="curve" smooth="yes"/>
      <point x="558" y="687"/>
      <point x="527" y="719"/>
      <point x="481" y="719" type="curve" smooth="yes"/>
      <point x="435" y="719"/>
      <point x="404" y="687"/>
      <point x="404" y="646" type="curve" smooth="yes"/>
      <point x="404" y="605"/>
      <point x="435" y="573"/>
      <point x="481" y="573" type="curve" smooth="yes"/>
    </contour>
  </outline>
</glyph>
<glyph name="udieresis" format="1">
  <advance width="746"/>
  <unicode hex="00FC"/>
  <outline>
    <contour>
      <point x="463" y="93" type="line"/>
      <point x="430" y="66"/>
      <point x="387" y="43"/>
      <point x="342" y="43" type="curve" smooth="yes"/>
      <point x="296" y="43"/>
      <point x="279" y="66"/>
      <point x="279" y="126" type="curve" smooth="yes"/>
      <point x="279" y="504" type="line"/>
      <point x="262" y="504" type="line"/>
      <point x="20" y="474" type="line"/>
      <point x="20" y="456" type="line"/>
      <point x="55" y="448" type="line" smooth="yes"/>
      <point x="74" y="444"/>
      <point x="79" y="442"/>
      <point x="79" y="426" type="curve" smooth="yes"/>
      <point x="79" y="144" type="line" smooth="yes"/>
      <point x="79" y="45"/>
      <point x="123" y="-12"/>
      <point x="252" y="-12" type="curve" smooth="yes"/>
      <point x="351" y="-12"/>
      <point x="425" y="29"/>
      <point x="465" y="63" type="curve"/>
      <point x="465" y="52" type="line" smooth="yes"/>
      <point x="465" y="16"/>
      <point x="479" y="0"/>
      <point x="519" y="0" type="curve" smooth="yes"/>
      <point x="722" y="0" type="line"/>
      <point x="722" y="18" type="line"/>
      <point x="687" y="26" type="line" smooth="yes"/>
      <point x="668" y="30"/>
      <point x="663" y="32"/>
      <point x="663" y="48" type="curve" smooth="yes"/>
      <point x="663" y="504" type="line"/>
      <point x="646" y="504" type="line"/>
      <point x="404" y="474" type="line"/>
      <point x="404" y="456" type="line"/>
      <point x="439" y="448" type="line" smooth="yes"/>
      <point x="458" y="444"/>
      <point x="463" y="442"/>
      <point x="463" y="426" type="curve" smooth="yes"/>
    </contour>
    <contour>
      <point x="300" y="573"/>
      <point x="331" y="605"/>
      <point x="331" y="646" type="curve" smooth="yes"/>
      <point x="331" y="687"/>
      <point x="300" y="719"/>
      <point x="254" y="719" type="curve" smooth="yes"/>
      <point x="208" y="719"/>
      <point x="177" y="687"/>
      <point x="177" y="646" type="curve" smooth="yes"/>
      <point x="177" y="605"/>
      <point x="208" y="573"/>
      <point x="254" y="573" type="curve" smooth="yes"/>
    </contour>
    <contour>
      <point x="538" y="573"/>
      <point x="569" y="605"/>
      <point x="569" y="646" type="curve" smooth="yes"/>
      <point x="569" y="687"/>
      <point x="538" y="719"/>
      <point x="492" y="719" type="curve" smooth="yes"/>
      <point x="446" y="719"/>
      <point x="415" y="687"/>
      <point x="415" y="646" type="curve" smooth="yes"/>
      <point x="415" y="605"/>
      <point x="446" y="573"/>
      <point x="492" y="573" type="curve" smooth="yes"/>
    </contour>
  </outline>
</glyph>
<glyph name="ydieresis" format="1">
  <advance width="582"/>
  <unicode hex="00FF"/>
  <outline>
    <contour>
      <point x="318" y="486" type="line"/>
      <point x="4" y="486" type="line"/>
      <point x="4" y="471" type="line"/>
      <point x="34" y="463" type="line"/>
      <point x="44" y="461"/>
      <point x="55" y="458"/>
      <point x="62" y="444" type="curve" smooth="yes"/>
      <point x="303" y="-16" type="line"/>
      <point x="246" y="-55"/>
      <point x="163" y="-84"/>
      <point x="69" y="-88" type="curve"/>
      <point x="123" y="-240" type="line"/>
      <point x="229" y="-215"/>
      <point x="257" y="-167"/>
      <point x="330" y="0" type="curve" smooth="yes"/>
      <point x="525" y="448" type="line" smooth="yes"/>
      <point x="532" y="464"/>
      <point x="537" y="465"/>
      <point x="552" y="467" type="curve" smooth="yes"/>
      <point x="578" y="471" type="line"/>
      <point x="578" y="486" type="line"/>
      <point x="463" y="486" type="line"/>
      <point x="463" y="471" type="line"/>
      <point x="489" y="468" type="line" smooth="yes"/>
      <point x="504" y="466"/>
      <point x="504" y="463"/>
      <point x="499" y="451" type="curve" smooth="yes"/>
      <point x="390" y="197" type="line"/>
      <point x="274" y="430" type="line" smooth="yes"/>
      <point x="263" y="452"/>
      <point x="273" y="461"/>
      <point x="292" y="465" type="curve" smooth="yes"/>
      <point x="318" y="471" type="line"/>
    </contour>
    <contour>
      <point x="258" y="573"/>
      <point x="289" y="605"/>
      <point x="289" y="646" type="curve" smooth="yes"/>
      <point x="289" y="687"/>
      <point x="258" y="719"/>
      <point x="212" y="719" type="curve" smooth="yes"/>
      <point x="166" y="719"/>
      <point x="135" y="687"/>
      <point x="135" y="646" type="curve" smooth="yes"/>
      <point x="135" y="605"/>
      <point x="166" y="573"/>
      <point x="212" y="573" type="curve" smooth="yes"/>
    </contour>
    <contour>
      <point x="496" y="573"/>
      <point x="527" y="605"/>
      <point x="527" y="646" type="curve" smooth="yes"/>
      <point x="527" y="687"/>
      <point x="496" y="719"/>
      <point x="450" y="719" type="curve" smooth="yes"/>
      <point x="404" y="719"/>
      <point x="373" y="687"/>
      <point x="373" y="646" type="curve" smooth="yes"/>
      <point x="373" y="605"/>
      <point x="404" y="573"/>
      <point x="450" y="573" type="curve" smooth="yes"/>
    </contour>
  </outline>
</glyph>
<glyph name="abreve" format="1">
  <advance width="644"/>
  <unicode hex="0103"/>
  <outline>
    <contour>
      <point x="624" y="0" type="line"/>
      <point x="624" y="18" type="line"/>
      <point x="589" y="26" type="line" smooth="yes"/>
      <point x="570" y="30"/>
      <point x="565" y="32"/>
      <point x="565" y="48" type="curve" smooth="yes"/>
      <point x="565" y="325" type="line" smooth="yes"/>
      <point x="565" y="430"/>
      <point x="515" y="498"/>
      <point x="356" y="498" type="curve" smooth="yes"/>
      <point x="236" y="498"/>
      <point x="147" y="464"/>
      <point x="89" y="423" type="curve"/>
      <point x="102" y="404" type="line"/>
      <point x="153" y="435"/>
      <point x="203" y="454"/>
      <point x="268" y="454" type="curve" smooth="yes"/>
      <point x="342" y="454"/>
      <point x="367" y="423"/>
      <point x="367" y="349" type="curve" smooth="yes"/>
      <point x="367" y="276" type="line"/>
      <point x="151" y="270"/>
      <point x="38" y="239"/>
      <point x="38" y="111" type="curve" smooth="yes"/>
      <point x="38" y="26"/>
      <point x="92" y="-10"/>
      <point x="176" y="-10" type="curve" smooth="yes"/>
      <point x="273" y="-10"/>
      <point x="332" y="21"/>
      <point x="367" y="55" type="curve"/>
      <point x="367" y="50" type="line" smooth="yes"/>
      <point x="367" y="14"/>
      <point x="381" y="0"/>
      <point x="418" y="0" type="curve" smooth="yes"/>
    </contour>
    <contour>
      <point x="249" y="53"/>
      <point x="232" y="74"/>
      <point x="232" y="125" type="curve" smooth="yes"/>
      <point x="232" y="206"/>
      <point x="253" y="241"/>
      <point x="367" y="249" type="curve"/>
      <point x="367" y="87" type="line"/>
      <point x="345" y="66"/>
      <point x="319" y="53"/>
      <point x="288" y="53" type="curve" smooth="yes"/>
    </contour>
    <contour>
      <point x="415" y="566"/>
      <point x="458" y="626"/>
      <point x="460" y="719" type="curve"/>
      <point x="440" y="719" type="line"/>
      <point x="427" y="668"/>
      <point x="401" y="643"/>
      <point x="322" y="643" type="curve" smooth="yes"/>
      <point x="243" y="643"/>
      <point x="217" y="668"/>
      <point x="204" y="719" type="curve"/>
      <point x="184" y="719" type="line"/>
      <point x="186" y="626"/>
      <point x="229" y="566"/>
      <point x="322" y="566" type="curve" smooth="yes"/>
    </contour>
  </outline>
</glyph>
<glyph name="Aogonek" format="1">
  <advance width="768"/>
  <unicode hex="0104"/>
  <outline>
    <contour>
      <point x="683" y="-142" type="line"/>
      <point x="669" y="-153"/>
      <point x="649" y="-165"/>
      <point x="630" y="-165" type="curve" smooth="yes"/>
      <point x="589" y="-165"/>
      <point x="572" y="-147"/>
      <point x="572" y="-106" type="curve" smooth="yes"/>
      <point x="572" y="-57"/>
      <point x="587" y="-22"/>
      <point x="633" y="0" type="curve"/>
      <point x="750" y="0" type="line"/>
      <point x="750" y="20" type="line"/>
      <point x="713" y="24" type="line" smooth="yes"/>
      <point x="697" y="26"/>
      <point x="692" y="32"/>
      <point x="685" y="48" type="curve" smooth="yes"/>
      <point x="392" y="711" type="line"/>
      <point x="360" y="711" type="line"/>
      <point x="83" y="48" type="line" smooth="yes"/>
      <point x="76" y="32"/>
      <point x="71" y="26"/>
      <point x="55" y="24" type="curve" smooth="yes"/>
      <point x="18" y="20" type="line"/>
      <point x="18" y="0" type="line"/>
      <point x="170" y="0" type="line"/>
      <point x="170" y="20" type="line"/>
      <point x="127" y="24" type="line" smooth="yes"/>
      <point x="114" y="25"/>
      <point x="110" y="32"/>
      <point x="116" y="47" type="curve" smooth="yes"/>
      <point x="176" y="193" type="line"/>
      <point x="408" y="193" type="line"/>
      <point x="474" y="47" type="line" smooth="yes"/>
      <point x="481" y="32"/>
      <point x="476" y="25"/>
      <point x="463" y="24" type="curve" smooth="yes"/>
      <point x="420" y="20" type="line"/>
      <point x="420" y="0" type="line"/>
      <point x="606" y="0" type="line"/>
      <point x="534" y="-21"/>
      <point x="474" y="-63"/>
      <point x="474" y="-131" type="curve" smooth="yes"/>
      <point x="474" y="-178"/>
      <point x="510" y="-205"/>
      <point x="580" y="-205" type="curve" smooth="yes"/>
      <point x="632" y="-205"/>
      <point x="666" y="-180"/>
      <point x="690" y="-153" type="curve"/>
    </contour>
    <contour>
      <point x="287" y="462" type="line"/>
      <point x="395" y="223" type="line"/>
      <point x="188" y="223" type="line"/>
    </contour>
  </outline>
</glyph>
<glyph name="Ccircumflex" format="1">
  <advance width="754"/>
  <unicode hex="0108"/>
  <outline>
    <contour>
      <point x="328" y="38"/>
      <point x="276" y="166"/>
      <point x="276" y="386" type="curve" smooth="yes"/>
      <point x="276" y="576"/>
      <point x="320" y="683"/>
      <point x="446" y="683" type="curve" smooth="yes"/>
      <point x="562" y="683"/>
      <point x="616" y="591"/>
      <point x="648" y="495" type="curve"/>
      <point x="676" y="495" type="line"/>
      <point x="690" y="667" type="line"/>
      <point x="640" y="692"/>
      <point x="541" y="712"/>
      <point x="445" y="712" type="curve" smooth="yes"/>
      <point x="231" y="712"/>
      <point x="56" y="616"/>
      <point x="56" y="360" type="curve" smooth="yes"/>
      <point x="56" y="80"/>
      <point x="240" y="-12"/>
      <point x="440" y="-12" type="curve" smooth="yes"/>
      <point x="562" y="-12"/>
      <point x="657" y="35"/>
      <point x="710" y="84" type="curve"/>
      <point x="690" y="106" type="line"/>
      <point x="642" y="68"/>
      <point x="585" y="38"/>
      <point x="506" y="38" type="curve" smooth="yes"/>
    </contour>
    <contour>
      <point x="411" y="912" type="line"/>
      <point x="372" y="863"/>
      <point x="327" y="816"/>
      <point x="277" y="775" type="curve"/>
      <point x="288" y="760" type="line"/>
      <point x="338" y="777"/>
      <point x="387" y="800"/>
      <point x="437" y="829" type="curve"/>
      <point x="487" y="800"/>
      <point x="536" y="777"/>
      <point x="586" y="760" type="curve"/>
      <point x="597" y="775" type="line"/>
      <point x="548" y="816"/>
      <point x="502" y="863"/>
      <point x="463" y="912" type="curve"/>
    </contour>
  </outline>
</glyph>
<glyph name="edotaccent" format="1">
  <advance width="658"/>
  <unicode hex="0117"/>
  <outline>
    <contour>
      <point x="605" y="256" type="line"/>
      <point x="608" y="270"/>
      <point x="610" y="291"/>
      <point x="610" y="306" type="curve" smooth="yes"/>
      <point x="610" y="409"/>
      <point x="531" y="498"/>
      <point x="358" y="498" type="curve" smooth="yes"/>
      <point x="166" y="498"/>
      <point x="50" y="413"/>
      <point x="50" y="249" type="curve" smooth="yes"/>
      <point x="50" y="75"/>
      <point x="167" y="-12"/>
      <point x="347" y="-12" type="curve" smooth="yes"/>
      <point x="463" y="-12"/>
      <point x="539" y="20"/>
      <point x="593" y="64" type="curve"/>
      <point x="580" y="83" type="line"/>
      <point x="535" y="53"/>
      <point x="489" y="29"/>
      <point x="421" y="29" type="curve" smooth="yes"/>
      <point x="284" y="29"/>
      <point x="257" y="126"/>
      <point x="256" y="256" type="curve"/>
    </contour>
    <contour>
      <point x="413" y="474"/>
      <point x="424" y="431"/>
      <point x="424" y="357" type="curve" smooth="yes"/>
      <point x="424" y="282" type="line"/>
      <point x="256" y="282" type="line"/>
      <point x="257" y="406"/>
      <point x="275" y="474"/>
      <point x="352" y="474" type="curve" smooth="yes"/>
    </contour>
    <contour>
      <point x="399" y="569"/>
      <point x="436" y="593"/>
      <point x="436" y="644" type="curve" smooth="yes"/>
      <point x="436" y="695"/>
      <point x="399" y="719"/>
      <point x="349" y="719" type="curve" smooth="yes"/>
      <point x="299" y="719"/>
      <point x="262" y="695"/>
      <point x="262" y="644" type="curve" smooth="yes"/>
      <point x="262" y="593"/>
      <point x="299" y="569"/>
      <point x="349" y="569" type="curve" smooth="yes"/>
    </contour>
  </outline>
</glyph>
<glyph name="eogonek" format="1">
  <advance width="658"/>
  <unicode hex="0119"/>
  <outline>
    <contour>
      <point x="503" y="-142" type="line"/>
      <point x="489" y="-153"/>
      <point x="469" y="-165"/>
      <point x="450" y="-165" type="curve" smooth="yes"/>
      <point x="409" y="-165"/>
      <point x="392" y="-147"/>
      <point x="392" y="-106" type="curve" smooth="yes"/>
      <point x="392" y="-58"/>
      <point x="407" y="-24"/>
      <point x="449" y="-2" type="curve"/>
      <point x="511" y="10"/>
      <point x="557" y="34"/>
      <point x="593" y="64" type="curve"/>
      <point x="580" y="83" type="line"/>
      <point x="535" y="53"/>
      <point x="489" y="29"/>
      <point x="421" y="29" type="curve" smooth="yes"/>
      <point x="284" y="29"/>
      <point x="257" y="126"/>
      <point x="256" y="256" type="curve"/>
      <point x="605" y="256" type="line"/>
      <point x="608" y="270"/>
      <point x="610" y="291"/>
      <point x="610" y="306" type="curve" smooth="yes"/>
      <point x="610" y="409"/>
      <point x="531" y="498"/>
      <point x="358" y="498" type="curve" smooth="yes"/>
      <point x="166" y="498"/>
      <point x="50" y="413"/>
      <point x="50" y="249" type="curve" smooth="yes"/>
      <point x="50" y="75"/>
      <point x="167" y="-12"/>
      <point x="347" y="-12" type="curve" smooth="yes"/>
      <point x="365" y="-12"/>
      <point x="381" y="-11"/>
      <point x="397" y="-10" type="curve"/>
      <point x="339" y="-33"/>
      <point x="294" y="-72"/>
      <point x="294" y="-131" type="curve" smooth="yes"/>
      <point x="294" y="-178"/>
      <point x="330" y="-205"/>
      <point x="400" y="-205" type="curve" smooth="yes"/>
      <point x="452" y="-205"/>
      <point x="486" y="-180"/>
      <point x="510" y="-153" type="curve"/>
    </contour>
    <contour>
      <point x="413" y="474"/>
      <point x="424" y="431"/>
      <point x="424" y="357" type="curve" smooth="yes"/>
      <point x="424" y="282" type="line"/>
      <point x="256" y="282" type="line"/>
      <point x="257" y="406"/>
      <point x="275" y="474"/>
      <point x="352" y="474" type="curve" smooth="yes"/>
    </contour>
  </outline>
</glyph>
<glyph name="Ecaron" format="1">
  <advance width="720"/>
  <unicode hex="011A"/>
  <outline>
    <contour>
      <point x="26" y="0" type="line"/>
      <point x="656" y="0" type="line"/>
      <point x="656" y="199" type="line"/>
      <point x="630" y="199" type="line"/>
      <point x="593" y="87"/>
      <point x="566" y="30"/>
      <point x="443" y="30" type="curve" smooth="yes"/>
      <point x="291" y="30" type="line"/>
      <point x="291" y="343" type="line"/>
      <point x="549" y="343" type="line"/>
      <point x="549" y="373" type="line"/>
      <point x="291" y="373" type="line"/>
      <point x="291" y="670" type="line"/>
      <point x="433" y="670" type="line" smooth="yes"/>
      <point x="556" y="670"/>
      <point x="580" y="617"/>
      <point x="617" y="505" type="curve"/>
      <point x="642" y="505" type="line"/>
      <point x="642" y="700" type="line"/>
      <point x="26" y="700" type="line"/>
      <point x="26" y="680" type="line"/>
      <point x="63" y="672" type="line" smooth="yes"/>
      <point x="82" y="668"/>
      <point x="87" y="666"/>
      <point x="87" y="650" type="curve" smooth="yes"/>
      <point x="87" y="50" type="line" smooth="yes"/>
      <point x="87" y="34"/>
      <point x="82" y="32"/>
      <point x="63" y="28" type="curve" smooth="yes"/>
      <point x="26" y="20" type="line"/>
    </contour>
    <contour>
      <point x="426" y="760" type="line"/>
      <point x="465" y="809"/>
      <point x="511" y="856"/>
      <point x="560" y="897" type="curve"/>
      <point x="549" y="912" type="line"/>
      <point x="499" y="895"/>
      <point x="450" y="872"/>
      <point x="400" y="843" type="curve"/>
      <point x="350" y="872"/>
      <point x="301" y="895"/>
      <point x="251" y="912" type="curve"/>
      <point x="240" y="897" type="line"/>
      <point x="290" y="856"/>
      <point x="335" y="809"/>
      <point x="374" y="760" type="curve"/>
    </contour>
  </outline>
</glyph>
<glyph name="Gcommaaccent" format="1">
  <advance width="790"/>
  <unicode hex="0122"/>
  <outline>
    <contour>
      <point x="276" y="576"/>
      <point x="322" y="683"/>
      <point x="453" y="683" type="curve" smooth="yes"/>
      <point x="575" y="683"/>
      <point x="630" y="591"/>
      <point x="662" y="495" type="curve"/>
      <point x="690" y="495" type="line"/>
      <point x="704" y="667" type="line"/>
      <point x="654" y="692"/>
      <point x="553" y="712"/>
      <point x="452" y="712" type="curve" smooth="yes"/>
      <point x="233" y="712"/>
      <point x="56" y="616"/>
      <point x="56" y="360" type="curve" smooth="yes"/>
      <point x="56" y="80"/>
      <point x="246" y="-12"/>
      <point x="444" y="-12" type="curve" smooth="yes"/>
      <point x="523" y="-12"/>
      <point x="633" y="27"/>
      <point x="722" y="44" type="curve"/>
      <point x="722" y="307" type="line"/>
      <point x="449" y="307" type="line"/>
      <point x="449" y="277" type="line"/>
      <point x="548" y="277" type="line"/>
      <point x="548" y="31" type="line"/>
      <point x="516" y="31" type="line" smooth="yes"/>
      <point x="338" y="31"/>
      <point x="276" y="134"/>
      <point x="276" y="386" type="curve" smooth="yes"/>
    </contour>
    <contour>
      <point x="463" y="-251"/>
      <point x="450" y="-280"/>
      <point x="405" y="-326" type="curve"/>
      <point x="423" y="-343" type="line"/>
      <point x="485" y="-295"/>
      <point x="537" y="-220"/>
      <point x="537" y="-142" type="curve" smooth="yes"/>
      <point x="537" y="-86"/>
      <point x="503" y="-58"/>
      <point x="453" y="-58" type="curve" smooth="yes"/>
      <point x="401" y="-58"/>
      <point x="373" y="-93"/>
      <point x="373" y="-134" type="curve" smooth="yes"/>
      <point x="373" y="-176"/>
      <point x="400" y="-213"/>
      <point x="464" y="-206" type="curve"/>
    </contour>
  </outline>
</glyph>
<glyph name="Hcircumflex" format="1">
  <advance width="844"/>
  <unicode hex="0124"/>
  <outline>
    <contour>
      <point x="553" y="343" type="line"/>
      <point x="553" y="49" type="line" smooth="yes"/>
      <point x="553" y="34"/>
      <point x="548" y="32"/>
      <point x="530" y="28" type="curve" smooth="yes"/>
      <point x="494" y="20" type="line"/>
      <point x="494" y="0" type="line"/>
      <point x="818" y="0" type="line"/>
      <point x="818" y="20" type="line"/>
      <point x="781" y="28" type="line" smooth="yes"/>
      <point x="762" y="32"/>
      <point x="757" y="34"/>
      <point x="757" y="50" type="curve" smooth="yes"/>
      <point x="757" y="650" type="line" smooth="yes"/>
      <point x="757" y="666"/>
      <point x="762" y="668"/>
      <point x="781" y="672" type="curve" smooth="yes"/>
      <point x="818" y="680" type="line"/>
      <point x="818" y="700" type="line"/>
      <point x="494" y="700" type="line"/>
      <point x="494" y="680" type="line"/>
      <point x="530" y="672" type="line"/>
      <point x="548" y="669"/>
      <point x="553" y="666"/>
      <point x="553" y="651" type="curve" smooth="yes"/>
      <point x="553" y="373" type="line"/>
      <point x="291" y="373" type="line"/>
      <point x="291" y="651" type="line" smooth="yes"/>
      <point x="291" y="666"/>
      <point x="296" y="669"/>
      <point x="314" y="672" type="curve"/>
      <point x="350" y="680" type="line"/>
      <point x="350" y="700" type="line"/>
      <point x="26" y="700" type="line"/>
      <point x="26" y="680" type="line"/>
      <point x="63" y="672" type="line" smooth="yes"/>
      <point x="82" y="668"/>
      <point x="87" y="666"/>
      <point x="87" y="650" type="curve" smooth="yes"/>
      <point x="87" y="50" type="line" smooth="yes"/>
      <point x="87" y="34"/>
      <point x="82" y="32"/>
      <point x="63" y="28" type="curve" smooth="yes"/>
      <point x="26" y="20" type="line"/>
      <point x="26" y="0" type="line"/>
      <point x="350" y="0" type="line"/>
      <point x="350" y="20" type="line"/>
      <point x="314" y="28" type="line" smooth="yes"/>
      <point x="296" y="32"/>
      <point x="291" y="34"/>
      <point x="291" y="49" type="curve" smooth="yes"/>
      <point x="291" y="343" type="line"/>
    </contour>
    <contour>
      <point x="396" y="932" type="line"/>
      <point x="357" y="883"/>
      <point x="312" y="836"/>
      <point x="262" y="795" type="curve"/>
      <point x="273" y="780" type="line"/>
      <point x="323" y="797"/>
      <point x="372" y="820"/>
      <point x="422" y="849" type="curve"/>
      <point x="472" y="820"/>
      <point x="521" y="797"/>
      <point x="571" y="780" type="curve"/>
      <point x="582" y="795" type="line"/>
      <point x="533" y="836"/>
      <point x="487" y="883"/>
      <point x="448" y="932" type="curve"/>
    </contour>
  </outline>
</glyph>
<glyph name="Itilde" format="1">
  <advance width="386"/>
  <unicode hex="0128"/>
  <outline>
    <contour>
      <point x="91" y="50" type="line" smooth="yes"/>
      <point x="91" y="34"/>
      <point x="86" y="32"/>
      <point x="67" y="28" type="curve" smooth="yes"/>
      <point x="30" y="20" type="line"/>
      <point x="30" y="0" type="line"/>
      <point x="356" y="0" type="line"/>
      <point x="356" y="20" type="line"/>
      <point x="319" y="28" type="line" smooth="yes"/>
      <point x="300" y="32"/>
      <point x="295" y="34"/>
      <point x="295" y="50" type="curve" smooth="yes"/>
      <point x="295" y="650" type="line" smooth="yes"/>
      <point x="295" y="666"/>
      <point x="300" y="668"/>
      <point x="319" y="672" type="curve" smooth="yes"/>
      <point x="356" y="680" type="line"/>
      <point x="356" y="700" type="line"/>
      <point x="30" y="700" type="line"/>
      <point x="30" y="680" type="line"/>
      <point x="67" y="672" type="line" smooth="yes"/>
      <point x="86" y="668"/>
      <point x="91" y="666"/>
      <point x="91" y="650" type="curve" smooth="yes"/>
    </contour>
    <contour>
      <point x="337" y="758"/>
      <point x="363" y="833"/>
      <point x="382" y="883" type="curve"/>
      <point x="370" y="888" type="line"/>
      <point x="346" y="858" type="line"/>
      <point x="333" y="840"/>
      <point x="306" y="834"/>
      <point x="282" y="843" type="curve" smooth="yes"/>
      <point x="186" y="881"/>
      <point x="138" y="902"/>
      <point x="108" y="902" type="curve" smooth="yes"/>
      <point x="49" y="902"/>
      <point x="23" y="827"/>
      <point x="4" y="777" type="curve"/>
      <point x="16" y="772" type="line"/>
      <point x="40" y="802" type="line"/>
      <point x="53" y="820"/>
      <point x="80" y="826"/>
      <point x="104" y="817" type="curve" smooth="yes"/>
      <point x="200" y="779"/>
      <point x="248" y="758"/>
      <point x="278" y="758" type="curve" smooth="yes"/>
    </contour>
  </outline>
</glyph>
<glyph name="itilde" format="1">
  <advance width="370"/>
  <unicode hex="0129"/>
  <outline>
    <contour>
      <point x="344" y="0" type="line"/>
      <point x="344" y="18" type="line"/>
      <point x="309" y="26" type="line" smooth="yes"/>
      <point x="290" y="30"/>
      <point x="285" y="32"/>
      <point x="285" y="48" type="curve" smooth="yes"/>
      <point x="285" y="504" type="line"/>
      <point x="266" y="504" type="line"/>
      <point x="26" y="474" type="line"/>
      <point x="26" y="456" type="line"/>
      <point x="61" y="448" type="line" smooth="yes"/>
      <point x="80" y="444"/>
      <point x="85" y="442"/>
      <point x="85" y="426" type="curve" smooth="yes"/>
      <point x="85" y="48" type="line" smooth="yes"/>
      <point x="85" y="32"/>
      <point x="80" y="30"/>
      <point x="61" y="26" type="curve" smooth="yes"/>
      <point x="26" y="18" type="line"/>
      <point x="26" y="0" type="line"/>
    </contour>
    <contour>
      <point x="329" y="564"/>
      <point x="355" y="639"/>
      <point x="374" y="689" type="curve"/>
      <point x="362" y="694" type="line"/>
      <point x="338" y="664" type="line"/>
      <point x="325" y="646"/>
      <point x="298" y="640"/>
      <point x="274" y="649" type="curve" smooth="yes"/>
      <point x="178" y="687"/>
      <point x="130" y="708"/>
      <point x="100" y="708" type="curve" smooth="yes"/>
      <point x="41" y="708"/>
      <point x="15" y="633"/>
      <point x="-4" y="583" type="curve"/>
      <point x="8" y="578" type="line"/>
      <point x="32" y="608" type="line"/>
      <point x="45" y="626"/>
      <point x="72" y="632"/>
      <point x="96" y="623" type="curve" smooth="yes"/>
      <point x="192" y="585"/>
      <point x="240" y="564"/>
      <point x="270" y="564" type="curve" smooth="yes"/>
    </contour>
  </outline>
</glyph>
<glyph name="Imacron" format="1">
  <advance width="386"/>
  <unicode hex="012A"/>
  <outline>
    <contour>
      <point x="91" y="50" type="line" smooth="yes"/>
      <point x="91" y="34"/>
      <point x="86" y="32"/>
      <point x="67" y="28" type="curve" smooth="yes"/>
      <point x="30" y="20" type="line"/>
      <point x="30" y="0" type="line"/>
      <point x="356" y="0" type="line"/>
      <point x="356" y="20" type="line"/>
      <point x="319" y="28" type="line" smooth="yes"/>
      <point x="300" y="32"/>
      <point x="295" y="34"/>
      <point x="295" y="50" type="curve" smooth="yes"/>
      <point x="295" y="650" type="line" smooth="yes"/>
      <point x="295" y="666"/>
      <point x="300" y="668"/>
      <point x="319" y="672" type="curve" smooth="yes"/>
      <point x="356" y="680" type="line"/>
      <point x="356" y="700" type="line"/>
      <point x="30" y="700" type="line"/>
      <point x="30" y="680" type="line"/>
      <point x="67" y="672" type="line" smooth="yes"/>
      <point x="86" y="668"/>
      <point x="91" y="666"/>
      <point x="91" y="650" type="curve" smooth="yes"/>
    </contour>
    <contour>
      <point x="3" y="778" type="line"/>
      <point x="383" y="778" type="line"/>
      <point x="383" y="802" type="line"/>
      <point x="3" y="802" type="line"/>
    </contour>
  </outline>
</glyph>
<glyph name="Ibreve" format="1">
  <advance width="386"/>
  <unicode hex="012C"/>
  <outline>
    <contour>
      <point x="91" y="50" type="line" smooth="yes"/>
      <point x="91" y="34"/>
      <point x="86" y="32"/>
      <point x="67" y="28" type="curve" smooth="yes"/>
      <point x="30" y="20" type="line"/>
      <point x="30" y="0" type="line"/>
      <point x="356" y="0" type="line"/>
      <point x="356" y="20" type="line"/>
      <point x="319" y="28" type="line" smooth="yes"/>
      <point x="300" y="32"/>
      <point x="295" y="34"/>
      <point x="295" y="50" type="curve" smooth="yes"/>
      <point x="295" y="650" type="line" smooth="yes"/>
      <point x="295" y="666"/>
      <point x="300" y="668"/>
      <point x="319" y="672" type="curve" smooth="yes"/>
      <point x="356" y="680" type="line"/>
      <point x="356" y="700" type="line"/>
      <point x="30" y="700" type="line"/>
      <point x="30" y="680" type="line"/>
      <point x="67" y="672" type="line" smooth="yes"/>
      <point x="86" y="668"/>
      <point x="91" y="666"/>
      <point x="91" y="650" type="curve" smooth="yes"/>
    </contour>
    <contour>
      <point x="286" y="760"/>
      <point x="329" y="820"/>
      <point x="331" y="913" type="curve"/>
      <point x="311" y="913" type="line"/>
      <point x="298" y="862"/>
      <point x="272" y="837"/>
      <point x="193" y="837" type="curve" smooth="yes"/>
      <point x="114" y="837"/>
      <point x="88" y="862"/>
      <point x="75" y="913" type="curve"/>
      <point x="55" y="913" type="line"/>
      <point x="57" y="820"/>
      <point x="100" y="760"/>
      <point x="193" y="760" type="curve" smooth="yes"/>
    </contour>
  </outline>
</glyph>
<glyph name="Iogonek" format="1">
  <advance width="386"/>
  <unicode hex="012E"/>
  <outline>
    <contour>
      <point x="289" y="-142" type="line"/>
      <point x="275" y="-153"/>
      <point x="255" y="-165"/>
      <point x="236" y="-165" type="curve" smooth="yes"/>
      <point x="195" y="-165"/>
      <point x="178" y="-147"/>
      <point x="178" y="-106" type="curve" smooth="yes"/>
      <point x="178" y="-57"/>
      <point x="193" y="-22"/>
      <point x="239" y="0" type="curve"/>
      <point x="356" y="0" type="line"/>
      <point x="356" y="20" type="line"/>
      <point x="319" y="28" type="line" smooth="yes"/>
      <point x="300" y="32"/>
      <point x="295" y="34"/>
      <point x="295" y="50" type="curve" smooth="yes"/>
      <point x="295" y="650" type="line" smooth="yes"/>
      <point x="295" y="666"/>
      <point x="300" y="668"/>
      <point x="319" y="672" type="curve" smooth="yes"/>
      <point x="356" y="680" type="line"/>
      <point x="356" y="700" type="line"/>
      <point x="30" y="700" type="line"/>
      <point x="30" y="680" type="line"/>
      <point x="67" y="672" type="line" smooth="yes"/>
      <point x="86" y="668"/>
      <point x="91" y="666"/>
      <point x="91" y="650" type="curve" smooth="yes"/>
      <point x="91" y="50" type="line" smooth="yes"/>
      <point x="91" y="34"/>
      <point x="86" y="32"/>
      <point x="67" y="28" type="curve" smooth="yes"/>
      <point x="30" y="20" type="line"/>
      <point x="30" y="0" type="line"/>
      <point x="212" y="0" type="line"/>
      <point x="140" y="-21"/>
      <point x="80" y="-63"/>
      <point x="80" y="-131" type="curve" smooth="yes"/>
      <point x="80" y="-178"/>
      <point x="116" y="-205"/>
      <point x="186" y="-205" type="curve" smooth="yes"/>
      <point x="238" y="-205"/>
      <point x="272" y="-180"/>
      <point x="296" y="-153" type="curve"/>
    </contour>
  </outline>
</glyph>
<glyph name="ij" format="1">
  <advance width="758"/>
  <unicode hex="0133"/>
  <outline>
    <contour>
      <point x="246" y="562"/>
      <point x="288" y="589"/>
      <point x="288" y="646" type="curve" smooth="yes"/>
      <point x="288" y="703"/>
      <point x="246" y="730"/>
      <point x="185" y="730" type="curve" smooth="yes"/>
      <point x="124" y="730"/>
      <point x="82" y="703"/>
      <point x="82" y="646" type="curve" smooth="yes"/>
      <point x="82" y="589"/>
      <point x="124" y="562"/>
      <point x="185" y="562" type="curve" smooth="yes"/>
    </contour>
    <contour>
      <point x="344" y="0" type="line"/>
      <point x="344" y="18" type="line"/>
      <point x="309" y="26" type="line" smooth="yes"/>
      <point x="290" y="30"/>
      <point x="285" y="32"/>
      <point x="285" y="48" type="curve" smooth="yes"/>
      <point x="285" y="504" type="line"/>
      <point x="266" y="504" type="line"/>
      <point x="26" y="474" type="line"/>
      <point x="26" y="456" type="line"/>
      <point x="61" y="448" type="line" smooth="yes"/>
      <point x="80" y="444"/>
      <point x="85" y="442"/>
      <point x="85" y="426" type="curve" smooth="yes"/>
      <point x="85" y="48" type="line" smooth="yes"/>
      <point x="85" y="32"/>
      <point x="80" y="30"/>
      <point x="61" y="26" type="curve" smooth="yes"/>
      <point x="26" y="18" type="line"/>
      <point x="26" y="0" type="line"/>
    </contour>
    <contour>
      <point x="636" y="562"/>
      <point x="678" y="589"/>
      <point x="678" y="646" type="curve" smooth="yes"/>
      <point x="678" y="703"/>
      <point x="636" y="730"/>
      <point x="575" y="730" type="curve" smooth="yes"/>
      <point x="514" y="730"/>
      <point x="472" y="703"/>
      <point x="472" y="646" type="curve" smooth="yes"/>
      <point x="472" y="589"/>
      <point x="514" y="562"/>
      <point x="575" y="562" type="curve" smooth="yes"/>
    </contour>
    <contour>
      <point x="475" y="-102" type="line" smooth="yes"/>
      <point x="475" y="-188"/>
      <point x="456" y="-204"/>
      <point x="418" y="-204" type="curve" smooth="yes"/>
      <point x="385" y="-204"/>
      <point x="353" y="-189"/>
      <point x="330" y="-169" type="curve"/>
      <point x="317" y="-188" type="line"/>
      <point x="342" y="-211"/>
      <point x="391" y="-240"/>
      <point x="480" y="-240" type="curve" smooth="yes"/>
      <point x="628" y="-240"/>
      <point x="675" y="-168"/>
      <point x="675" y="-31" type="curve" smooth="yes"/>
      <point x="675" y="504" type="line"/>
      <point x="656" y="504" type="line"/>
      <point x="416" y="474" type="line"/>
      <point x="416" y="456" type="line"/>
      <point x="451" y="448" type="line" smooth="yes"/>
      <point x="470" y="444"/>
      <point x="475" y="442"/>
      <point x="475" y="426" type="curve" smooth="yes"/>
    </contour>
  </outline>
</glyph>
<glyph name="Jcircumflex" format="1">
  <advance width="622"/>
  <unicode hex="0134"/>
  <outline>
    <contour>
      <point x="168" y="15"/>
      <point x="128" y="46"/>
      <point x="101" y="206" type="curve"/>
      <point x="75" y="206" type="line"/>
      <point x="52" y="30" type="line"/>
      <point x="110" y="4"/>
      <point x="190" y="-12"/>
      <point x="245" y="-12" type="curve" smooth="yes"/>
      <point x="405" y="-12"/>
      <point x="539" y="46"/>
      <point x="539" y="226" type="curve" smooth="yes"/>
      <point x="539" y="650" type="line" smooth="yes"/>
      <point x="539" y="666"/>
      <point x="544" y="668"/>
      <point x="563" y="672" type="curve" smooth="yes"/>
      <point x="600" y="680" type="line"/>
      <point x="600" y="700" type="line"/>
      <point x="268" y="700" type="line"/>
      <point x="268" y="680" type="line"/>
      <point x="311" y="671" type="line" smooth="yes"/>
      <point x="330" y="667"/>
      <point x="335" y="665"/>
      <point x="335" y="649" type="curve" smooth="yes"/>
      <point x="335" y="206" type="line" smooth="yes"/>
      <point x="335" y="52"/>
      <point x="305" y="15"/>
      <point x="237" y="15" type="curve" smooth="yes"/>
    </contour>
    <contour>
      <point x="411" y="912" type="line"/>
      <point x="372" y="863"/>
      <point x="327" y="816"/>
      <point x="277" y="775" type="curve"/>
      <point x="288" y="760" type="line"/>
      <point x="338" y="777"/>
      <point x="387" y="800"/>
      <point x="437" y="829" type="curve"/>
      <point x="487" y="800"/>
      <point x="536" y="777"/>
      <point x="586" y="760" type="curve"/>
      <point x="597" y="775" type="line"/>
      <point x="548" y="816"/>
      <point x="502" y="863"/>
      <point x="463" y="912" type="curve"/>
    </contour>
  </outline>
</glyph>
<glyph name="jcircumflex" format="1">
  <advance width="388"/>
  <unicode hex="0135"/>
  <outline>
    <contour>
      <point x="105" y="-102" type="line" smooth="yes"/>
      <point x="105" y="-188"/>
      <point x="86" y="-204"/>
      <point x="48" y="-204" type="curve" smooth="yes"/>
      <point x="15" y="-204"/>
      <point x="-17" y="-189"/>
      <point x="-40" y="-169" type="curve"/>
      <point x="-53" y="-188" type="line"/>
      <point x="-28" y="-211"/>
      <point x="21" y="-240"/>
      <point x="110" y="-240" type="curve" smooth="yes"/>
      <point x="258" y="-240"/>
      <point x="305" y="-168"/>
      <point x="305" y="-31" type="curve" smooth="yes"/>
      <point x="305" y="504" type="line"/>
      <point x="286" y="504" type="line"/>
      <point x="46" y="474" type="line"/>
      <point x="46" y="456" type="line"/>
      <point x="81" y="448" type="line" smooth="yes"/>
      <point x="100" y="444"/>
      <point x="105" y="442"/>
      <point x="105" y="426" type="curve" smooth="yes"/>
    </contour>
    <contour>
      <point x="168" y="718" type="line"/>
      <point x="129" y="669"/>
      <point x="84" y="622"/>
      <point x="34" y="581" type="curve"/>
      <point x="45" y="566" type="line"/>
      <point x="95" y="583"/>
      <point x="144" y="606"/>
      <point x="194" y="635" type="curve"/>
      <point x="244" y="606"/>
      <point x="293" y="583"/>
      <point x="343" y="566" type="curve"/>
      <point x="354" y="581" type="line"/>
      <point x="305" y="622"/>
      <point x="259" y="669"/>
      <point x="220" y="718" type="curve"/>
    </contour>
  </outline>
</glyph>
<glyph name="Kcommaaccent" format="1">
  <advance width="788"/>
  <unicode hex="0136"/>
  <outline>
    <contour>
      <point x="661" y="652" type="line" smooth="yes"/>
      <point x="676" y="665"/>
      <point x="687" y="676"/>
      <point x="712" y="677" type="curve" smooth="yes"/>
      <point x="754" y="680" type="line"/>
      <point x="754" y="700" type="line"/>
      <point x="575" y="700" type="line"/>
      <point x="575" y="681" type="line"/>
      <point x="618" y="677" type="line" smooth="yes"/>
      <point x="631" y="676"/>
      <point x="634" y="665"/>
      <point x="621" y="653" type="curve" smooth="yes"/>
      <point x="291" y="367" type="line"/>
      <point x="291" y="651" type="line" smooth="yes"/>
      <point x="291" y="666"/>
      <point x="296" y="669"/>
      <point x="314" y="672" type="curve"/>
      <point x="350" y="680" type="line"/>
      <point x="350" y="700" type="line"/>
      <point x="26" y="700" type="line"/>
      <point x="26" y="680" type="line"/>
      <point x="63" y="672" type="line" smooth="yes"/>
      <point x="82" y="668"/>
      <point x="87" y="666"/>
      <point x="87" y="650" type="curve" smooth="yes"/>
      <point x="87" y="50" type="line" smooth="yes"/>
      <point x="87" y="34"/>
      <point x="82" y="32"/>
      <point x="63" y="28" type="curve" smooth="yes"/>
      <point x="26" y="20" type="line"/>
      <point x="26" y="0" type="line"/>
      <point x="350" y="0" type="line"/>
      <point x="350" y="20" type="line"/>
      <point x="314" y="28" type="line" smooth="yes"/>
      <point x="296" y="32"/>
      <point x="291" y="34"/>
      <point x="291" y="49" type="curve" smooth="yes"/>
      <point x="291" y="331" type="line"/>
      <point x="310" y="348" type="line"/>
      <point x="497" y="34" type="line"/>
      <point x="510" y="15"/>
      <point x="526" y="0"/>
      <point x="565" y="0" type="curve" smooth="yes"/>
      <point x="776" y="0" type="line"/>
      <point x="776" y="20" type="line"/>
      <point x="733" y="27" type="line"/>
      <point x="717" y="29"/>
      <point x="712" y="34"/>
      <point x="702" y="49" type="curve" smooth="yes"/>
      <point x="483" y="398" type="line" smooth="yes"/>
      <point x="465" y="425"/>
      <point x="450" y="439"/>
      <point x="427" y="449" type="curve"/>
    </contour>
    <contour>
      <point x="422" y="-251"/>
      <point x="409" y="-280"/>
      <point x="364" y="-326" type="curve"/>
      <point x="382" y="-343" type="line"/>
      <point x="444" y="-295"/>
      <point x="496" y="-220"/>
      <point x="496" y="-142" type="curve" smooth="yes"/>
      <point x="496" y="-86"/>
      <point x="462" y="-58"/>
      <point x="412" y="-58" type="curve" smooth="yes"/>
      <point x="360" y="-58"/>
      <point x="332" y="-93"/>
      <point x="332" y="-134" type="curve" smooth="yes"/>
      <point x="332" y="-176"/>
      <point x="359" y="-213"/>
      <point x="423" y="-206" type="curve"/>
    </contour>
  </outline>
</glyph>
<glyph name="kgreenlandic" format="1">
  <advance width="748"/>
  <unicode hex="0138"/>
  <outline>
    <contour>
      <point x="732" y="0" type="line"/>
      <point x="732" y="18" type="line"/>
      <point x="701" y="24" type="line" smooth="yes"/>
      <point x="687" y="27"/>
      <point x="681" y="31"/>
      <point x="669" y="46" type="curve" smooth="yes"/>
      <point x="558" y="192" type="line" smooth="yes"/>
      <point x="515" y="249"/>
      <point x="494" y="258"/>
      <point x="395" y="266" type="curve" smooth="yes"/>
      <point x="333" y="272" type="line"/>
      <point x="306" y="266" type="line"/>
      <point x="472" y="34" type="line" smooth="yes"/>
      <point x="485" y="15"/>
      <point x="501" y="0"/>
      <point x="540" y="0" type="curve" smooth="yes"/>
    </contour>
    <contour>
      <point x="482" y="333"/>
      <point x="454" y="276"/>
      <point x="341" y="276" type="curve" smooth="yes"/>
      <point x="276" y="276" type="line"/>
      <point x="276" y="250" type="line"/>
      <point x="382" y="250" type="line" smooth="yes"/>
      <point x="615" y="250"/>
      <point x="661" y="346"/>
      <point x="661" y="416" type="curve" smooth="yes"/>
      <point x="661" y="465"/>
      <point x="640" y="498"/>
      <point x="556" y="498" type="curve" smooth="yes"/>
      <point x="514" y="498"/>
      <point x="469" y="489"/>
      <point x="439" y="480" type="curve"/>
      <point x="439" y="462" type="line"/>
      <point x="450" y="461" type="line" smooth="yes"/>
      <point x="468" y="459"/>
      <point x="482" y="446"/>
      <point x="482" y="408" type="curve" smooth="yes"/>
    </contour>
    <contour>
      <point x="283" y="504" type="line"/>
      <point x="266" y="504" type="line"/>
      <point x="24" y="474" type="line"/>
      <point x="24" y="456" type="line"/>
      <point x="59" y="448" type="line" smooth="yes"/>
      <point x="78" y="444"/>
      <point x="83" y="442"/>
      <point x="83" y="426" type="curve" smooth="yes"/>
      <point x="83" y="48" type="line" smooth="yes"/>
      <point x="83" y="32"/>
      <point x="78" y="30"/>
      <point x="59" y="26" type="curve" smooth="yes"/>
      <point x="24" y="18" type="line"/>
      <point x="24" y="0" type="line"/>
      <point x="340" y="0" type="line"/>
      <point x="340" y="18" type="line"/>
      <point x="306" y="25" type="line" smooth="yes"/>
      <point x="287" y="29"/>
      <point x="283" y="33"/>
      <point x="283" y="48" type="curve" smooth="yes"/>
    </contour>
  </outline>
</glyph>
<glyph name="Lacute" format="1">
  <advance width="668"/>
  <unicode hex="0139"/>
  <outline>
    <contour>
      <point x="87" y="50" type="line" smooth="yes"/>
      <point x="87" y="34"/>
      <point x="82" y="32"/>
      <point x="63" y="28" type="curve" smooth="yes"/>
      <point x="26" y="20" type="line"/>
      <point x="26" y="0" type="line"/>
      <point x="630" y="0" type="line"/>
      <point x="630" y="199" type="line"/>
      <point x="602" y="199" type="line"/>
      <point x="563" y="87"/>
      <point x="540" y="30"/>
      <point x="417" y="30" type="curve" smooth="yes"/>
      <point x="291" y="30" type="line"/>
      <point x="291" y="649" type="line" smooth="yes"/>
      <point x="291" y="665"/>
      <point x="296" y="667"/>
      <point x="315" y="671" type="curve" smooth="yes"/>
      <point x="358" y="680" type="line"/>
      <point x="358" y="700" type="line"/>
      <point x="26" y="700" type="line"/>
      <point x="26" y="680" type="line"/>
      <point x="63" y="672" type="line" smooth="yes"/>
      <point x="82" y="668"/>
      <point x="87" y="666"/>
      <point x="87" y="650" type="curve" smooth="yes"/>
    </contour>
    <contour>
      <point x="350" y="867"/>
      <point x="273" y="813"/>
      <point x="218" y="771" type="curve"/>
      <point x="223" y="760" type="line"/>
      <point x="284" y="770"/>
      <point x="388" y="797"/>
      <point x="449" y="825" type="curve"/>
      <point x="448" y="863"/>
      <point x="423" y="898"/>
      <point x="393" y="912" type="curve"/>
    </contour>
  </outline>
</glyph>
<glyph name="lacute" format="1">
  <advance width="366"/>
  <unicode hex="013A"/>
  <outline>
    <contour>
      <point x="342" y="0" type="line"/>
      <point x="342" y="18" type="line"/>
      <point x="307" y="26" type="line" smooth="yes"/>
      <point x="288" y="30"/>
      <point x="283" y="32"/>
      <point x="283" y="48" type="curve" smooth="yes"/>
      <point x="283" y="730" type="line"/>
      <point x="264" y="730" type="line"/>
      <point x="24" y="700" type="line"/>
      <point x="24" y="682" type="line"/>
      <point x="59" y="674" type="line" smooth="yes"/>
      <point x="78" y="670"/>
      <point x="83" y="668"/>
      <point x="83" y="652" type="curve" smooth="yes"/>
      <point x="83" y="48" type="line" smooth="yes"/>
      <point x="83" y="32"/>
      <point x="78" y="30"/>
      <point x="59" y="26" type="curve" smooth="yes"/>
      <point x="24" y="18" type="line"/>
      <point x="24" y="0" type="line"/>
    </contour>
    <contour>
      <point x="269" y="887"/>
      <point x="192" y="833"/>
      <point x="137" y="791" type="curve"/>
      <point x="142" y="780" type="line"/>
      <point x="203" y="790"/>
      <point x="307" y="817"/>
      <point x="368" y="845" type="curve"/>
      <point x="367" y="883"/>
      <point x="342" y="918"/>
      <point x="312" y="932" type="curve"/>
    </contour>
  </outline>
</glyph>
<glyph name="Lcommaaccent" format="1">
  <advance width="668"/>
  <unicode hex="013B"/>
  <outline>
    <contour>
      <point x="87" y="50" type="line" smooth="yes"/>
      <point x="87" y="34"/>
      <point x="82" y="32"/>
      <point x="63" y="28" type="curve" smooth="yes"/>
      <point x="26" y="20" type="line"/>
      <point x="26" y="0" type="line"/>
      <point x="630" y="0" type="line"/>
      <point x="630" y="199" type="line"/>
      <point x="602" y="199" type="line"/>
      <point x="563" y="87"/>
      <point x="540" y="30"/>
      <point x="417" y="30" type="curve" smooth="yes"/>
      <point x="291" y="30" type="line"/>
      <point x="291" y="649" type="line" smooth="yes"/>
      <point x="291" y="665"/>
      <point x="296" y="667"/>
      <point x="315" y="671" type="curve" smooth="yes"/>
      <point x="358" y="680" type="line"/>
      <point x="358" y="700" type="line"/>
      <point x="26" y="700" type="line"/>
      <point x="26" y="680" type="line"/>
      <point x="63" y="672" type="line" smooth="yes"/>
      <point x="82" y="668"/>
      <point x="87" y="666"/>
      <point x="87" y="650" type="curve" smooth="yes"/>
    </contour>
    <contour>
      <point x="362" y="-251"/>
      <point x="349" y="-280"/>
      <point x="304" y="-326" type="curve"/>
      <point x="322" y="-343" type="line"/>
      <point x="384" y="-295"/>
      <point x="436" y="-220"/>
      <point x="436" y="-142" type="curve" smooth="yes"/>
      <point x="436" y="-86"/>
      <point x="402" y="-58"/>
      <point x="352" y="-58" type="curve" smooth="yes"/>
      <point x="300" y="-58"/>
      <point x="272" y="-93"/>
      <point x="272" y="-134" type="curve" smooth="yes"/>
      <point x="272" y="-176"/>
      <point x="299" y="-213"/>
      <point x="363" y="-206" type="curve"/>
    </contour>
  </outline>
</glyph>
<glyph name="lcaron" format="1">
  <advance width="556"/>
  <unicode hex="013E"/>
  <outline>
    <contour>
      <point x="342" y="0" type="line"/>
      <point x="342" y="18" type="line"/>
      <point x="307" y="26" type="line" smooth="yes"/>
      <point x="288" y="30"/>
      <point x="283" y="32"/>
      <point x="283" y="48" type="curve" smooth="yes"/>
      <point x="283" y="730" type="line"/>
      <point x="264" y="730" type="line"/>
      <point x="24" y="700" type="line"/>
      <point x="24" y="682" type="line"/>
      <point x="59" y="674" type="line" smooth="yes"/>
      <point x="78" y="670"/>
      <point x="83" y="668"/>
      <point x="83" y="652" type="curve" smooth="yes"/>
      <point x="83" y="48" type="line" smooth="yes"/>
      <point x="83" y="32"/>
      <point x="78" y="30"/>
      <point x="59" y="26" type="curve" smooth="yes"/>
      <point x="24" y="18" type="line"/>
      <point x="24" y="0" type="line"/>
    </contour>
    <contour>
      <point x="456" y="515"/>
      <point x="443" y="486"/>
      <point x="398" y="440" type="curve"/>
      <point x="416" y="423" type="line"/>
      <point x="478" y="471"/>
      <point x="530" y="546"/>
      <point x="530" y="624" type="curve" smooth="yes"/>
      <point x="530" y="680"/>
      <point x="496" y="708"/>
      <point x="446" y="708" type="curve" smooth="yes"/>
      <point x="394" y="708"/>
      <point x="366" y="673"/>
      <point x="366" y="632" type="curve" smooth="yes"/>
      <point x="366" y="590"/>
      <point x="393" y="553"/>
      <point x="457" y="560" type="curve"/>
    </contour>
  </outline>
</glyph>
<glyph name="Nacute" format="1">
  <advance width="744"/>
  <unicode hex="0143"/>
  <outline>
    <contour>
      <point x="87" y="50" type="line" smooth="yes"/>
      <point x="87" y="34"/>
      <point x="82" y="32"/>
      <point x="63" y="28" type="curve" smooth="yes"/>
      <point x="26" y="20" type="line"/>
      <point x="26" y="0" type="line"/>
      <point x="178" y="0" type="line"/>
      <point x="178" y="20" type="line"/>
      <point x="142" y="28" type="line" smooth="yes"/>
      <point x="124" y="32"/>
      <point x="119" y="34"/>
      <point x="119" y="49" type="curve" smooth="yes"/>
      <point x="119" y="635" type="line"/>
      <point x="621" y="0" type="line"/>
      <point x="657" y="0" type="line"/>
      <point x="657" y="650" type="line" smooth="yes"/>
      <point x="657" y="666"/>
      <point x="662" y="668"/>
      <point x="681" y="672" type="curve" smooth="yes"/>
      <point x="718" y="680" type="line"/>
      <point x="718" y="700" type="line"/>
      <point x="566" y="700" type="line"/>
      <point x="566" y="680" type="line"/>
      <point x="602" y="672" type="line" smooth="yes"/>
      <point x="620" y="668"/>
      <point x="625" y="666"/>
      <point x="625" y="651" type="curve" smooth="yes"/>
      <point x="625" y="294" type="line"/>
      <point x="303" y="700" type="line"/>
      <point x="26" y="700" type="line"/>
      <point x="26" y="680" type="line"/>
      <point x="63" y="672" type="line" smooth="yes"/>
      <point x="82" y="668"/>
      <point x="87" y="666"/>
      <point x="87" y="650" type="curve" smooth="yes"/>
    </contour>
    <contour>
      <point x="448" y="887"/>
      <point x="371" y="833"/>
      <point x="316" y="791" type="curve"/>
      <point x="321" y="780" type="line"/>
      <point x="382" y="790"/>
      <point x="486" y="817"/>
      <point x="547" y="845" type="curve"/>
      <point x="546" y="883"/>
      <point x="521" y="918"/>
      <point x="491" y="932" type="curve"/>
    </contour>
  </outline>
</glyph>
<glyph name="Ncommaaccent" format="1">
  <advance width="744"/>
  <unicode hex="0145"/>
  <outline>
    <contour>
      <point x="87" y="50" type="line" smooth="yes"/>
      <point x="87" y="34"/>
      <point x="82" y="32"/>
      <point x="63" y="28" type="curve" smooth="yes"/>
      <point x="26" y="20" type="line"/>
      <point x="26" y="0" type="line"/>
      <point x="178" y="0" type="line"/>
      <point x="178" y="20" type="line"/>
      <point x="142" y="28" type="line" smooth="yes"/>
      <point x="124" y="32"/>
      <point x="119" y="34"/>
      <point x="119" y="49" type="curve" smooth="yes"/>
      <point x="119" y="635" type="line"/>
      <point x="621" y="0" type="line"/>
      <point x="657" y="0" type="line"/>
      <point x="657" y="650" type="line" smooth="yes"/>
      <point x="657" y="666"/>
      <point x="662" y="668"/>
      <point x="681" y="672" type="curve" smooth="yes"/>
      <point x="718" y="680" type="line"/>
      <point x="718" y="700" type="line"/>
      <point x="566" y="700" type="line"/>
      <point x="566" y="680" type="line"/>
      <point x="602" y="672" type="line" smooth="yes"/>
      <point x="620" y="668"/>
      <point x="625" y="666"/>
      <point x="625" y="651" type="curve" smooth="yes"/>
      <point x="625" y="294" type="line"/>
      <point x="303" y="700" type="line"/>
      <point x="26" y="700" type="line"/>
      <point x="26" y="680" type="line"/>
      <point x="63" y="672" type="line" smooth="yes"/>
      <point x="82" y="668"/>
      <point x="87" y="666"/>
      <point x="87" y="650" type="curve" smooth="yes"/>
    </contour>
    <contour>
      <point x="388" y="-251"/>
      <point x="375" y="-280"/>
      <point x="330" y="-326" type="curve"/>
      <point x="348" y="-343" type="line"/>
      <point x="410" y="-295"/>
      <point x="462" y="-220"/>
      <point x="462" y="-142" type="curve" smooth="yes"/>
      <point x="462" y="-86"/>
      <point x="428" y="-58"/>
      <point x="378" y="-58" type="curve" smooth="yes"/>
      <point x="326" y="-58"/>
      <point x="298" y="-93"/>
      <point x="298" y="-134" type="curve" smooth="yes"/>
      <point x="298" y="-176"/>
      <point x="325" y="-213"/>
      <point x="389" y="-206" type="curve"/>
    </contour>
  </outline>
</glyph>
<glyph name="ncommaaccent" format="1">
  <advance width="750"/>
  <unicode hex="0146"/>
  <outline>
    <contour>
      <point x="669" y="342" type="line" smooth="yes"/>
      <point x="669" y="441"/>
      <point x="625" y="498"/>
      <point x="496" y="498" type="curve" smooth="yes"/>
      <point x="397" y="498"/>
      <point x="323" y="457"/>
      <point x="281" y="423" type="curve"/>
      <point x="281" y="504" type="line"/>
      <point x="264" y="504" type="line"/>
      <point x="24" y="474" type="line"/>
      <point x="24" y="456" type="line"/>
      <point x="59" y="448" type="line" smooth="yes"/>
      <point x="78" y="444"/>
      <point x="83" y="442"/>
      <point x="83" y="426" type="curve" smooth="yes"/>
      <point x="83" y="48" type="line" smooth="yes"/>
      <point x="83" y="32"/>
      <point x="78" y="30"/>
      <point x="59" y="26" type="curve" smooth="yes"/>
      <point x="24" y="18" type="line"/>
      <point x="24" y="0" type="line"/>
      <point x="340" y="0" type="line"/>
      <point x="340" y="18" type="line"/>
      <point x="306" y="25" type="line" smooth="yes"/>
      <point x="287" y="29"/>
      <point x="283" y="33"/>
      <point x="283" y="48" type="curve" smooth="yes"/>
      <point x="283" y="393" type="line"/>
      <point x="317" y="420"/>
      <point x="361" y="443"/>
      <point x="406" y="443" type="curve" smooth="yes"/>
      <point x="452" y="443"/>
      <point x="469" y="420"/>
      <point x="469" y="360" type="curve" smooth="yes"/>
      <point x="469" y="56" type="line" smooth="yes"/>
      <point x="469" y="20"/>
      <point x="483" y="0"/>
      <point x="520" y="0" type="curve" smooth="yes"/>
      <point x="728" y="0" type="line"/>
      <point x="728" y="18" type="line"/>
      <point x="693" y="26" type="line" smooth="yes"/>
      <point x="674" y="30"/>
      <point x="669" y="32"/>
      <point x="669" y="48" type="curve" smooth="yes"/>
    </contour>
    <contour>
      <point x="393" y="-251"/>
      <point x="380" y="-280"/>
      <point x="335" y="-326" type="curve"/>
      <point x="353" y="-343" type="line"/>
      <point x="415" y="-295"/>
      <point x="467" y="-220"/>
      <point x="467" y="-142" type="curve" smooth="yes"/>
      <point x="467" y="-86"/>
      <point x="433" y="-58"/>
      <point x="383" y="-58" type="curve" smooth="yes"/>
      <point x="331" y="-58"/>
      <point x="303" y="-93"/>
      <point x="303" y="-134" type="curve" smooth="yes"/>
      <point x="303" y="-176"/>
      <point x="330" y="-213"/>
      <point x="394" y="-206" type="curve"/>
    </contour>
  </outline>
</glyph>
<glyph name="napostrophe" format="1">
  <advance width="940"/>
  <unicode hex="0149"/>
  <outline>
    <contour>
      <point x="859" y="342" type="line" smooth="yes"/>
      <point x="859" y="441"/>
      <point x="815" y="498"/>
      <point x="686" y="498" type="curve" smooth="yes"/>
      <point x="587" y="498"/>
      <point x="513" y="457"/>
      <point x="471" y="423" type="curve"/>
      <point x="471" y="504" type="line"/>
      <point x="454" y="504" type="line"/>
      <point x="214" y="474" type="line"/>
      <point x="214" y="456" type="line"/>
      <point x="249" y="448" type="line" smooth="yes"/>
      <point x="268" y="444"/>
      <point x="273" y="442"/>
      <point x="273" y="426" type="curve" smooth="yes"/>
      <point x="273" y="48" type="line" smooth="yes"/>
      <point x="273" y="32"/>
      <point x="268" y="30"/>
      <point x="249" y="26" type="curve" smooth="yes"/>
      <point x="214" y="18" type="line"/>
      <point x="214" y="0" type="line"/>
      <point x="530" y="0" type="line"/>
      <point x="530" y="18" type="line"/>
      <point x="496" y="25" type="line" smooth="yes"/>
      <point x="477" y="29"/>
      <point x="473" y="33"/>
      <point x="473" y="48" type="curve" smooth="yes"/>
      <point x="473" y="393" type="line"/>
      <point x="507" y="420"/>
      <point x="551" y="443"/>
      <point x="596" y="443" type="curve" smooth="yes"/>
      <point x="642" y="443"/>
      <point x="659" y="420"/>
      <point x="659" y="360" type="curve" smooth="yes"/>
      <point x="659" y="56" type="line" smooth="yes"/>
      <point x="659" y="20"/>
      <point x="673" y="0"/>
      <point x="710" y="0" type="curve" smooth="yes"/>
      <point x="918" y="0" type="line"/>
      <point x="918" y="18" type="line"/>
      <point x="883" y="26" type="line" smooth="yes"/>
      <point x="864" y="30"/>
      <point x="859" y="32"/>
      <point x="859" y="48" type="curve" smooth="yes"/>
    </contour>
    <contour>
      <point x="90" y="515"/>
      <point x="77" y="486"/>
      <point x="32" y="440" type="curve"/>
      <point x="50" y="423" type="line"/>
      <point x="112" y="471"/>
      <point x="164" y="546"/>
      <point x="164" y="624" type="curve" smooth="yes"/>
      <point x="164" y="680"/>
      <point x="130" y="708"/>
      <point x="80" y="708" type="curve" smooth="yes"/>
      <point x="28" y="708"/>
      <point x="0" y="673"/>
      <point x="0" y="632" type="curve" smooth="yes"/>
      <point x="0" y="590"/>
      <point x="27" y="553"/>
      <point x="91" y="560" type="curve"/>
    </contour>
  </outline>
</glyph>
<glyph name="Racute" format="1">
  <advance width="796"/>
  <unicode hex="0154"/>
  <outline>
    <contour>
      <point x="460" y="156" type="line" smooth="yes"/>
      <point x="482" y="24"/>
      <point x="527" y="-10"/>
      <point x="651" y="-10" type="curve" smooth="yes"/>
      <point x="747" y="-10"/>
      <point x="772" y="25"/>
      <point x="786" y="55" type="curve"/>
      <point x="765" y="73" type="line"/>
      <point x="755" y="51"/>
      <point x="742" y="36"/>
      <point x="723" y="36" type="curve" smooth="yes"/>
      <point x="695" y="36"/>
      <point x="693" y="57"/>
      <point x="681" y="125" type="curve" smooth="yes"/>
      <point x="670" y="185" type="line" smooth="yes"/>
      <point x="649" y="298"/>
      <point x="604" y="334"/>
      <point x="489" y="341" type="curve"/>
      <point x="627" y="361"/>
      <point x="684" y="413"/>
      <point x="684" y="516" type="curve" smooth="yes"/>
      <point x="684" y="653"/>
      <point x="583" y="700"/>
      <point x="320" y="700" type="curve" smooth="yes"/>
      <point x="26" y="700" type="line"/>
      <point x="26" y="680" type="line"/>
      <point x="63" y="672" type="line" smooth="yes"/>
      <point x="82" y="668"/>
      <point x="87" y="666"/>
      <point x="87" y="650" type="curve" smooth="yes"/>
      <point x="87" y="50" type="line" smooth="yes"/>
      <point x="87" y="34"/>
      <point x="82" y="32"/>
      <point x="63" y="28" type="curve" smooth="yes"/>
      <point x="26" y="20" type="line"/>
      <point x="26" y="0" type="line"/>
      <point x="358" y="0" type="line"/>
      <point x="358" y="20" type="line"/>
      <point x="315" y="29" type="line" smooth="yes"/>
      <point x="296" y="33"/>
      <point x="291" y="35"/>
      <point x="291" y="51" type="curve" smooth="yes"/>
      <point x="291" y="332" type="line"/>
      <point x="320" y="332" type="line" smooth="yes"/>
      <point x="420" y="332"/>
      <point x="432" y="323"/>
      <point x="448" y="231" type="curve" smooth="yes"/>
    </contour>
    <contour>
      <point x="329" y="670" type="line" smooth="yes"/>
      <point x="446" y="670"/>
      <point x="474" y="622"/>
      <point x="474" y="516" type="curve" smooth="yes"/>
      <point x="474" y="410"/>
      <point x="446" y="362"/>
      <point x="329" y="362" type="curve" smooth="yes"/>
      <point x="291" y="362" type="line"/>
      <point x="291" y="670" type="line"/>
    </contour>
    <contour>
      <point x="454" y="867"/>
      <point x="377" y="813"/>
      <point x="322" y="771" type="curve"/>
      <point x="327" y="760" type="line"/>
      <point x="388" y="770"/>
      <point x="492" y="797"/>
      <point x="553" y="825" type="curve"/>
      <point x="552" y="863"/>
      <point x="527" y="898"/>
      <point x="497" y="912" type="curve"/>
    </contour>
  </outline>
</glyph>
<glyph name="racute" format="1">
  <advance width="540"/>
  <unicode hex="0155"/>
  <outline>
    <contour>
      <point x="281" y="504" type="line"/>
      <point x="264" y="504" type="line"/>
      <point x="24" y="474" type="line"/>
      <point x="24" y="456" type="line"/>
      <point x="59" y="448" type="line" smooth="yes"/>
      <point x="78" y="444"/>
      <point x="83" y="442"/>
      <point x="83" y="426" type="curve" smooth="yes"/>
      <point x="83" y="48" type="line" smooth="yes"/>
      <point x="83" y="32"/>
      <point x="78" y="30"/>
      <point x="59" y="26" type="curve" smooth="yes"/>
      <point x="24" y="18" type="line"/>
      <point x="24" y="0" type="line"/>
      <point x="340" y="0" type="line"/>
      <point x="340" y="18" type="line"/>
      <point x="306" y="25" type="line" smooth="yes"/>
      <point x="287" y="29"/>
      <point x="283" y="33"/>
      <point x="283" y="48" type="curve" smooth="yes"/>
      <point x="283" y="376" type="line"/>
      <point x="488" y="331" type="line"/>
      <point x="495" y="331" type="line"/>
      <point x="510" y="487" type="line"/>
      <point x="498" y="492"/>
      <point x="479" y="495"/>
      <point x="458" y="495" type="curve" smooth="yes"/>
      <point x="381" y="495"/>
      <point x="322" y="448"/>
      <point x="281" y="406" type="curve"/>
    </contour>
    <contour>
      <point x="296" y="673"/>
      <point x="219" y="619"/>
      <point x="164" y="577" type="curve"/>
      <point x="169" y="566" type="line"/>
      <point x="230" y="576"/>
      <point x="334" y="603"/>
      <point x="395" y="631" type="curve"/>
      <point x="394" y="669"/>
      <point x="369" y="704"/>
      <point x="339" y="718" type="curve"/>
    </contour>
  </outline>
</glyph>
<glyph name="sacute" format="1">
  <advance width="556"/>
  <unicode hex="015B"/>
  <outline>
    <contour>
      <point x="172" y="12"/>
      <point x="109" y="54"/>
      <point x="84" y="162" type="curve"/>
      <point x="67" y="162" type="line"/>
      <point x="53" y="26" type="line"/>
      <point x="96" y="6"/>
      <point x="197" y="-12"/>
      <point x="280" y="-12" type="curve" smooth="yes"/>
      <point x="429" y="-12"/>
      <point x="510" y="27"/>
      <point x="510" y="130" type="curve" smooth="yes"/>
      <point x="510" y="226"/>
      <point x="452" y="260"/>
      <point x="304" y="320" type="curve" smooth="yes"/>
      <point x="207" y="359"/>
      <point x="175" y="372"/>
      <point x="175" y="418" type="curve" smooth="yes"/>
      <point x="175" y="465"/>
      <point x="216" y="476"/>
      <point x="271" y="476" type="curve" smooth="yes"/>
      <point x="376" y="476"/>
      <point x="415" y="416"/>
      <point x="446" y="340" type="curve"/>
      <point x="463" y="340" type="line"/>
      <point x="475" y="460" type="line"/>
      <point x="438" y="478"/>
      <point x="357" y="498"/>
      <point x="274" y="498" type="curve" smooth="yes"/>
      <point x="123" y="498"/>
      <point x="48" y="451"/>
      <point x="48" y="350" type="curve" smooth="yes"/>
      <point x="48" y="258"/>
      <point x="106" y="218"/>
      <point x="227" y="174" type="curve" smooth="yes"/>
      <point x="327" y="138"/>
      <point x="360" y="124"/>
      <point x="360" y="75" type="curve" smooth="yes"/>
      <point x="360" y="26"/>
      <point x="327" y="12"/>
      <point x="268" y="12" type="curve" smooth="yes"/>
    </contour>
    <contour>
      <point x="344" y="673"/>
      <point x="267" y="619"/>
      <point x="212" y="577" type="curve"/>
      <point x="217" y="566" type="line"/>
      <point x="278" y="576"/>
      <point x="382" y="603"/>
      <point x="443" y="631" type="curve"/>
      <point x="442" y="669"/>
      <point x="417" y="704"/>
      <point x="387" y="718" type="curve"/>
    </contour>
  </outline>
</glyph>
<glyph name="Scedilla" format="1">
  <advance width="678"/>
  <unicode hex="015E"/>
  <outline>
    <contour>
      <point x="280" y="-76" type="line"/>
      <point x="327" y="-84"/>
      <point x="363" y="-99"/>
      <point x="363" y="-141" type="curve" smooth="yes"/>
      <point x="363" y="-172"/>
      <point x="345" y="-183"/>
      <point x="307" y="-183" type="curve" smooth="yes"/>
      <point x="277" y="-183"/>
      <point x="255" y="-178"/>
      <point x="238" y="-170" type="curve"/>
      <point x="231" y="-188" type="line"/>
      <point x="252" y="-199"/>
      <point x="292" y="-208"/>
      <point x="326" y="-208" type="curve" smooth="yes"/>
      <point x="390" y="-208"/>
      <point x="447" y="-182"/>
      <point x="447" y="-123" type="curve" smooth="yes"/>
      <point x="447" y="-67"/>
      <point x="393" y="-40"/>
      <point x="309" y="-36" type="curve"/>
      <point x="311" y="-12" type="line"/>
      <point x="320" y="-12" type="line" smooth="yes"/>
      <point x="533" y="-12"/>
      <point x="624" y="58"/>
      <point x="624" y="186" type="curve" smooth="yes"/>
      <point x="624" y="323"/>
      <point x="540" y="363"/>
      <point x="390" y="436" type="curve" smooth="yes"/>
      <point x="250" y="503"/>
      <point x="200" y="523"/>
      <point x="200" y="599" type="curve" smooth="yes"/>
      <point x="200" y="664"/>
      <point x="256" y="685"/>
      <point x="332" y="685" type="curve" smooth="yes"/>
      <point x="452" y="685"/>
      <point x="486" y="622"/>
      <point x="520" y="513" type="curve"/>
      <point x="547" y="513" type="line"/>
      <point x="571" y="666" type="line"/>
      <point x="520" y="690"/>
      <point x="433" y="712"/>
      <point x="340" y="712" type="curve" smooth="yes"/>
      <point x="138" y="712"/>
      <point x="56" y="643"/>
      <point x="56" y="519" type="curve" smooth="yes"/>
      <point x="56" y="378"/>
      <point x="144" y="333"/>
      <point x="285" y="271" type="curve" smooth="yes"/>
      <point x="405" y="218"/>
      <point x="452" y="189"/>
      <point x="452" y="112" type="curve" smooth="yes"/>
      <point x="452" y="48"/>
      <point x="400" y="15"/>
      <point x="315" y="15" type="curve" smooth="yes"/>
      <point x="208" y="15"/>
      <point x="142" y="52"/>
      <point x="115" y="212" type="curve"/>
      <point x="89" y="212" type="line"/>
      <point x="62" y="36" type="line"/>
      <point x="113" y="11"/>
      <point x="211" y="-7"/>
      <point x="289" y="-11" type="curve"/>
    </contour>
  </outline>
</glyph>
<glyph name="scaron" format="1">
  <advance width="556"/>
  <unicode hex="0161"/>
  <outline>
    <contour>
      <point x="172" y="12"/>
      <point x="109" y="54"/>
      <point x="84" y="162" type="curve"/>
      <point x="67" y="162" type="line"/>
      <point x="53" y="26" type="line"/>
      <point x="96" y="6"/>
      <point x="197" y="-12"/>
      <point x="280" y="-12" type="curve" smooth="yes"/>
      <point x="429" y="-12"/>
      <point x="510" y="27"/>
      <point x="510" y="130" type="curve" smooth="yes"/>
      <point x="510" y="226"/>
      <point x="452" y="260"/>
      <point x="304" y="320" type="curve" smooth="yes"/>
      <point x="207" y="359"/>
      <point x="175" y="372"/>
      <point x="175" y="418" type="curve" smooth="yes"/>
      <point x="175" y="465"/>
      <point x="216" y="476"/>
      <point x="271" y="476" type="curve" smooth="yes"/>
      <point x="376" y="476"/>
      <point x="415" y="416"/>
      <point x="446" y="340" type="curve"/>
      <point x="463" y="340" type="line"/>
      <point x="475" y="460" type="line"/>
      <point x="438" y="478"/>
      <point x="357" y="498"/>
      <point x="274" y="498" type="curve" smooth="yes"/>
      <point x="123" y="498"/>
      <point x="48" y="451"/>
      <point x="48" y="350" type="curve" smooth="yes"/>
      <point x="48" y="258"/>
      <point x="106" y="218"/>
      <point x="227" y="174" type="curve" smooth="yes"/>
      <point x="327" y="138"/>
      <point x="360" y="124"/>
      <point x="360" y="75" type="curve" smooth="yes"/>
      <point x="360" y="26"/>
      <point x="327" y="12"/>
      <point x="268" y="12" type="curve" smooth="yes"/>
    </contour>
    <contour>
      <point x="294" y="566" type="line"/>
      <point x="333" y="615"/>
      <point x="379" y="662"/>
      <point x="428" y="703" type="curve"/>
      <point x="417" y="718" type="line"/>
      <point x="367" y="701"/>
      <point x="318" y="678"/>
      <point x="268" y="649" type="curve"/>
      <point x="218" y="678"/>
      <point x="169" y="701"/>
      <point x="119" y="718" type="curve"/>
      <point x="108" y="703" type="line"/>
      <point x="158" y="662"/>
      <point x="203" y="615"/>
      <point x="242" y="566" type="curve"/>
    </contour>
  </outline>
</glyph>
<glyph name="Tcaron" format="1">
  <advance width="724"/>
  <unicode hex="0164"/>
  <outline>
    <contour>
      <point x="464" y="672" type="line"/>
      <point x="487" y="672" type="line" smooth="yes"/>
      <point x="615" y="672"/>
      <point x="636" y="604"/>
      <point x="676" y="498" type="curve"/>
      <point x="698" y="498" type="line"/>
      <point x="698" y="700" type="line"/>
      <point x="26" y="700" type="line"/>
      <point x="26" y="498" type="line"/>
      <point x="48" y="498" type="line"/>
      <point x="88" y="604"/>
      <point x="109" y="672"/>
      <point x="237" y="672" type="curve" smooth="yes"/>
      <point x="260" y="672" type="line"/>
      <point x="260" y="50" type="line" smooth="yes"/>
      <point x="260" y="34"/>
      <point x="255" y="32"/>
      <point x="236" y="28" type="curve" smooth="yes"/>
      <point x="199" y="20" type="line"/>
      <point x="199" y="0" type="line"/>
      <point x="525" y="0" type="line"/>
      <point x="525" y="20" type="line"/>
      <point x="488" y="28" type="line" smooth="yes"/>
      <point x="469" y="32"/>
      <point x="464" y="34"/>
      <point x="464" y="50" type="curve" smooth="yes"/>
    </contour>
    <contour>
      <point x="388" y="780" type="line"/>
      <point x="427" y="829"/>
      <point x="473" y="876"/>
      <point x="522" y="917" type="curve"/>
      <point x="511" y="932" type="line"/>
      <point x="461" y="915"/>
      <point x="412" y="892"/>
      <point x="362" y="863" type="curve"/>
      <point x="312" y="892"/>
      <point x="263" y="915"/>
      <point x="213" y="932" type="curve"/>
      <point x="202" y="917" type="line"/>
      <point x="252" y="876"/>
      <point x="297" y="829"/>
      <point x="336" y="780" type="curve"/>
    </contour>
  </outline>
</glyph>
<glyph name="tcaron" format="1">
  <advance width="636"/>
  <unicode hex="0165"/>
  <outline>
    <contour>
      <point x="87" y="132" type="line" smooth="yes"/>
      <point x="87" y="34"/>
      <point x="130" y="-13"/>
      <point x="246" y="-12" type="curve" smooth="yes"/>
      <point x="331" y="-11"/>
      <point x="389" y="16"/>
      <point x="428" y="58" type="curve"/>
      <point x="412" y="77" type="line"/>
      <point x="385" y="48"/>
      <point x="365" y="37"/>
      <point x="336" y="37" type="curve" smooth="yes"/>
      <point x="298" y="37"/>
      <point x="285" y="61"/>
      <point x="285" y="124" type="curve" smooth="yes"/>
      <point x="285" y="460" type="line"/>
      <point x="414" y="460" type="line"/>
      <point x="414" y="486" type="line"/>
      <point x="285" y="486" type="line"/>
      <point x="285" y="669" type="line"/>
      <point x="276" y="669" type="line"/>
      <point x="98" y="509" type="line" smooth="yes"/>
      <point x="79" y="492"/>
      <point x="64" y="486"/>
      <point x="22" y="486" type="curve"/>
      <point x="22" y="460" type="line"/>
      <point x="87" y="460" type="line"/>
    </contour>
    <contour>
      <point x="536" y="515"/>
      <point x="523" y="486"/>
      <point x="478" y="440" type="curve"/>
      <point x="496" y="423" type="line"/>
      <point x="558" y="471"/>
      <point x="610" y="546"/>
      <point x="610" y="624" type="curve" smooth="yes"/>
      <point x="610" y="680"/>
      <point x="576" y="708"/>
      <point x="526" y="708" type="curve" smooth="yes"/>
      <point x="474" y="708"/>
      <point x="446" y="673"/>
      <point x="446" y="632" type="curve" smooth="yes"/>
      <point x="446" y="590"/>
      <point x="473" y="553"/>
      <point x="537" y="560" type="curve"/>
    </contour>
  </outline>
</glyph>
<glyph name="tbar" format="1">
  <advance width="446"/>
  <unicode hex="0167"/>
  <outline>
    <contour>
      <point x="22" y="284" type="line"/>
      <point x="87" y="284" type="line"/>
      <point x="87" y="132" type="line" smooth="yes"/>
      <point x="87" y="34"/>
      <point x="130" y="-13"/>
      <point x="246" y="-12" type="curve" smooth="yes"/>
      <point x="331" y="-11"/>
      <point x="389" y="16"/>
      <point x="428" y="58" type="curve"/>
      <point x="412" y="77" type="line"/>
      <point x="385" y="48"/>
      <point x="365" y="37"/>
      <point x="336" y="37" type="curve" smooth="yes"/>
      <point x="298" y="37"/>
      <point x="285" y="61"/>
      <point x="285" y="124" type="curve" smooth="yes"/>
      <point x="285" y="284" type="line"/>
      <point x="392" y="284" type="line"/>
      <point x="392" y="308" type="line"/>
      <point x="285" y="308" type="line"/>
      <point x="285" y="460" type="line"/>
      <point x="414" y="460" type="line"/>
      <point x="414" y="486" type="line"/>
      <point x="285" y="486" type="line"/>
      <point x="285" y="669" type="line"/>
      <point x="276" y="669" type="line"/>
      <point x="98" y="509" type="line" smooth="yes"/>
      <point x="79" y="492"/>
      <point x="64" y="486"/>
      <point x="22" y="486" type="curve"/>
      <point x="22" y="460" type="line"/>
      <point x="87" y="460" type="line"/>
      <point x="87" y="308" type="line"/>
      <point x="22" y="308" type="line"/>
    </contour>
  </outline>
</glyph>
<glyph name="ubreve" format="1">
  <advance width="746"/>
  <unicode hex="016D"/>
  <outline>
    <contour>
      <point x="463" y="93" type="line"/>
      <point x="430" y="66"/>
      <point x="387" y="43"/>
      <point x="342" y="43" type="curve" smooth="yes"/>
      <point x="296" y="43"/>
      <point x="279" y="66"/>
      <point x="279" y="126" type="curve" smooth="yes"/>
      <point x="279" y="504" type="line"/>
      <point x="262" y="504" type="line"/>
      <point x="20" y="474" type="line"/>
      <point x="20" y="456" type="line"/>
      <point x="55" y="448" type="line" smooth="yes"/>
      <point x="74" y="444"/>
      <point x="79" y="442"/>
      <point x="79" y="426" type="curve" smooth="yes"/>
      <point x="79" y="144" type="line" smooth="yes"/>
      <point x="79" y="45"/>
      <point x="123" y="-12"/>
      <point x="252" y="-12" type="curve" smooth="yes"/>
      <point x="351" y="-12"/>
      <point x="425" y="29"/>
      <point x="465" y="63" type="curve"/>
      <point x="465" y="52" type="line" smooth="yes"/>
      <point x="465" y="16"/>
      <point x="479" y="0"/>
      <point x="519" y="0" type="curve" smooth="yes"/>
      <point x="722" y="0" type="line"/>
      <point x="722" y="18" type="line"/>
      <point x="687" y="26" type="line" smooth="yes"/>
      <point x="668" y="30"/>
      <point x="663" y="32"/>
      <point x="663" y="48" type="curve" smooth="yes"/>
      <point x="663" y="504" type="line"/>
      <point x="646" y="504" type="line"/>
      <point x="404" y="474" type="line"/>
      <point x="404" y="456" type="line"/>
      <point x="439" y="448" type="line" smooth="yes"/>
      <point x="458" y="444"/>
      <point x="463" y="442"/>
      <point x="463" y="426" type="curve" smooth="yes"/>
    </contour>
    <contour>
      <point x="466" y="566"/>
      <point x="509" y="626"/>
      <point x="511" y="719" type="curve"/>
      <point x="491" y="719" type="line"/>
      <point x="478" y="668"/>
      <point x="452" y="643"/>
      <point x="373" y="643" type="curve" smooth="yes"/>
      <point x="294" y="643"/>
      <point x="268" y="668"/>
      <point x="255" y="719" type="curve"/>
      <point x="235" y="719" type="line"/>
      <point x="237" y="626"/>
      <point x="280" y="566"/>
      <point x="373" y="566" type="curve" smooth="yes"/>
    </contour>
  </outline>
</glyph>
<glyph name="Uhungarumlaut" format="1">
  <advance width="754"/>
  <unicode hex="0170"/>
  <outline>
    <contour>
      <point x="675" y="651" type="line" smooth="yes"/>
      <point x="675" y="666"/>
      <point x="680" y="668"/>
      <point x="698" y="672" type="curve" smooth="yes"/>
      <point x="734" y="680" type="line"/>
      <point x="734" y="700" type="line"/>
      <point x="582" y="700" type="line"/>
      <point x="582" y="680" type="line"/>
      <point x="619" y="672" type="line" smooth="yes"/>
      <point x="638" y="668"/>
      <point x="643" y="666"/>
      <point x="643" y="650" type="curve" smooth="yes"/>
      <point x="643" y="252" type="line" smooth="yes"/>
      <point x="643" y="117"/>
      <point x="576" y="22"/>
      <point x="445" y="22" type="curve" smooth="yes"/>
      <point x="309" y="22"/>
      <point x="285" y="88"/>
      <point x="285" y="246" type="curve" smooth="yes"/>
      <point x="285" y="651" type="line" smooth="yes"/>
      <point x="285" y="666"/>
      <point x="290" y="668"/>
      <point x="308" y="672" type="curve" smooth="yes"/>
      <point x="344" y="680" type="line"/>
      <point x="344" y="700" type="line"/>
      <point x="20" y="700" type="line"/>
      <point x="20" y="680" type="line"/>
      <point x="57" y="672" type="line" smooth="yes"/>
      <point x="76" y="668"/>
      <point x="81" y="666"/>
      <point x="81" y="650" type="curve" smooth="yes"/>
      <point x="81" y="264" type="line" smooth="yes"/>
      <point x="81" y="67"/>
      <point x="184" y="-12"/>
      <point x="394" y="-12" type="curve" smooth="yes"/>
      <point x="601" y="-12"/>
      <point x="673" y="104"/>
      <point x="675" y="260" type="curve" smooth="yes"/>
    </contour>
    <contour>
      <point x="415" y="886"/>
      <point x="364" y="822"/>
      <point x="322" y="767" type="curve"/>
      <point x="330" y="758" type="line"/>
      <point x="386" y="783"/>
      <point x="471" y="829"/>
      <point x="527" y="872" type="curve"/>
      <point x="516" y="908"/>
      <point x="483" y="935"/>
      <point x="450" y="941" type="curve"/>
    </contour>
    <contour>
      <point x="620" y="886"/>
      <point x="569" y="822"/>
      <point x="527" y="767" type="curve"/>
      <point x="535" y="758" type="line"/>
      <point x="591" y="783"/>
      <point x="676" y="829"/>
      <point x="732" y="872" type="curve"/>
      <point x="721" y="908"/>
      <point x="688" y="935"/>
      <point x="655" y="941" type="curve"/>
    </contour>
  </outline>
</glyph>
<glyph name="uhungarumlaut" format="1">
  <advance width="746"/>
  <unicode hex="0171"/>
  <outline>
    <contour>
      <point x="463" y="93" type="line"/>
      <point x="430" y="66"/>
      <point x="387" y="43"/>
      <point x="342" y="43" type="curve" smooth="yes"/>
      <point x="296" y="43"/>
      <point x="279" y="66"/>
      <point x="279" y="126" type="curve" smooth="yes"/>
      <point x="279" y="504" type="line"/>
      <point x="262" y="504" type="line"/>
      <point x="20" y="474" type="line"/>
      <point x="20" y="456" type="line"/>
      <point x="55" y="448" type="line" smooth="yes"/>
      <point x="74" y="444"/>
      <point x="79" y="442"/>
      <point x="79" y="426" type="curve" smooth="yes"/>
      <point x="79" y="144" type="line" smooth="yes"/>
      <point x="79" y="45"/>
      <point x="123" y="-12"/>
      <point x="252" y="-12" type="curve" smooth="yes"/>
      <point x="351" y="-12"/>
      <point x="425" y="29"/>
      <point x="465" y="63" type="curve"/>
      <point x="465" y="52" type="line" smooth="yes"/>
      <point x="465" y="16"/>
      <point x="479" y="0"/>
      <point x="519" y="0" type="curve" smooth="yes"/>
      <point x="722" y="0" type="line"/>
      <point x="722" y="18" type="line"/>
      <point x="687" y="26" type="line" smooth="yes"/>
      <point x="668" y="30"/>
      <point x="663" y="32"/>
      <point x="663" y="48" type="curve" smooth="yes"/>
      <point x="663" y="504" type="line"/>
      <point x="646" y="504" type="line"/>
      <point x="404" y="474" type="line"/>
      <point x="404" y="456" type="line"/>
      <point x="439" y="448" type="line" smooth="yes"/>
      <point x="458" y="444"/>
      <point x="463" y="442"/>
      <point x="463" y="426" type="curve" smooth="yes"/>
    </contour>
    <contour>
      <point x="261" y="692"/>
      <point x="210" y="628"/>
      <point x="168" y="573" type="curve"/>
      <point x="176" y="564" type="line"/>
      <point x="232" y="589"/>
      <point x="317" y="635"/>
      <point x="373" y="678" type="curve"/>
      <point x="362" y="714"/>
      <point x="329" y="741"/>
      <point x="296" y="747" type="curve"/>
    </contour>
    <contour>
      <point x="466" y="692"/>
      <point x="415" y="628"/>
      <point x="373" y="573" type="curve"/>
      <point x="381" y="564" type="line"/>
      <point x="437" y="589"/>
      <point x="522" y="635"/>
      <point x="578" y="678" type="curve"/>
      <point x="567" y="714"/>
      <point x="534" y="741"/>
      <point x="501" y="747" type="curve"/>
    </contour>
  </outline>
</glyph>
<glyph name="Uogonek" format="1">
  <advance width="754"/>
  <unicode hex="0172"/>
  <outline>
    <contour>
      <point x="675" y="651" type="line" smooth="yes"/>
      <point x="675" y="666"/>
      <point x="680" y="668"/>
      <point x="698" y="672" type="curve" smooth="yes"/>
      <point x="734" y="680" type="line"/>
      <point x="734" y="700" type="line"/>
      <point x="582" y="700" type="line"/>
      <point x="582" y="680" type="line"/>
      <point x="619" y="672" type="line" smooth="yes"/>
      <point x="638" y="668"/>
      <point x="643" y="666"/>
      <point x="643" y="650" type="curve" smooth="yes"/>
      <point x="643" y="252" type="line" smooth="yes"/>
      <point x="643" y="117"/>
      <point x="576" y="22"/>
      <point x="445" y="22" type="curve" smooth="yes"/>
      <point x="309" y="22"/>
      <point x="285" y="88"/>
      <point x="285" y="246" type="curve" smooth="yes"/>
      <point x="285" y="651" type="line" smooth="yes"/>
      <point x="285" y="666"/>
      <point x="290" y="668"/>
      <point x="308" y="672" type="curve" smooth="yes"/>
      <point x="344" y="680" type="line"/>
      <point x="344" y="700" type="line"/>
      <point x="20" y="700" type="line"/>
      <point x="20" y="680" type="line"/>
      <point x="57" y="672" type="line" smooth="yes"/>
      <point x="76" y="668"/>
      <point x="81" y="666"/>
      <point x="81" y="650" type="curve" smooth="yes"/>
      <point x="81" y="264" type="line" smooth="yes"/>
      <point x="81" y="67"/>
      <point x="184" y="-12"/>
      <point x="394" y="-12" type="curve" smooth="yes"/>
      <point x="601" y="-12"/>
      <point x="673" y="104"/>
      <point x="675" y="260" type="curve" smooth="yes"/>
    </contour>
    <contour>
      <point x="543" y="-142" type="line"/>
      <point x="529" y="-153"/>
      <point x="509" y="-165"/>
      <point x="490" y="-165" type="curve" smooth="yes"/>
      <point x="449" y="-165"/>
      <point x="432" y="-147"/>
      <point x="432" y="-106" type="curve" smooth="yes"/>
      <point x="432" y="-54"/>
      <point x="450" y="-18"/>
      <point x="503" y="4" type="curve"/>
      <point x="481" y="4" type="line"/>
      <point x="403" y="-16"/>
      <point x="334" y="-58"/>
      <point x="334" y="-131" type="curve" smooth="yes"/>
      <point x="334" y="-178"/>
      <point x="370" y="-205"/>
      <point x="440" y="-205" type="curve" smooth="yes"/>
      <point x="492" y="-205"/>
      <point x="526" y="-180"/>
      <point x="550" y="-153" type="curve"/>
    </contour>
  </outline>
</glyph>
<glyph name="uogonek" format="1">
  <advance width="746"/>
  <unicode hex="0173"/>
  <outline>
    <contour>
      <point x="463" y="93" type="line"/>
      <point x="430" y="66"/>
      <point x="387" y="43"/>
      <point x="342" y="43" type="curve" smooth="yes"/>
      <point x="296" y="43"/>
      <point x="279" y="66"/>
      <point x="279" y="126" type="curve" smooth="yes"/>
      <point x="279" y="504" type="line"/>
      <point x="262" y="504" type="line"/>
      <point x="20" y="474" type="line"/>
      <point x="20" y="456" type="line"/>
      <point x="55" y="448" type="line" smooth="yes"/>
      <point x="74" y="444"/>
      <point x="79" y="442"/>
      <point x="79" y="426" type="curve" smooth="yes"/>
      <point x="79" y="144" type="line" smooth="yes"/>
      <point x="79" y="45"/>
      <point x="123" y="-12"/>
      <point x="252" y="-12" type="curve" smooth="yes"/>
      <point x="351" y="-12"/>
      <point x="425" y="29"/>
      <point x="465" y="63" type="curve"/>
      <point x="465" y="52" type="line" smooth="yes"/>
      <point x="465" y="16"/>
      <point x="479" y="0"/>
      <point x="519" y="0" type="curve" smooth="yes"/>
      <point x="722" y="0" type="line"/>
      <point x="722" y="18" type="line"/>
      <point x="687" y="26" type="line" smooth="yes"/>
      <point x="668" y="30"/>
      <point x="663" y="32"/>
      <point x="663" y="48" type="curve" smooth="yes"/>
      <point x="663" y="504" type="line"/>
      <point x="646" y="504" type="line"/>
      <point x="404" y="474" type="line"/>
      <point x="404" y="456" type="line"/>
      <point x="439" y="448" type="line" smooth="yes"/>
      <point x="458" y="444"/>
      <point x="463" y="442"/>
      <point x="463" y="426" type="curve" smooth="yes"/>
    </contour>
    <contour>
      <point x="695" y="-142" type="line"/>
      <point x="681" y="-153"/>
      <point x="661" y="-165"/>
      <point x="642" y="-165" type="curve" smooth="yes"/>
      <point x="601" y="-165"/>
      <point x="584" y="-147"/>
      <point x="584" y="-106" type="curve" smooth="yes"/>
      <point x="584" y="-54"/>
      <point x="602" y="-18"/>
      <point x="655" y="4" type="curve"/>
      <point x="633" y="4" type="line"/>
      <point x="555" y="-16"/>
      <point x="486" y="-58"/>
      <point x="486" y="-131" type="curve" smooth="yes"/>
      <point x="486" y="-178"/>
      <point x="522" y="-205"/>
      <point x="592" y="-205" type="curve" smooth="yes"/>
      <point x="644" y="-205"/>
      <point x="678" y="-180"/>
      <point x="702" y="-153" type="curve"/>
    </contour>
  </outline>
</glyph>
<glyph name="ycircumflex" format="1">
  <advance width="582"/>
  <unicode hex="0177"/>
  <outline>
    <contour>
      <point x="318" y="486" type="line"/>
      <point x="4" y="486" type="line"/>
      <point x="4" y="471" type="line"/>
      <point x="34" y="463" type="line"/>
      <point x="44" y="461"/>
      <point x="55" y="458"/>
      <point x="62" y="444" type="curve" smooth="yes"/>
      <point x="303" y="-16" type="line"/>
      <point x="246" y="-55"/>
      <point x="163" y="-84"/>
      <point x="69" y="-88" type="curve"/>
      <point x="123" y="-240" type="line"/>
      <point x="229" y="-215"/>
      <point x="257" y="-167"/>
      <point x="330" y="0" type="curve" smooth="yes"/>
      <point x="525" y="448" type="line" smooth="yes"/>
      <point x="532" y="464"/>
      <point x="537" y="465"/>
      <point x="552" y="467" type="curve" smooth="yes"/>
      <point x="578" y="471" type="line"/>
      <point x="578" y="486" type="line"/>
      <point x="463" y="486" type="line"/>
      <point x="463" y="471" type="line"/>
      <point x="489" y="468" type="line" smooth="yes"/>
      <point x="504" y="466"/>
      <point x="504" y="463"/>
      <point x="499" y="451" type="curve" smooth="yes"/>
      <point x="390" y="197" type="line"/>
      <point x="274" y="430" type="line" smooth="yes"/>
      <point x="263" y="452"/>
      <point x="273" y="461"/>
      <point x="292" y="465" type="curve" smooth="yes"/>
      <point x="318" y="471" type="line"/>
    </contour>
    <contour>
      <point x="355" y="718" type="line"/>
      <point x="316" y="669"/>
      <point x="271" y="622"/>
      <point x="221" y="581" type="curve"/>
      <point x="232" y="566" type="line"/>
      <point x="282" y="583"/>
      <point x="331" y="606"/>
      <point x="381" y="635" type="curve"/>
      <point x="431" y="606"/>
      <point x="480" y="583"/>
      <point x="530" y="566" type="curve"/>
      <point x="541" y="581" type="line"/>
      <point x="492" y="622"/>
      <point x="446" y="669"/>
      <point x="407" y="718" type="curve"/>
    </contour>
  </outline>
</glyph>
<glyph name="Ydieresis" format="1">
  <advance width="720"/>
  <unicode hex="0178"/>
  <outline>
    <contour>
      <point x="439" y="349" type="line"/>
      <point x="279" y="651" type="line" smooth="yes"/>
      <point x="272" y="664"/>
      <point x="274" y="675"/>
      <point x="289" y="676" type="curve" smooth="yes"/>
      <point x="329" y="680" type="line"/>
      <point x="329" y="700" type="line"/>
      <point x="4" y="700" type="line"/>
      <point x="4" y="680" type="line"/>
      <point x="43" y="676" type="line"/>
      <point x="57" y="674"/>
      <point x="63" y="668"/>
      <point x="72" y="652" type="curve" smooth="yes"/>
      <point x="256" y="318" type="line"/>
      <point x="256" y="50" type="line" smooth="yes"/>
      <point x="256" y="34"/>
      <point x="251" y="32"/>
      <point x="232" y="28" type="curve" smooth="yes"/>
      <point x="195" y="20" type="line"/>
      <point x="195" y="0" type="line"/>
      <point x="521" y="0" type="line"/>
      <point x="521" y="20" type="line"/>
      <point x="484" y="28" type="line" smooth="yes"/>
      <point x="465" y="32"/>
      <point x="460" y="34"/>
      <point x="460" y="50" type="curve" smooth="yes"/>
      <point x="460" y="324" type="line"/>
      <point x="651" y="652" type="line" smooth="yes"/>
      <point x="659" y="666"/>
      <point x="663" y="675"/>
      <point x="687" y="677" type="curve" smooth="yes"/>
      <point x="718" y="680" type="line"/>
      <point x="718" y="700" type="line"/>
      <point x="552" y="700" type="line"/>
      <point x="552" y="681" type="line"/>
      <point x="599" y="677" type="line" smooth="yes"/>
      <point x="613" y="676"/>
      <point x="624" y="665"/>
      <point x="617" y="653" type="curve" smooth="yes"/>
    </contour>
    <contour>
      <point x="337" y="767"/>
      <point x="368" y="799"/>
      <point x="368" y="840" type="curve" smooth="yes"/>
      <point x="368" y="881"/>
      <point x="337" y="913"/>
      <point x="291" y="913" type="curve" smooth="yes"/>
      <point x="245" y="913"/>
      <point x="214" y="881"/>
      <point x="214" y="840" type="curve" smooth="yes"/>
      <point x="214" y="799"/>
      <point x="245" y="767"/>
      <point x="291" y="767" type="curve" smooth="yes"/>
    </contour>
    <contour>
      <point x="575" y="767"/>
      <point x="606" y="799"/>
      <point x="606" y="840" type="curve" smooth="yes"/>
      <point x="606" y="881"/>
      <point x="575" y="913"/>
      <point x="529" y="913" type="curve" smooth="yes"/>
      <point x="483" y="913"/>
      <point x="452" y="881"/>
      <point x="452" y="840" type="curve" smooth="yes"/>
      <point x="452" y="799"/>
      <point x="483" y="767"/>
      <point x="529" y="767" type="curve" smooth="yes"/>
    </contour>
  </outline>
</glyph>
<glyph name="Zacute" format="1">
  <advance width="762"/>
  <unicode hex="0179"/>
  <outline>
    <contour>
      <point x="695" y="199" type="line"/>
      <point x="670" y="199" type="line"/>
      <point x="633" y="83"/>
      <point x="609" y="30"/>
      <point x="486" y="30" type="curve" smooth="yes"/>
      <point x="285" y="30" type="line"/>
      <point x="698" y="674" type="line"/>
      <point x="698" y="700" type="line"/>
      <point x="106" y="700" type="line"/>
      <point x="106" y="505" type="line"/>
      <point x="131" y="505" type="line"/>
      <point x="168" y="617"/>
      <point x="192" y="670"/>
      <point x="315" y="670" type="curve" smooth="yes"/>
      <point x="470" y="670" type="line"/>
      <point x="58" y="26" type="line"/>
      <point x="58" y="0" type="line"/>
      <point x="695" y="0" type="line"/>
    </contour>
    <contour>
      <point x="507" y="867"/>
      <point x="430" y="813"/>
      <point x="375" y="771" type="curve"/>
      <point x="380" y="760" type="line"/>
      <point x="441" y="770"/>
      <point x="545" y="797"/>
      <point x="606" y="825" type="curve"/>
      <point x="605" y="863"/>
      <point x="580" y="898"/>
      <point x="550" y="912" type="curve"/>
    </contour>
  </outline>
</glyph>
<glyph name="zdotaccent" format="1">
  <advance width="564"/>
  <unicode hex="017C"/>
  <outline>
    <contour>
      <point x="526" y="466" type="line"/>
      <point x="526" y="486" type="line"/>
      <point x="56" y="486" type="line"/>
      <point x="56" y="355" type="line"/>
      <point x="76" y="355" type="line"/>
      <point x="102" y="435"/>
      <point x="121" y="461"/>
      <point x="213" y="461" type="curve" smooth="yes"/>
      <point x="323" y="461" type="line"/>
      <point x="32" y="20" type="line"/>
      <point x="32" y="0" type="line"/>
      <point x="528" y="0" type="line"/>
      <point x="528" y="135" type="line"/>
      <point x="508" y="135" type="line"/>
      <point x="482" y="53"/>
      <point x="463" y="25"/>
      <point x="371" y="25" type="curve" smooth="yes"/>
      <point x="235" y="25" type="line"/>
    </contour>
    <contour>
      <point x="342" y="569"/>
      <point x="379" y="593"/>
      <point x="379" y="644" type="curve" smooth="yes"/>
      <point x="379" y="695"/>
      <point x="342" y="719"/>
      <point x="292" y="719" type="curve" smooth="yes"/>
      <point x="242" y="719"/>
      <point x="205" y="695"/>
      <point x="205" y="644" type="curve" smooth="yes"/>
      <point x="205" y="593"/>
      <point x="242" y="569"/>
      <point x="292" y="569" type="curve" smooth="yes"/>
    </contour>
  </outline>
</glyph>
<glyph name="zcaron" format="1">
  <advance width="564"/>
  <unicode hex="017E"/>
  <outline>
    <contour>
      <point x="526" y="466" type="line"/>
      <point x="526" y="486" type="line"/>
      <point x="56" y="486" type="line"/>
      <point x="56" y="355" type="line"/>
      <point x="76" y="355" type="line"/>
      <point x="102" y="435"/>
      <point x="121" y="461"/>
      <point x="213" y="461" type="curve" smooth="yes"/>
      <point x="323" y="461" type="line"/>
      <point x="32" y="20" type="line"/>
      <point x="32" y="0" type="line"/>
      <point x="528" y="0" type="line"/>
      <point x="528" y="135" type="line"/>
      <point x="508" y="135" type="line"/>
      <point x="482" y="53"/>
      <point x="463" y="25"/>
      <point x="371" y="25" type="curve" smooth="yes"/>
      <point x="235" y="25" type="line"/>
    </contour>
    <contour>
      <point x="318" y="566" type="line"/>
      <point x="357" y="615"/>
      <point x="403" y="662"/>
      <point x="452" y="703" type="curve"/>
      <point x="441" y="718" type="line"/>
      <point x="391" y="701"/>
      <point x="342" y="678"/>
      <point x="292" y="649" type="curve"/>
      <point x="242" y="678"/>
      <point x="193" y="701"/>
      <point x="143" y="718" type="curve"/>
      <point x="132" y="703" type="line"/>
      <point x="182" y="662"/>
      <point x="227" y="615"/>
      <point x="266" y="566" type="curve"/>
    </contour>
  </outline>
</glyph>
